<svg width="195" height="33" viewBox="0 0 195 33" fill="none" xmlns="http://www.w3.org/2000/svg">
<path d="M148.751 1.18708C148.053 1.1874 147.372 1.39309 146.791 1.77847C146.209 2.16384 145.755 2.71183 145.483 3.35405L133.63 31.4284L133.513 31.7104H138.411L148.73 6.67674L159.049 31.5866L159.097 31.7104H164.002L152.032 3.35405C151.761 2.70859 151.305 2.1581 150.721 1.77234C150.136 1.38657 149.451 1.18288 148.751 1.18708Z" fill="#FF0001"/>
<path d="M190.584 1.18701L172.924 25.1544V1.18701H168.48V31.7104H172.821L190.556 7.63977V31.7104H195V1.18701H190.584Z" fill="#FF0001"/>
<path d="M0 31.6829H4.51281V5.28018H21.0231V31.7035H25.4533V1.18701H0V31.6829Z" fill="#FF0001"/>
<path d="M85.3032 3.3335C85.0173 2.69495 84.5528 2.15276 83.9657 1.77232C83.3785 1.39188 82.6939 1.18945 81.9943 1.18945C81.2946 1.18945 80.61 1.39188 80.0228 1.77232C79.4357 2.15276 78.9712 2.69495 78.6853 3.3335L67.9124 27.5486H64.1494V31.7105H99.8666V27.5486H96.1037L85.3032 3.3335ZM72.8035 27.5486L82.008 6.41542L91.2056 27.5486H72.8035Z" fill="#FF0001"/>
<path d="M127.095 4.28283C124.177 1.77053 120.454 0.388892 116.604 0.38916C113.427 0.388853 110.322 1.33061 107.681 3.0953C105.041 4.85999 102.982 7.36832 101.767 10.303C100.552 13.2376 100.235 16.4667 100.855 19.5818C101.476 22.6969 103.006 25.558 105.253 27.8031C107.119 29.662 109.413 31.0331 111.934 31.7956C114.455 32.5581 117.125 32.6885 119.708 32.1752C122.291 31.662 124.709 30.5209 126.747 28.8526C128.785 27.1843 130.381 25.0402 131.394 22.6092L131.511 22.3341H126.696L126.634 22.4304C125.602 24.167 124.135 25.6052 122.379 26.6038C120.623 27.6025 118.638 28.1272 116.617 28.1264C113.813 28.1232 111.102 27.1119 108.981 25.2771C106.859 23.4422 105.468 20.906 105.06 18.1308H132.577V17.952C132.626 17.4635 132.653 16.9476 132.653 16.4454C132.652 15.6578 132.592 14.8714 132.474 14.0927C131.914 10.2837 130.005 6.80246 127.095 4.28283ZM109.208 7.42666C110.753 6.16722 112.593 5.32319 114.555 4.97466C116.517 4.62613 118.535 4.78466 120.418 5.4352C122.302 6.08575 123.988 7.20673 125.316 8.6918C126.645 10.1769 127.572 11.9768 128.01 13.9207H105.198C105.767 11.3703 107.174 9.08399 109.195 7.42666H109.208Z" fill="#FF0001"/>
<path d="M47.4669 0.38916C44.2913 0.38916 41.187 1.33084 38.5465 3.09512C35.9061 4.85941 33.8481 7.36705 32.6329 10.3009C31.4176 13.2348 31.0996 16.4632 31.7192 19.5778C32.3387 22.6924 33.8679 25.5534 36.1134 27.7989C38.3589 30.0444 41.2199 31.5736 44.3345 32.1931C47.4491 32.8126 50.6774 32.4947 53.6113 31.2794C56.5452 30.0642 59.0529 28.0062 60.8172 25.3658C62.5814 22.7253 63.5231 19.621 63.5231 16.4454C63.5177 12.1887 61.8243 8.1079 58.8143 5.09795C55.8044 2.08801 51.7236 0.394621 47.4669 0.38916V0.38916ZM59.1617 16.4454C59.1617 18.7584 58.4758 21.0195 57.1907 22.9427C55.9057 24.8659 54.0792 26.3648 51.9423 27.25C49.8053 28.1351 47.4539 28.3667 45.1853 27.9155C42.9168 27.4642 40.833 26.3504 39.1974 24.7148C37.5619 23.0793 36.4481 20.9955 35.9968 18.7269C35.5456 16.4584 35.7772 14.1069 36.6623 11.97C37.5475 9.83306 39.0464 8.00658 40.9696 6.72155C42.8928 5.43651 45.1539 4.75062 47.4669 4.75062C50.5685 4.75062 53.5431 5.98275 55.7363 8.17594C57.9295 10.3691 59.1617 13.3437 59.1617 16.4454Z" fill="#FF0001"/>
<path d="M63.3582 14.1477C62.8539 10.7168 61.256 7.54015 58.802 5.0899C56.348 2.63964 53.169 1.04656 49.7373 0.547416C49.4294 0.50735 49.1165 0.533912 48.8198 0.625302C48.523 0.716692 48.2494 0.870776 48.0174 1.07712C47.7016 1.35184 47.4709 1.71115 47.3526 2.11267C47.2343 2.5142 47.2334 2.94118 47.3498 3.34325C47.4662 3.74532 47.6952 4.10571 48.0097 4.38189C48.3243 4.65808 48.7113 4.83854 49.125 4.902C51.6201 5.26262 53.9319 6.41989 55.7158 8.2013C57.4997 9.98271 58.6602 12.2929 59.0243 14.7875C59.0888 15.2007 59.27 15.5869 59.5466 15.9005C59.8233 16.2142 60.1837 16.4423 60.5856 16.5579C60.9875 16.6736 61.4141 16.672 61.8151 16.5533C62.2161 16.4347 62.5749 16.2039 62.8492 15.8882C63.0555 15.6526 63.2079 15.3748 63.2959 15.0742C63.3838 14.7736 63.4051 14.4574 63.3582 14.1477Z" fill="black"/>
</svg>
