<svg width="99" height="90" viewBox="0 0 99 90" fill="none" xmlns="http://www.w3.org/2000/svg">
<path d="M43.3595 58.4659C40.1049 58.4659 36.8527 58.4395 33.6004 58.4395C24.7647 58.4395 15.9266 58.3749 7.09331 58.4754C4.2656 58.5066 2.09985 57.8192 0.996582 55.0173V3.98753C1.29638 3.83665 1.26041 3.50855 1.38033 3.26907C2.09985 1.83215 3.19831 0.917312 4.81483 0.6898C5.25546 0.62275 5.70026 0.586738 6.14595 0.582031C35.3952 0.582031 64.6421 0.582031 93.8866 0.582031C96.58 0.582031 98.3548 1.83694 98.8801 4.11206C98.963 4.48468 99.0033 4.86552 99 5.24722C99 21.0102 99 36.7732 99 52.5362C99 52.6631 98.9808 52.79 98.9712 52.917C98.6882 52.8858 98.6642 52.6775 98.6018 52.4524C98.113 50.6917 97.3419 49.0216 96.3186 47.507C95.7717 46.6712 94.8579 46.0964 94.5965 45.069C94.5965 35.3874 94.5965 25.7049 94.5965 16.0217C94.5965 14.0699 94.5965 14.0699 92.7138 13.7322C89.3128 13.1215 86.0534 9.70167 85.7968 6.46621C85.6889 5.12748 85.6889 5.12748 84.3218 5.12748C61.7768 5.12748 39.2247 5.12748 16.6653 5.12748C15.9458 5.12748 15.116 4.85447 14.5212 5.28075C13.9935 5.65914 14.2549 6.47818 14.1014 7.08408C13.1637 10.7913 10.264 13.4329 6.37859 13.8687C5.47679 13.9693 5.39045 14.2878 5.39045 15.0302C5.40964 24.4261 5.41443 33.8219 5.40484 43.2178C5.40484 45.0211 5.40484 45.0211 7.24201 45.2654C10.5998 45.7132 13.9575 49.272 14.1974 52.6895C14.2597 53.5875 14.5883 53.906 15.5405 53.9036C24.8559 53.8653 34.1688 53.8797 43.4842 53.8869C43.88 53.8869 44.3213 53.7336 44.6642 54.0857C44.1069 55.5065 43.6704 56.9718 43.3595 58.4659V58.4659Z" fill="#109348"/>
<path d="M70.1086 89.5607C66.3377 89.594 62.6838 88.2541 59.8307 85.7918C56.9776 83.3295 55.1208 79.9135 54.6077 76.183C54.5334 75.6346 54.1832 75.5603 53.7899 75.4167C49.6527 73.9031 46.5731 71.2065 44.7167 67.1951C43.7574 65.102 43.1722 62.9083 43.3353 60.5709C44.7024 60.5446 45.3619 60.0416 45.7337 58.7364C45.8272 58.4012 45.9112 58.0635 45.9735 57.721C46.8633 52.8283 51.1564 48.5008 56.0204 47.5357C56.9606 47.3513 57.9919 47.265 58.6131 46.3263C58.7007 46.2139 58.7601 46.0822 58.7864 45.9422C58.8127 45.8022 58.8051 45.658 58.7642 45.5216C58.6586 45.1911 58.354 45.2821 58.1142 45.2821C57.7017 45.2629 57.2868 45.2605 56.8742 45.251C58.3373 44.9516 59.8051 45.0522 61.2729 45.2126L61.6974 45.2462C62.8343 45.5767 63.9975 45.8233 65.0911 46.2999C66.4558 46.8938 66.4582 46.889 67.3552 45.6725C67.5519 45.5168 67.6862 45.2629 67.986 45.2629C68.6303 45.5261 69.2211 45.9043 69.7297 46.3789C69.3099 46.925 68.6024 47.4423 68.5424 48.0242C68.4705 48.7235 69.4394 48.9941 69.9263 49.4827L71.2502 51.013C72.3103 52.5505 73.3057 54.1263 73.7518 55.9728C73.6151 56.0374 73.4808 56.1548 73.3416 56.1596C72.1808 56.2051 71.0128 56.0925 69.8592 56.3559C69.3795 56.4685 69.1253 56.1787 68.931 55.7596C68.5302 54.8383 67.9525 54.0044 67.2305 53.3049C67.1921 53.2388 67.1356 53.185 67.0676 53.1498C66.9996 53.1146 66.923 53.0994 66.8468 53.1061V53.1061L66.6501 52.9097C66.6501 52.5816 66.4103 52.3876 66.1992 52.2128C63.3619 49.9521 60.1816 48.939 56.5768 49.7413C49.4104 51.3387 45.7217 58.8418 48.8372 65.466C49.3696 66.5964 50.0148 67.7004 51.1349 68.4021L51.3339 68.6248C52.1614 69.8606 53.3846 70.4904 54.7684 70.8784C54.6252 71.6242 54.5545 72.3821 54.5574 73.1415C54.5574 73.3978 54.2264 73.7115 54.6245 73.8863C54.7718 73.9499 54.9324 73.9768 55.0924 73.9647C55.2524 73.9526 55.4071 73.9019 55.5431 73.8169C55.8942 73.6255 56.1983 73.3586 56.4335 73.0356C56.6686 72.7126 56.829 72.3414 56.903 71.9489C57.1668 70.6102 57.4834 69.2858 58.1022 68.0644C60.2608 63.8902 63.6521 61.4043 68.2714 60.5637C69.3987 60.3601 69.8664 59.7926 69.9119 58.6335C70.221 58.4784 70.5679 58.4144 70.9121 58.449C72.14 58.4347 73.3105 58.8442 74.4977 59.019L76.7762 59.8165C78.0281 60.5829 79.2921 61.3325 80.4265 62.2736C81.5972 63.4774 82.6808 64.7627 83.6692 66.1198C83.9714 66.8239 84.1033 67.607 84.6477 68.1985C84.8444 68.9361 84.818 69.7552 85.4368 70.3371C85.2713 71.5346 85.7797 72.732 85.5927 73.9294C84.0745 74.1402 83.3526 75.0023 83.0576 76.5303C82.2757 80.5704 80.0572 83.6478 76.4859 85.7553C75.0661 86.5911 73.5167 86.979 71.929 87.3215C70.6051 87.6257 70.0966 88.2771 70.1086 89.5607ZM62.0524 81.5858L62.4433 81.9858C62.659 82.2583 62.8955 82.5138 63.1508 82.7497C66.5878 85.4918 71.5165 85.8032 75.2748 83.849C77.3773 82.7604 79.0701 81.021 80.0996 78.8913C81.1291 76.7615 81.4398 74.356 80.9853 72.0351C80.6232 70.033 79.93 68.1171 78.3423 66.6802L78.1384 66.4599L77.9825 66.2946C77.9384 66.2263 77.8758 66.1718 77.8019 66.1375C77.7281 66.1031 77.646 66.0904 77.5652 66.1006C77.3638 65.2361 76.5555 64.999 75.9439 64.5943C71.7443 61.8258 65.8922 62.4389 62.3138 65.921C59.5389 68.6344 58.5435 71.9489 59.0376 75.7088C59.335 77.9863 60.2752 80.0196 62.0596 81.593L62.0524 81.5858Z" fill="#FECA5B"/>
<path d="M84.6576 68.206C84.1131 67.6144 83.9812 66.8313 83.679 66.1272C83.8997 66.0123 84.1179 65.8877 84.3434 65.7871C85.214 65.3896 85.3963 64.901 84.7919 64.0485C83.7549 62.6156 82.5468 61.3144 81.1943 60.1736C81.1943 60.1137 81.1943 60.0538 81.1823 59.9916C81.1823 57.3812 81.1823 54.7708 81.1823 52.158C81.1803 51.9048 81.1505 51.6527 81.0936 51.406C80.8057 50.1607 79.9111 49.3919 78.8535 49.5236C77.4552 49.7009 76.6949 50.5798 76.762 51.8682C76.834 53.4249 76.786 54.9815 76.762 56.5478C76.762 56.7705 76.894 57.0675 76.467 57.2399C75.9431 54.5505 74.8201 52.0132 73.1812 49.8158C72.8623 49.3871 73.2556 49.2243 73.4666 49.0638C76.2536 46.9803 79.3307 46.19 82.794 46.8941C84.2331 47.1839 85.4323 47.9334 86.7346 48.5034L86.9337 48.7022C86.996 48.8387 87.0608 48.8411 87.1303 48.7022C88.0332 49.5071 88.7256 50.5199 89.1474 51.6527C90.8958 55.9035 90.1067 61.1148 86.6027 64.2544C85.4035 65.3201 85.473 65.3657 86.3101 66.7738C86.5331 67.1522 86.653 67.1786 87.008 66.9008C89.5843 64.941 91.3378 62.0939 91.9271 58.9139C92.3133 56.998 92.7882 56.4927 94.551 56.155C94.6829 56.9285 94.5006 57.6829 94.4287 58.4469C93.6899 62.8886 91.4882 66.4218 87.8235 69.0466C87.6081 69.1787 87.3837 69.2955 87.1519 69.3962C87.0272 68.9436 86.8785 68.4981 86.785 68.0407C86.6482 67.3797 86.3053 67.4396 85.8256 67.6887C85.461 67.8898 85.1564 68.2826 84.6576 68.206ZM85.8568 63.0402C86.3796 63.1552 86.7394 62.8367 87.056 62.4559C88.495 60.655 89.0538 58.5259 89.2265 56.2843C89.2745 55.6641 88.9867 55.2114 88.2144 55.1923C87.4949 55.1707 86.9648 55.403 86.972 56.1502C86.9936 58.1595 86.2837 59.8503 84.967 61.3375C84.8086 61.4978 84.706 61.7047 84.6745 61.9277C84.6429 62.1506 84.6841 62.3778 84.7919 62.5756C85.0197 63.0522 85.4035 63.0642 85.8616 63.0402H85.8568Z" fill="#F5B445"/>
<path d="M94.4384 58.4539C94.5103 57.69 94.6926 56.9356 94.5607 56.162C94.647 55.2041 94.4623 54.2629 94.304 53.3289C93.8412 50.6131 92.5868 48.2542 90.9463 46.0797C91.1406 45.7779 91.5051 45.8162 91.7737 45.6654C92.5364 45.2367 93.4526 45.4259 94.2249 45.0786H94.6038C94.8653 46.106 95.7791 46.6808 96.3259 47.5166C97.3491 49.0281 98.121 50.6949 98.6116 52.4524C98.6739 52.6799 98.6979 52.8859 98.9809 52.917C99.1368 55.9321 97.976 57.7379 95.4745 58.3438C95.1318 58.4027 94.7857 58.4395 94.4384 58.4539V58.4539Z" fill="#0E8944"/>
<path d="M70.1091 89.5607C70.0971 88.2771 70.6056 87.6256 71.9463 87.3335C73.5268 86.991 75.0762 86.603 76.5032 85.7672C80.0744 83.6598 82.293 80.5824 83.0748 76.5422C83.3698 75.0143 84.0918 74.1474 85.6099 73.9414C85.8834 80.295 81.4895 86.9096 74.4934 88.9404C74.2158 89.0052 73.9347 89.054 73.6515 89.0865L73.3637 89.1919L72.4044 89.3763C71.9247 89.2134 71.445 88.9955 71.0637 89.5272L70.1091 89.5607Z" fill="#F5B647"/>
<path d="M56.8793 45.2438C57.2943 45.2438 57.7092 45.2438 58.1217 45.2749C58.3615 45.2749 58.6661 45.1911 58.7717 45.5144C58.8126 45.6508 58.8202 45.795 58.7939 45.935C58.7676 46.075 58.7082 46.2067 58.6206 46.3191C57.9994 47.2578 56.9681 47.3441 56.0279 47.5285C51.164 48.4864 46.8708 52.8211 45.981 57.7138C45.9187 58.0563 45.8347 58.394 45.7412 58.7292C45.3718 60.0344 44.7123 60.5374 43.3428 60.5637C43.3428 59.8612 43.3508 59.1595 43.3668 58.4586C43.6768 56.9638 44.1124 55.4977 44.6691 54.076C45.5605 52.309 46.7243 50.6927 48.118 49.2863C50.3125 47.3704 52.7373 45.9071 55.6658 45.421C56.0783 45.3803 56.5388 45.6246 56.8961 45.2246L56.8793 45.2438Z" fill="#FDE078"/>
<path d="M84.6577 68.2058C85.1566 68.2824 85.4612 67.8896 85.8401 67.6957C86.3198 67.4562 86.658 67.3867 86.7995 68.0477C86.893 68.5051 87.0393 68.9506 87.1664 69.4032C86.648 69.8051 86.0692 70.1227 85.4516 70.3444C84.828 69.7624 84.8544 68.9434 84.6577 68.2058Z" fill="#F09A22"/>
<path d="M71.0488 89.5274C71.4398 88.9957 71.9171 89.2137 72.3895 89.3765C71.9386 89.3909 71.5093 89.6543 71.0488 89.5274Z" fill="#FECA5B"/>
<path d="M73.3564 89.1918L73.6442 89.0864L73.3564 89.1918Z" fill="#FECA5B"/>
<path d="M48.1109 49.3053C46.7172 50.7118 45.5534 52.328 44.662 54.0951C44.319 53.743 43.8777 53.8987 43.482 53.8963C34.1666 53.8963 24.8536 53.8747 15.5382 53.913C14.5788 53.913 14.2575 53.5969 14.1951 52.6989C13.9553 49.291 10.5975 45.7322 7.23975 45.2748C5.40257 45.0353 5.40257 45.0353 5.40257 43.2272C5.40257 33.8297 5.39778 24.4339 5.38818 15.0396C5.38818 14.2972 5.47453 13.9787 6.37632 13.8781C10.2497 13.4423 13.1614 10.8007 14.0992 7.09348C14.2527 6.48279 13.9912 5.66854 14.5189 5.29015C15.1137 4.86387 15.9411 5.13688 16.6631 5.13688C39.208 5.1273 61.7602 5.1273 84.3195 5.13688C85.6866 5.13688 85.6866 5.13688 85.7945 6.47561C86.0511 9.71107 89.3106 13.1309 92.7115 13.7416C94.5942 14.0793 94.5942 14.0793 94.5942 16.0311C94.5942 25.7143 94.5942 35.3968 94.5942 45.0784H94.2153C94.1319 44.9448 94.0347 44.8204 93.9251 44.7072C92.0855 43.1745 90.0877 41.922 87.7564 41.2706C85.7394 40.7054 83.6791 40.4324 81.5949 40.8395C79.5779 40.6 77.5632 40.4635 75.5725 41.0455C73.8121 41.2849 72.2412 42.0034 70.7566 42.9326C69.7252 43.5744 68.6723 44.2043 67.9792 45.2556C67.6794 45.2556 67.5451 45.5095 67.3484 45.6651C65.4873 45.1981 63.6189 44.8174 61.6906 45.2389L61.2661 45.2053C62.1007 44.2115 63.0145 43.2751 63.7556 42.2189C66.9839 37.6112 68.3126 32.5102 67.617 26.8918C66.8208 20.4808 63.9283 15.3486 58.3808 11.8664C55.3474 9.92446 51.725 9.11369 48.1516 9.57696C43.2397 10.1853 39.2776 12.6591 36.3635 16.6035C32.7659 21.4842 31.5068 27.0595 32.4541 33.0155C33.2768 38.2004 35.62 42.6428 39.8556 45.9262C42.2924 47.8205 44.9738 49.1329 48.1109 49.3053ZM18.8 29.4663C18.8 31.83 20.9442 34.0812 23.2994 33.9662C25.813 33.8417 27.7173 32.2348 27.7005 29.5022C27.6861 26.7194 25.8465 25.1124 23.297 25.0693C20.7475 25.0262 18.8792 27.1289 18.8 29.4663ZM81.2016 29.5166C81.1959 28.3401 80.7258 27.2133 79.8934 26.3807C79.0609 25.5481 77.9332 25.0769 76.755 25.0693C74.3781 25.0693 72.3659 26.5254 72.3059 29.4519C72.2508 32.0719 73.9704 33.8417 76.7478 33.9495C79.0454 34.0381 81.1632 32.0144 81.2016 29.5166Z" fill="#3BB44A"/>
<path d="M48.1107 49.3055C44.9736 49.1331 42.2922 47.8207 39.8602 45.9384C35.6246 42.655 33.2814 38.2125 32.4587 33.0276C31.4994 27.0716 32.7585 21.4964 36.3681 16.6157C39.2846 12.6713 43.2444 10.1974 48.1563 9.58913C51.7296 9.12586 55.352 9.93663 58.3854 11.8786C63.9329 15.3607 66.8254 20.5001 67.6217 26.904C68.3196 32.5104 66.9885 37.6114 63.7603 42.2311C63.0192 43.2872 62.1054 44.2236 61.2707 45.2175C59.8029 45.057 58.3351 44.9565 56.8721 45.2558H56.8793C56.4691 45.3229 56.023 45.172 55.6489 45.4522C52.73 45.9264 50.3052 47.3896 48.1107 49.3055Z" fill="#0E9347"/>
<path d="M77.9853 66.2922L78.1412 66.4574L78.3451 66.6778C79.9328 68.1147 80.614 70.0306 80.9833 72.0351C81.4378 74.356 81.127 76.7615 80.0975 78.8912C79.0681 81.021 77.3753 82.7604 75.2727 83.8489C71.5144 85.8031 66.5857 85.4918 63.1488 82.7497C62.8935 82.5137 62.657 82.2583 62.4413 81.9857C62.4413 81.7295 62.3166 81.5858 62.0503 81.5858C62.0564 81.3313 61.9853 81.0809 61.8465 80.8673C59.1243 75.8261 60.6857 69.669 64.7989 66.7017C67.7393 64.5823 70.958 63.9117 74.5052 64.8361C75.5917 65.1187 76.5079 65.7653 77.5656 66.0886C77.6519 66.2754 77.8102 66.2946 77.9853 66.2922ZM72.21 74.0372C72.21 72.5117 72.21 70.9837 72.21 69.4582C72.21 68.3374 71.5624 67.5423 70.603 67.4417C69.0177 67.2765 68.1567 67.6812 67.9984 68.9481C67.593 72.2339 67.7322 75.5436 67.9192 78.8341C67.996 80.1465 69.1928 80.8075 70.4975 80.6231C71.4784 80.4842 72.21 79.5166 72.2124 78.3312C72.2124 76.899 72.21 75.4693 72.2076 74.0372H72.21ZM80.247 74.5473V74.3581C80.2638 73.6971 80.2902 73.0505 79.3596 72.9787C78.513 72.9116 78.1772 73.2804 78.0956 74.1162C77.9158 75.9339 77.4481 77.651 76.1577 79.0544C75.702 79.5502 75.5893 80.2207 76.2033 80.635C76.4778 80.8395 76.8215 80.9289 77.161 80.8842C77.5006 80.8394 77.8092 80.6641 78.0213 80.3955C79.3661 78.7316 80.1448 76.6831 80.2446 74.5473H80.247Z" fill="#F5B445"/>
<path d="M54.7761 70.8736C53.3923 70.4857 52.1691 69.8558 51.3416 68.6201L51.1426 68.3973C51.1421 68.3018 51.1225 68.2074 51.085 68.1195C48.4684 64.4434 49.032 58.3006 51.9508 54.9765C54.7713 51.7602 59.1029 50.5388 63.1657 51.4441C64.4297 51.7267 65.5018 52.402 66.6578 52.905L66.8545 53.1013C66.892 53.1683 66.9484 53.2228 67.0166 53.2581C67.0847 53.2934 67.1618 53.308 67.2382 53.3001C67.9602 53.9996 68.5379 54.8336 68.9387 55.7549C69.133 56.174 69.38 56.4733 69.8669 56.3512C71.0205 56.0877 72.1885 56.2003 73.3493 56.1548C73.4885 56.1548 73.6228 56.0327 73.7595 55.968C74.3135 56.9259 74.2823 58.0036 74.5174 59.0286C73.3182 58.8538 72.1597 58.4443 70.9318 58.4587C70.5876 58.424 70.2407 58.488 69.9316 58.6431L69.7254 58.4658C69.7446 58.0372 69.5119 57.6731 69.428 57.2684C69.2913 56.6098 68.9723 56.5092 68.3343 56.6984C66.9254 57.0767 65.5718 57.6362 64.3074 58.3629C63.1906 59.073 62.1232 59.858 61.1127 60.7122C61.1127 59.1053 61.1127 57.6492 61.1127 56.1931C61.1127 55.4866 60.9136 54.8807 60.338 54.4425C59.5729 53.8629 58.7071 53.9036 57.9061 54.2509C57.105 54.5981 56.7069 55.3501 56.7069 56.2554C56.7069 59.1148 56.7069 61.9743 56.7069 64.8338C56.7069 65.0733 56.6565 65.3487 56.9011 65.5331C55.9825 67.2334 55.0687 68.9314 54.7761 70.8736Z" fill="#F5B445"/>
<path d="M74.5075 59.0167C74.2676 57.9917 74.3036 56.902 73.7496 55.956C73.3035 54.1072 72.3105 52.5338 71.248 50.9963C72.9269 49.6695 72.879 48.9822 71.248 48.1224V47.7177C71.3724 47.7413 71.5006 47.7353 71.6222 47.7004C71.7438 47.6655 71.8556 47.6025 71.9484 47.5165C75.3061 44.9253 79.0021 44.3745 82.981 45.8258C84.4704 46.3694 85.8591 47.1142 86.7729 48.5008C85.4754 47.9309 84.269 47.1813 82.8323 46.8915C79.369 46.1922 76.2919 46.9777 73.5049 49.0612C73.2939 49.2217 72.9005 49.3845 73.2195 49.8132C74.8584 52.0106 75.9814 54.5479 76.5053 57.2373C76.9322 57.0649 76.7979 56.7583 76.8003 56.5452C76.8147 54.9861 76.8627 53.4319 76.8003 51.8656C76.7428 50.5772 77.4935 49.6983 78.8917 49.521C79.9494 49.3893 80.844 50.1581 81.1318 51.4034C81.1888 51.6501 81.2186 51.9022 81.2206 52.1554C81.2206 54.7682 81.2206 57.3786 81.2206 59.989C80.1269 59.6274 79.3354 58.7556 78.2849 58.2958C76.8075 57.6516 76.8339 57.5965 76.8267 59.158C76.8267 59.3807 76.8267 59.601 76.8147 59.8237L74.5075 59.0167Z" fill="#F09921"/>
<path d="M66.6624 52.9123C65.5063 52.407 64.4343 51.734 63.1703 51.4514C59.1074 50.5462 54.7759 51.7675 51.9554 54.9838C49.0365 58.3151 48.4849 64.4507 51.0896 68.1173C51.1271 68.2051 51.1466 68.2996 51.1471 68.3951C50.0271 67.6934 49.3819 66.5893 48.8495 65.459C45.7315 58.8252 49.4227 51.3293 56.5891 49.7343C60.1867 48.932 63.3742 49.9451 66.2115 52.2058C66.4321 52.3902 66.6624 52.5842 66.6624 52.9123Z" fill="#F09A22"/>
<path d="M77.5729 66.1005C76.5152 65.7772 75.599 65.1305 74.5125 64.848C70.9653 63.9235 67.7466 64.5941 64.8062 66.7136C60.6929 69.6808 59.1316 75.838 61.8538 80.8792C61.9926 81.0927 62.0637 81.3431 62.0576 81.5976C60.2732 80.0338 59.333 77.991 59.0356 75.7134C58.544 71.9535 59.5393 68.639 62.3215 65.9256C65.8999 62.4363 71.752 61.8304 75.9515 64.5989C76.5631 65.0036 77.3714 65.2431 77.5729 66.1005Z" fill="#F09A22"/>
<path d="M54.7761 70.8736C55.0687 68.9313 55.9753 67.2334 56.8963 65.5354C59.9887 61.0395 64.2618 58.6821 69.7158 58.4634L69.922 58.6406C69.8765 59.7997 69.4088 60.3673 68.2815 60.5709C63.6622 61.4115 60.2613 63.8973 58.1123 68.0716C57.4839 69.2929 57.1673 70.6173 56.9131 71.956C56.8383 72.3457 56.6782 72.7141 56.4444 73.0349C56.2106 73.3558 55.9087 73.6211 55.5604 73.8121C55.4244 73.8971 55.2697 73.9478 55.1097 73.9599C54.9497 73.972 54.7891 73.9451 54.6418 73.8815C54.2437 73.7067 54.5699 73.4025 54.5747 73.1367C54.5686 72.3776 54.6361 71.6197 54.7761 70.8736Z" fill="#FEE078"/>
<path d="M67.9839 45.2556C68.677 44.2043 69.7299 43.5792 70.7612 42.9326C72.2458 42.0082 73.8168 41.2777 75.5772 41.0454C76.3159 41.1987 77.0163 40.7916 77.7358 40.8802C78.1147 40.9281 78.6592 40.6407 78.839 41.134C79.0189 41.6274 78.6208 42.0201 78.2682 42.353C78.0114 42.5906 77.6871 42.7429 77.34 42.7889C75.9269 42.9877 74.5521 43.3995 73.2628 44.0103C72.0636 44.597 70.814 45.1694 70.0849 46.4051L69.7155 46.3764C69.211 45.9013 68.6243 45.5215 67.9839 45.2556V45.2556Z" fill="#FDE078"/>
<path d="M81.2037 60.1733C82.5562 61.3142 83.7643 62.6154 84.8013 64.0482C85.4057 64.9008 85.2234 65.3893 84.3528 65.7869C84.1273 65.8899 83.9091 66.012 83.6884 66.127C82.7001 64.7699 81.6165 63.4846 80.4458 62.2808C81.1174 61.7324 81.2013 60.9684 81.2037 60.1733Z" fill="#F09921"/>
<path d="M81.204 60.1733C81.204 60.9684 81.1176 61.7323 80.4365 62.2808C79.3021 61.3396 78.0381 60.59 76.7861 59.8236C76.7861 59.6033 76.7981 59.383 76.7981 59.1603C76.7981 57.5988 76.7789 57.6539 78.2564 58.2981C79.3069 58.7579 80.0983 59.6297 81.192 59.9913C81.1968 60.0535 81.2016 60.1134 81.204 60.1733Z" fill="#E68825"/>
<path d="M69.7275 46.3721L70.0968 46.4008C70.4782 46.8463 70.8619 47.2893 71.2433 47.7324V48.1371C70.6245 48.4077 70.4926 49.1597 69.9169 49.4758C69.4373 48.9968 68.4611 48.7166 68.5331 48.0173C68.6002 47.4354 69.3078 46.9181 69.7275 46.3721Z" fill="#F5B445"/>
<path d="M61.6953 45.2387C63.614 44.8172 65.492 45.198 67.3531 45.665C66.4561 46.8816 66.4537 46.8864 65.089 46.2925C63.9954 45.8159 62.8322 45.5692 61.6953 45.2387Z" fill="#109348"/>
<path d="M69.9243 49.4754C70.4999 49.1593 70.6318 48.4073 71.2506 48.1367C72.8791 48.9917 72.9295 49.679 71.2506 51.0106L69.9243 49.4754Z" fill="#E68825"/>
<path d="M62.0527 81.5859C62.319 81.5859 62.4389 81.7296 62.4437 81.9859L62.0527 81.5859Z" fill="#F09A22"/>
<path d="M67.2285 53.298C67.1521 53.3059 67.075 53.2913 67.0068 53.256C66.9386 53.2206 66.8823 53.1661 66.8447 53.0992C66.921 53.0925 66.9976 53.1076 67.0656 53.1429C67.1335 53.1781 67.19 53.2319 67.2285 53.298V53.298Z" fill="#F09A22"/>
<path d="M77.9852 66.2922C77.8125 66.2922 77.6542 66.2754 77.5679 66.0982C77.6487 66.0879 77.7307 66.1007 77.8046 66.135C77.8784 66.1693 77.941 66.2238 77.9852 66.2922V66.2922Z" fill="#F09A22"/>
<path d="M78.3425 66.6803L78.1387 66.46L78.3425 66.6803Z" fill="#F09A22"/>
<path d="M66.8519 53.106L66.6553 52.9097L66.8519 53.106Z" fill="#F09A22"/>
<path d="M51.1421 68.3975L51.3412 68.6202L51.1421 68.3975Z" fill="#F09A22"/>
<path d="M71.2431 47.7322C70.8618 47.2892 70.478 46.8461 70.0967 46.4007C70.8162 45.1697 72.0802 44.5973 73.2746 44.0058C74.5639 43.395 75.9387 42.9832 77.3518 42.7844C77.6989 42.7385 78.0232 42.5862 78.28 42.3486C78.6326 42.0157 79.0283 41.6301 78.8508 41.1296C78.6734 40.6291 78.1313 40.9236 77.7476 40.8757C77.0281 40.7871 76.3205 41.1942 75.589 41.041C77.5797 40.459 79.5943 40.5955 81.6138 40.835C82.1055 40.9404 82.6067 41.0242 83.0936 41.1535C86.2115 41.9822 88.761 43.74 90.9364 46.0845C92.5817 48.2591 93.836 50.618 94.2941 53.3338C94.4524 54.2678 94.6371 55.2066 94.5508 56.1669C92.7879 56.5046 92.3131 57.0195 91.9269 58.9258C91.3417 62.1069 89.5916 64.9567 87.0174 66.9199C86.6624 67.1977 86.5377 67.1713 86.3195 66.7929C85.4824 65.3847 85.4201 65.3392 86.6121 64.2735C90.1209 61.1339 90.9052 55.9226 89.1568 51.6718C88.7353 50.5381 88.0429 49.5245 87.1397 48.7189H86.943L86.744 48.5201C85.8326 47.1335 84.4415 46.3887 82.9521 45.8451C78.9804 44.3938 75.2892 44.9446 71.9195 47.5358C71.8289 47.6174 71.721 47.6775 71.6038 47.7115C71.4867 47.7455 71.3634 47.7526 71.2431 47.7322Z" fill="#FECA5B"/>
<path d="M85.8614 63.0397C85.4033 63.0637 85.0196 63.0517 84.7869 62.5751C84.6791 62.3773 84.638 62.1501 84.6695 61.9272C84.701 61.7042 84.8036 61.4973 84.962 61.337C86.2787 59.8498 86.9887 58.159 86.9671 56.1497C86.9671 55.4025 87.4803 55.1702 88.2094 55.1918C88.9841 55.2109 89.2695 55.6708 89.2216 56.2838C89.0489 58.5254 88.502 60.6545 87.051 62.4554C86.744 62.8482 86.3795 63.1547 85.8614 63.0397Z" fill="#FECA5B"/>
<path d="M86.9434 48.7041H87.14C87.0705 48.843 87.0057 48.8406 86.9434 48.7041Z" fill="#F09921"/>
<path d="M86.7539 48.5127L86.953 48.7115L86.7539 48.5127Z" fill="#F09921"/>
<path d="M90.9365 46.0847C88.7564 43.7449 86.2069 41.987 83.077 41.1632C82.5973 41.0339 82.0888 40.9501 81.5972 40.8447C83.6886 40.4376 85.7392 40.7106 87.7563 41.2758C90.0827 41.9272 92.0854 43.1797 93.9249 44.7124C94.0345 44.8256 94.1318 44.95 94.2152 45.0836C93.4333 45.4237 92.5363 45.2417 91.764 45.6703C91.5002 45.8164 91.1356 45.7781 90.9365 46.0847Z" fill="#109348"/>
<path d="M55.6587 45.44C56.0328 45.1598 56.4789 45.3107 56.8891 45.2437C56.5317 45.6436 56.0712 45.3993 55.6587 45.44Z" fill="#FECA5B"/>
<path d="M18.7999 29.4665C18.879 27.1291 20.7186 25.0264 23.2969 25.0695C25.8751 25.1126 27.6859 26.7196 27.7003 29.5024C27.7171 32.2349 25.8128 33.8419 23.2993 33.9664C20.944 34.0814 18.7879 31.8302 18.7999 29.4665Z" fill="#0E9347"/>
<path d="M81.2016 29.5171C81.1633 32.015 79.0431 34.0386 76.7478 33.95C73.9705 33.8423 72.2508 32.0725 72.306 29.4525C72.3659 26.5259 74.3782 25.0603 76.755 25.0699C77.9332 25.0774 79.0609 25.5486 79.8934 26.3812C80.7259 27.2138 81.196 28.3406 81.2016 29.5171V29.5171Z" fill="#0E9347"/>
<path d="M72.2072 74.0373C72.2072 75.4742 72.2072 76.8992 72.2072 78.3313C72.2072 79.5287 71.4733 80.4867 70.4924 80.6232C69.1876 80.8076 67.9908 80.1442 67.9141 78.8342C67.727 75.5437 67.5879 72.234 67.9932 68.9482C68.1515 67.6718 69.0126 67.2718 70.5979 67.4419C71.5573 67.5425 72.2 68.3375 72.2048 69.4583C72.2144 70.9911 72.2072 72.5118 72.2072 74.0373Z" fill="#F09920"/>
<path d="M80.2444 74.5472C80.1439 76.6833 79.3643 78.7318 78.0187 80.3954C77.8066 80.664 77.498 80.8393 77.1584 80.884C76.8188 80.9288 76.4752 80.8394 76.2007 80.6349C75.5867 80.2206 75.6994 79.55 76.1551 79.0543C77.4454 77.6509 77.9131 75.941 78.093 74.1161C78.1746 73.2803 78.5103 72.9187 79.357 72.9785C80.2876 73.0504 80.2612 73.697 80.2444 74.358V74.5472Z" fill="#FECA5B"/>
<path d="M69.7154 58.4637C64.2551 58.6745 59.9819 61.0318 56.896 65.5357C56.6561 65.3513 56.7017 65.0831 56.7017 64.8364C56.7017 61.977 56.7017 59.1175 56.7017 56.258C56.7017 55.3528 57.0758 54.6128 57.9009 54.2536C58.7259 53.8943 59.5678 53.8656 60.3329 54.4451C60.9085 54.8834 61.1124 55.4893 61.1076 56.1958C61.1076 57.6519 61.1076 59.1079 61.1076 60.7149C62.1181 59.8606 63.1854 59.0757 64.3022 58.3655C65.5666 57.6389 66.9203 57.0794 68.3291 56.7011C68.9671 56.5119 69.2885 56.6125 69.4228 57.2711C69.502 57.671 69.7346 58.035 69.7154 58.4637Z" fill="#F09921"/>
<path d="M50.8764 31.8144H48.8796V34.1229H53.5125C54.0648 34.1229 54.5125 34.5706 54.5125 35.1229V36.0123C54.5125 36.5646 54.0648 37.0123 53.5125 37.0123H48.8796V39.5591C48.8796 40.1114 48.4319 40.5591 47.8796 40.5591H45.3345C44.7823 40.5591 44.3345 40.1114 44.3345 39.5591V37.0123H43.2632C42.7109 37.0123 42.2632 36.5646 42.2632 36.0123V35.1229C42.2632 34.5706 42.7109 34.1229 43.2632 34.1229H44.3345V31.8144H43.2632C42.7109 31.8144 42.2632 31.3667 42.2632 30.8144V29.925C42.2632 29.3727 42.7109 28.925 43.2632 28.925H44.3345V19.6362C44.3345 19.0839 44.7823 18.6362 45.3345 18.6362H50.5337C51.8252 18.6362 52.9925 18.7687 54.0356 19.0337C55.0788 19.2885 55.9679 19.686 56.7031 20.2262C57.4481 20.7663 58.0194 21.4594 58.4168 22.3053C58.8241 23.1513 59.0277 24.1552 59.0277 25.3171C59.0277 26.163 58.9135 26.9121 58.685 27.5644C58.4565 28.2065 58.1436 28.7721 57.7462 29.2613C57.3488 29.7404 56.8868 30.1429 56.3603 30.4691C55.8338 30.7952 55.2675 31.0602 54.6615 31.2641C54.0555 31.4577 53.4296 31.6004 52.7839 31.6921C52.1381 31.7737 51.5023 31.8144 50.8764 31.8144ZM48.8796 21.5409V28.925H50.638C51.9196 28.925 52.8783 28.5887 53.5141 27.916C54.1598 27.2433 54.4827 26.3312 54.4827 25.1795C54.4827 24.0583 54.1598 23.1716 53.5141 22.5194C52.8783 21.8671 51.9196 21.5409 50.638 21.5409H48.8796Z" fill="#87C662"/>
</svg>
