<svg width="99" height="74" viewBox="0 0 99 74" fill="none" xmlns="http://www.w3.org/2000/svg">
<path d="M41.9258 0.958008C47.1449 0.958008 52.3616 0.958008 57.5807 0.984584C60.6371 1.0015 62.9088 2.69998 63.6862 5.48084C63.8853 6.25816 63.9798 7.05846 63.9671 7.86065C63.9671 11.7489 63.9768 15.6363 63.9962 19.5229L63.9744 19.7234C63.6692 20.0544 63.8073 20.4482 63.8073 20.83C63.7927 32.6767 63.7847 44.5225 63.7831 56.3676C63.4295 56.3821 63.0759 56.4087 62.7247 56.4087C53.8656 56.4087 45.0088 56.4087 36.1497 56.4328C35.3335 56.4328 34.8976 56.1574 34.4544 55.5075C31.8484 51.6853 28.2084 49.5084 23.5802 49.2644C18.1262 48.9769 13.8516 51.2093 10.7952 55.737C10.5652 56.0801 10.3956 56.428 9.85798 56.4207C6.57394 56.3773 3.2899 56.3773 0.00585938 56.3579V5.836C0.248045 5.72003 0.248045 5.4591 0.30617 5.25857C1.25312 2.57917 3.34802 1.00633 6.20582 0.989416C11.4879 0.958008 16.7724 0.989416 22.0569 0.989416V17.2011C22.3402 16.9595 22.5049 16.8121 22.6599 16.6623C23.2412 16.109 23.7837 15.1523 24.4037 15.0991C25.1302 15.0411 25.663 16.0655 26.2031 16.6647C26.7892 17.3267 27.1718 17.2736 27.7289 16.643C28.2859 16.0124 28.8478 15.1402 29.4726 15.0846C30.0974 15.0291 30.6181 16.0752 31.2139 16.6043C31.3361 16.7093 31.4502 16.8231 31.5554 16.945C31.8509 17.2905 32.1391 17.2929 32.4345 16.945C32.5185 16.8494 32.6074 16.7583 32.7009 16.672C33.3185 16.1187 33.8416 15.0339 34.5125 15.0895C35.1833 15.145 35.7234 16.1308 36.3289 16.7082C36.4009 16.7724 36.4688 16.841 36.5323 16.9136C36.852 17.3074 37.1499 17.276 37.4865 16.9136C37.9225 16.4304 38.4262 16.0293 38.8379 15.5388C39.3029 14.988 39.6662 14.8793 40.1675 15.5123C40.6349 16.1018 41.2017 16.6116 41.7224 17.1576L41.9185 17.0223L41.9258 0.958008Z" fill="#FED05C"/>
<path d="M0.00583983 56.358C3.28988 56.3773 6.57392 56.3822 9.85796 56.4208C10.3956 56.4208 10.5651 56.0802 10.7952 55.7371C13.8516 51.2094 18.1262 48.9722 23.5802 49.2645C28.2084 49.5061 31.8484 51.6806 34.4543 55.5076C34.8975 56.1575 35.3335 56.4353 36.1496 56.4329C45.0088 56.3991 53.8655 56.4112 62.7247 56.4088C63.0759 56.4088 63.4295 56.3822 63.783 56.3677H64.0252C65.1829 56.3798 66.3405 56.3677 67.4958 56.4208C68.1206 56.4522 68.4645 56.2372 68.8132 55.7081C73.8531 47.8197 85.0639 46.9813 91.2905 53.9661C92.0025 54.7634 92.2592 56.0874 93.3733 56.3484C94.4413 56.59 95.6135 56.4063 96.7397 56.4063C96.9625 56.4063 97.1877 56.3822 97.4105 56.3677C98.9872 56.4909 98.9872 56.4909 98.9872 58.1459C98.9872 59.6511 98.963 61.1587 98.9993 62.6639C99.0138 63.2413 98.8685 63.4419 98.2582 63.4322C95.7201 63.3911 93.1723 63.4032 90.6439 63.396C90.3266 62.891 90.547 62.3232 90.455 61.7917C89.5564 56.602 84.4512 52.8113 79.2442 53.6182C74.708 54.3237 70.7846 58.4141 70.7677 63.4443C64.2739 63.4346 57.7801 63.4266 51.2863 63.4201C45.4044 63.4201 39.5209 63.4201 33.6358 63.4201C33.2579 63.4201 32.8608 63.3356 32.5072 63.5651C32.6937 60.6513 31.5651 58.1918 29.521 56.2686C27.2178 54.0942 24.4351 53.0649 21.1608 53.6472C18.2545 54.1667 16.0555 55.6767 14.4014 58.0831C13.2873 59.7018 12.9967 61.5429 12.7739 63.4177C8.80203 63.4177 4.82937 63.4177 0.855912 63.4177C0.572555 63.4177 0.286775 63.466 0.00341797 63.4926L0.00583983 56.358Z" fill="#344B5E"/>
<path d="M97.4079 56.3777C97.1851 56.3922 96.9598 56.414 96.737 56.4164C95.6108 56.4164 94.4387 56.6096 93.3706 56.3584C92.2638 56.0975 91.9999 54.7735 91.2878 53.9762C85.0612 46.9914 73.8505 47.8297 68.8106 55.7181C68.4715 56.2472 68.1179 56.4623 67.4931 56.4309C66.3379 56.3705 65.1802 56.3898 64.0226 56.3777C64.0226 55.9622 63.9935 55.5442 63.9935 55.1286C63.9838 43.3303 63.9774 31.5327 63.9741 19.736L63.9959 19.5354C70.8474 19.5354 77.7012 19.4799 84.5526 19.5354C88.8587 19.5741 92.2614 22.2535 93.5498 26.5226C94.8383 30.7918 96.0395 35.073 97.2722 39.3518C97.3614 39.6246 97.4119 39.9084 97.4224 40.195C97.4256 45.5844 97.4208 50.9787 97.4079 56.3777ZM92.4334 39.4026C91.3605 35.3243 90.2246 31.2605 88.895 27.2595C88.246 25.305 86.6863 24.1815 84.5648 24.167C79.3214 24.1283 74.0757 24.167 68.8227 24.167C68.3117 24.2395 68.486 24.6502 68.486 24.9232C68.4739 29.5765 68.486 34.2298 68.4642 38.8831C68.4642 39.5717 68.7064 39.7553 69.37 39.7529C76.8003 39.736 84.2305 39.7529 91.6511 39.7336C91.9442 39.707 92.3559 39.9027 92.4334 39.3905V39.4026Z" fill="#FE7058"/>
<path d="M41.9256 0.958123V17.02L41.7294 17.1553C41.2087 16.6093 40.642 16.0995 40.1746 15.51C39.6732 14.877 39.31 14.9857 38.845 15.5365C38.4332 16.0197 37.9295 16.4401 37.4936 16.9113C37.1569 17.2761 36.859 17.3075 36.5393 16.9113C36.4759 16.8387 36.4079 16.7701 36.3359 16.7059C35.7329 16.1285 35.1662 15.1427 34.5195 15.0872C33.8729 15.0316 33.3255 16.1164 32.708 16.6697C32.612 16.7558 32.5206 16.8469 32.4343 16.9427C32.1388 17.2906 31.8506 17.2882 31.5552 16.9427C31.45 16.8208 31.3358 16.707 31.2137 16.602C30.6179 16.0729 30.1263 15.0243 29.4724 15.0823C28.8185 15.1403 28.2614 16.0367 27.7286 16.6407C27.1958 17.2447 26.7889 17.3244 26.2029 16.6624C25.6628 16.0536 25.1203 15.0388 24.4034 15.0968C23.7834 15.15 23.2409 16.1067 22.6597 16.66C22.5047 16.8098 22.34 16.9451 22.0566 17.1988V0.991948C22.2867 0.735847 22.5919 0.822825 22.8704 0.822825C28.9783 0.822825 35.0854 0.822825 41.1917 0.822825C41.4412 0.822825 41.71 0.755175 41.9256 0.958123Z" fill="#F2F1EF"/>
<path d="M70.77 63.4419C70.7821 58.4117 74.7055 54.3213 79.2465 53.6158C84.4535 52.8089 89.5588 56.5996 90.4573 61.7893C90.5493 62.3208 90.3289 62.8886 90.6462 63.3935C90.4234 65.0848 90.1618 66.7349 89.2343 68.2256C87.2604 71.4197 84.4366 73.1906 80.6633 73.1858C76.8901 73.1809 74.0589 71.41 72.1141 68.1966C71.2229 66.7301 70.8669 65.1234 70.77 63.4419ZM80.6996 59.4361C80.1769 59.4344 79.6591 59.5364 79.1762 59.736C78.6933 59.9356 78.255 60.2289 77.8866 60.5989C77.5182 60.9688 77.2272 61.4081 77.0303 61.8911C76.8335 62.3742 76.7348 62.8914 76.7399 63.4129C76.7619 64.4509 77.1885 65.4395 77.9292 66.1689C78.6698 66.8983 79.6662 67.3111 80.7069 67.3196C82.7824 67.3196 84.6739 65.4134 84.6424 63.3573C84.6279 62.3197 84.2075 61.3289 83.4709 60.5963C82.7342 59.8637 81.7397 59.4473 80.6996 59.4361Z" fill="#435C6D"/>
<path d="M12.7764 63.418C12.9992 61.5432 13.2898 59.7022 14.4039 58.0834C16.058 55.6674 18.257 54.167 21.1633 53.6475C24.4255 53.0653 27.2179 54.0994 29.5235 56.269C31.5676 58.2018 32.6961 60.6517 32.5097 63.5654C32.655 68.7043 28.0583 73.2054 22.6793 73.1909C20.2791 73.1833 17.9641 72.3029 16.1678 70.7147C14.3716 69.1265 13.2175 66.9394 12.9217 64.5632C12.8757 64.1815 12.8248 63.7998 12.7764 63.418ZM18.7584 63.3697C18.7699 64.4056 19.1832 65.3967 19.9116 66.1351C20.64 66.8734 21.6268 67.3016 22.6648 67.3296C24.7864 67.3828 26.6585 65.5272 26.673 63.3576C26.6592 62.3225 26.2414 61.3336 25.5084 60.6009C24.7753 59.8682 23.7847 59.4496 22.7472 59.434C22.2254 59.4282 21.7077 59.5258 21.224 59.721C20.7403 59.9162 20.3002 60.2052 19.9292 60.5712C19.5583 60.9373 19.2638 61.3731 19.0628 61.8535C18.8618 62.3338 18.7583 62.8492 18.7584 63.3697Z" fill="#415A6C"/>
<path d="M63.9745 19.7236C63.9745 31.522 63.9809 43.3195 63.9939 55.1163C63.9939 55.5318 64.0132 55.9498 64.0229 56.3654H63.7807C63.7807 44.5203 63.7888 32.6744 63.805 20.8278C63.8074 20.4605 63.6693 20.0546 63.9745 19.7236Z" fill="#FED483"/>
<path d="M92.4334 39.3898C92.3559 39.902 91.949 39.716 91.6705 39.716C84.2402 39.7281 76.81 39.716 69.3894 39.7353C68.7331 39.7353 68.4812 39.5541 68.4836 38.8655C68.5078 34.2122 68.4836 29.5589 68.5054 24.9056C68.5054 24.6278 68.331 24.2219 68.8396 24.1494C69.898 25.0361 71.1089 25.6933 72.2593 26.4422C78.1331 30.2676 84.0126 34.0834 89.8977 37.8895C90.7114 38.4186 91.4767 39.0733 92.4334 39.3898Z" fill="#CDD3DD"/>
<path d="M92.4335 39.3902C91.4769 39.0737 90.7116 38.4238 89.8881 37.8898C83.9901 34.0999 78.1106 30.2841 72.2497 26.4426C71.0994 25.6937 69.8884 25.0365 68.8301 24.1498C74.0758 24.1498 79.3216 24.116 84.5722 24.1498C86.6937 24.1643 88.2534 25.2878 88.9024 27.2423C90.2248 31.2506 91.3606 35.3119 92.4335 39.3902Z" fill="#F1F1F1"/>
<path d="M80.6997 59.4361C81.7398 59.4473 82.7343 59.8637 83.4709 60.5963C84.2076 61.3289 84.628 62.3197 84.6425 63.3573C84.6739 65.4134 82.7825 67.3148 80.7069 67.3196C79.6662 67.311 78.6698 66.8983 77.9292 66.1689C77.1885 65.4395 76.762 64.4509 76.7399 63.4129C76.7348 62.8914 76.8335 62.3742 77.0304 61.8911C77.2272 61.4081 77.5183 60.9688 77.8866 60.5988C78.255 60.2289 78.6934 59.9356 79.1763 59.736C79.6591 59.5364 80.177 59.4344 80.6997 59.4361Z" fill="#AAB1B8"/>
<path d="M18.7583 63.3696C18.7583 62.849 18.8617 62.3337 19.0627 61.8533C19.2637 61.373 19.5582 60.9371 19.9292 60.5711C20.3002 60.2051 20.7402 59.9161 21.2239 59.7208C21.7076 59.5256 22.2254 59.4281 22.7471 59.4338C23.7847 59.4495 24.7752 59.8681 25.5083 60.6008C26.2414 61.3334 26.6592 62.3224 26.6729 63.3575C26.6584 65.5319 24.7863 67.3826 22.6648 67.3295C21.6267 67.3014 20.6399 66.8733 19.9115 66.1349C19.1832 65.3966 18.7698 64.4054 18.7583 63.3696Z" fill="#AAB1B8"/>
</svg>
