<svg width="16" height="16" viewBox="0 0 16 16" fill="none" xmlns="http://www.w3.org/2000/svg">
<path fill-rule="evenodd" clip-rule="evenodd" d="M8.63907 15.7621C8.46155 15.9155 8.23473 16 8.00007 16C7.7654 16 7.53858 15.9155 7.36107 15.7621L0.264066 9.38506C0.181285 9.31418 0.11483 9.22622 0.069266 9.12722C0.0237023 9.02822 0.000109338 8.92054 0.000109347 8.81156C0.000109357 8.70258 0.0237023 8.59489 0.069266 8.49589C0.11483 8.3969 0.181286 8.30894 0.264066 8.23806C0.44158 8.08458 0.668403 8.00012 0.903066 8.00012C1.13773 8.00012 1.36455 8.08458 1.54207 8.23806L8.00007 14.0401L14.4581 8.23806C14.6355 8.08485 14.8621 8.00055 15.0966 8.00055C15.331 8.00055 15.5576 8.08485 15.7351 8.23806C15.8178 8.30894 15.8843 8.3969 15.9299 8.49589C15.9754 8.59489 15.999 8.70258 15.999 8.81156C15.999 8.92054 15.9754 9.02823 15.9299 9.12722C15.8843 9.22622 15.8178 9.31418 15.7351 9.38506L8.63907 15.7621Z" fill="#242424"/>
<path d="M9.00006 15.0001C9.00006 15.5523 8.55235 16 8.00007 16C7.44778 16 7.00006 15.5523 7.00006 15.0001L7.00006 1.00006C7.00006 0.447775 7.44778 6.02876e-05 8.00006 6.03359e-05C8.55235 6.03841e-05 9.00006 0.447775 9.00006 1.00006L9.00006 15.0001Z" fill="#242424"/>
</svg>
