<svg width="18" height="16" viewBox="0 0 18 16" fill="none" xmlns="http://www.w3.org/2000/svg">
<path d="M14.1429 13.8851L13.9236 13.944L13.7697 13.9853C13.2934 14.1132 12.8399 14.2349 12.3884 14.3575L12.3866 14.3579L12.3866 14.3579C12.287 14.383 12.1934 14.4274 12.111 14.4886C12.0286 14.5498 11.9591 14.6267 11.9064 14.7148C11.8538 14.8029 11.819 14.9005 11.804 15.002C11.789 15.1036 11.7942 15.2071 11.8193 15.3066C11.8443 15.4062 11.8887 15.4998 11.95 15.5822C12.0112 15.6646 12.088 15.7341 12.1761 15.7868C12.2642 15.8395 12.3618 15.8743 12.4634 15.8892C12.5648 15.9042 12.6682 15.899 12.7676 15.8741C13.9696 15.5602 15.1696 15.238 16.3677 14.9074C16.6182 14.8383 16.791 14.7044 16.8869 14.534C16.983 14.3632 17.0083 14.1441 16.9417 13.8928L16.9417 13.8927C16.6284 12.709 16.311 11.5263 15.9895 10.3446L15.9895 10.3446C15.8691 9.9018 15.4513 9.65995 15.0324 9.76813C14.607 9.87888 14.3633 10.299 14.4793 10.7517C14.5313 10.9545 14.5859 11.1559 14.6407 11.358C14.674 11.4805 14.7073 11.6033 14.7401 11.7268L14.7402 11.727C14.7783 11.8717 14.8144 12.0161 14.8544 12.1766C14.8616 12.2051 14.8688 12.2341 14.8762 12.2637L14.9253 12.4602L14.7394 12.3797C14.7172 12.3701 14.6994 12.3629 14.6828 12.3562C14.677 12.3538 14.6714 12.3516 14.6658 12.3493C14.6452 12.3409 14.6238 12.3318 14.6026 12.3196L14.6023 12.3194C12.8979 11.3342 11.1936 10.3517 9.48926 9.37207C9.42697 9.33633 9.38154 9.29132 9.3544 9.23234C9.32861 9.17627 9.32405 9.11724 9.32405 9.06364V9.05217V9.0407V9.02923V9.01777V9.0063V8.99483V8.98337V8.9719V8.96043V8.94896V8.9375V8.92603V8.91456V8.90309V8.89163V8.88016V8.86869V8.85722V8.84576V8.83429V8.82282V8.81135V8.79989V8.78842V8.77695V8.76548V8.75402V8.74255V8.73108V8.71961V8.70815V8.69668V8.68521V8.67374V8.66228V8.65081V8.63934V8.62787V8.61641V8.60494V8.59347V8.58201V8.57054V8.55907V8.5476V8.53614V8.52467V8.5132V8.50173V8.49027V8.4788V8.46733V8.45586V8.4444V8.43293V8.42146V8.41V8.39853V8.38706V8.37559V8.36413V8.35266V8.34119V8.32972V8.31826V8.30679V8.29532V8.28386V8.27239V8.26092V8.24945V8.23799V8.22652V8.21505V8.20358V8.19212V8.18065V8.16918V8.15772V8.14625V8.13478V8.12331V8.11185V8.10038V8.08891V8.07745V8.06598V8.05451V8.04304V8.03158V8.02011V8.00864V7.99717V7.98571V7.97424V7.96277V7.95131V7.93984V7.92837V7.9169V7.90544V7.89397V7.8825V7.87104V7.85957V7.8481V7.83663V7.82517V7.8137V7.80223V7.79077V7.7793V7.76783V7.75636V7.7449V7.73343V7.72196V7.7105V7.69903V7.68756V7.6761V7.66463V7.65316V7.64169V7.63023V7.61876V7.60729V7.59583V7.58436V7.57289V7.56142V7.54996V7.53849V7.52702V7.51556V7.50409V7.49262V7.48116V7.46969V7.45822V7.44675V7.43529V7.42382V7.41235V7.40089V7.38942V7.37795V7.36649V7.35502V7.34355V7.33209V7.32062V7.30915V7.29768V7.28622V7.27475V7.26328V7.25182V7.24035V7.22888V7.21742V7.20595V7.19448V7.18301V7.17155V7.16008V7.14861V7.13715V7.12568V7.11421V7.10275V7.09128V7.07981V7.06835V7.05688V7.04541V7.03395V7.02248V7.01101V6.99955V6.98808V6.97661V6.96514V6.95368V6.94221V6.93074V6.91928V6.90781V6.89634V6.88488V6.87341V6.86194V6.85048V6.83901V6.82754V6.81608V6.80461V6.79314V6.78168V6.77021V6.75874V6.74728V6.73581V6.72434V6.71287V6.70141V6.68994V6.67847V6.66701V6.65554V6.64407V6.63261V6.62114V6.60967V6.59821V6.58674V6.57527V6.56381V6.55234V6.54087V6.52941V6.51794V6.50647V6.49501V6.48354V6.47207V6.46061V6.44914V6.43767V6.42621V6.41474V6.40327V6.39181V6.38034V6.36887V6.35741V6.34594V6.33447V6.32301V6.31154V6.30007V6.28861V6.27714V6.26567V6.25421V6.24274V6.23127V6.21981V6.20834V6.19688V6.18541V6.17394V6.16248V6.15101V6.13954V6.12808V6.11661V6.10514V6.09368V6.08221V6.07074V6.05928V6.04781V6.03634V6.02488V6.01341V6.00194V5.99048V5.97901V5.96754V5.95608V5.94461V5.93314V5.92168V5.91021V5.89875V5.88728V5.87581V5.86435V5.85288V5.84141V5.82995V5.81848V5.80701V5.79555V5.78408V5.77261V5.76115V5.74968V5.73821V5.72675V5.71528V5.70382V5.69235V5.68088V5.66942V5.65795V5.64648V5.63502V5.62355V5.61208V5.60062V5.58915V5.57768V5.56622V5.55475V5.54329V5.53182V5.52035V5.50889V5.49742V5.48595V5.47449V5.46302V5.45156V5.44009V5.42862V5.41716V5.40569V5.39422V5.38276V5.37129V5.35982V5.34836V5.33689V5.32543V5.31396V5.30249V5.29103V5.27956V5.26809V5.25663V5.24516V5.2337V5.22223V5.21076V5.1993V5.18783V5.17636V5.1649V5.15343V5.14197V5.1305V5.11903V5.10757V5.0961V5.08463V5.07317V5.0617V5.05024V5.03877V5.0273V5.01584V5.00437V4.9929V4.98144V4.96997V4.95851V4.94704V4.93557V4.92411V4.91264V4.90118V4.88971V4.87824V4.86678V4.85531V4.84384V4.83238V4.82091V4.80945V4.79798V4.78651V4.77505V4.76358V4.75212V4.74065V4.72918V4.71772V4.70625V4.69478V4.68332V4.67185V4.66039V4.64892V4.63745V4.62599V4.61452V4.60306V4.59159V4.58012V4.56866V4.55719V4.54573V4.53426V4.52279V4.51133V4.49986V4.4884V4.47693V4.46546V4.454V4.44253V4.43107V4.4196V4.40813V4.39667V4.3852V4.37374V4.36227V4.3508V4.33934V4.32787V4.31641V4.30494V4.29347V4.28201V4.27054V4.25908V4.24761V4.23614V4.22468V4.21321V4.20175V4.19028V4.17881V4.16735V4.15588V4.14442V4.13295V4.12148V4.11002V4.09855V4.08709V4.07562V4.06416V4.05269V4.04122V4.02976V4.01829V4.00683V3.99536V3.98389V3.97243V3.96096V3.9495V3.93803V3.92657V3.9151V3.90363V3.89217V3.8807V3.86924V3.85777V3.8463V3.83484V3.82337V3.81191V3.80044V3.78898V3.77751V3.76604V3.75458V3.74311V3.73165V3.72018V3.70871V3.69725V3.68578V3.67432V3.66285V3.65139V3.63992V3.62845V3.61699V3.60552V3.59406V3.58259V3.57113V3.55966V3.54819V3.53673V3.52526V3.5138V3.50233V3.49087V3.4794V3.46793V3.45647V3.445V3.43354V3.42207V3.41061V3.39914V3.38767V3.37621V3.36474V3.35328V3.34181V3.33035V3.31888V3.30742V3.29595V3.28448V3.27302V3.26155V3.25009V3.23862V3.22716V3.21569V3.20422V3.19276C9.32405 3.16391 9.3271 3.13652 9.33046 3.11046C9.33147 3.10266 9.3325 3.09501 9.33354 3.08727C9.33614 3.06792 9.3388 3.04809 9.34132 3.02436L9.36347 2.81622L9.51147 2.96423C9.63887 3.09162 9.76358 3.21667 9.88663 3.34005C10.1277 3.58181 10.3625 3.8172 10.5987 4.05146C10.7804 4.23153 10.9899 4.3207 11.1905 4.32668C11.3905 4.33264 11.5889 4.25629 11.7517 4.09153C12.0628 3.77507 12.0579 3.29768 11.7117 2.95016C10.8635 2.09902 10.0133 1.24869 9.16121 0.399184L9.16047 0.398451C9.12046 0.357718 9.07804 0.319423 9.03344 0.283769C8.71066 0.0298343 8.29046 0.0372887 8.00593 0.317055C7.10102 1.20722 6.20348 2.10492 5.31331 3.01016L5.31304 3.01044C5.16741 3.1574 5.08613 3.35619 5.08707 3.56308C5.08801 3.76997 5.17109 3.96802 5.31805 4.11365C5.46501 4.25928 5.66381 4.34056 5.8707 4.33962C6.07759 4.33868 6.27563 4.25559 6.42126 4.10863L6.42298 4.1069L6.423 4.10693C6.61941 3.91815 6.80942 3.72763 7.00001 3.53653C7.14149 3.39468 7.28329 3.2525 7.42827 3.11047C7.45729 3.08051 7.48954 3.05142 7.52578 3.01873C7.5439 3.00239 7.56301 2.98515 7.58321 2.96646L7.74017 2.82121L7.751 3.03479C7.75198 3.05409 7.75302 3.0718 7.75398 3.08832C7.75618 3.12593 7.75801 3.15737 7.75801 3.18735V3.18748C7.75539 5.15039 7.75638 7.11345 7.76096 9.07668M14.1429 13.8851L7.66096 9.07691M14.1429 13.8851L13.9514 13.7631C13.8742 13.714 13.8228 13.6819 13.769 13.6511L14.1429 13.8851ZM7.76096 9.07668L7.66096 9.07691M7.76096 9.07668C7.76096 9.07662 7.76096 9.07656 7.76096 9.0765L7.66096 9.07691M7.76096 9.07668C7.76125 9.15129 7.7452 9.21564 7.70647 9.27102C7.66955 9.32383 7.61832 9.35902 7.56828 9.38777M7.66096 9.07691C7.66146 9.19589 7.61082 9.24801 7.51838 9.30111M7.56828 9.38777L7.51838 9.30111M7.56828 9.38777C5.89011 10.354 4.21227 11.3209 2.53476 12.2885L2.53469 12.2885C2.49892 12.3091 2.46033 12.3281 2.41576 12.35C2.39573 12.3598 2.3745 12.3702 2.35176 12.3817L2.16721 12.4745L2.20887 12.2722C2.21417 12.2464 2.21871 12.2231 2.22288 12.2017C2.23126 12.1586 2.2382 12.123 2.24702 12.0898M7.56828 9.38777C7.56825 9.38779 7.56823 9.3878 7.5682 9.38782L7.51838 9.30111M7.51838 9.30111L2.24702 12.0898M2.24702 12.0898L2.34369 12.1154M2.24702 12.0898L2.4848 12.2019C2.46423 12.2137 2.44322 12.2247 2.41992 12.2364C2.41586 12.2573 2.41105 12.282 2.40476 12.3125L2.30682 12.2924L2.26187 12.203C2.28859 12.1896 2.31132 12.1784 2.33138 12.1686C2.33531 12.1495 2.33917 12.1324 2.34369 12.1154M2.24702 12.0898C2.2895 11.9291 2.33249 11.7691 2.37543 11.6093C2.45314 11.3201 2.53066 11.0316 2.60469 10.7412C2.71752 10.295 2.47774 9.87698 2.06329 9.76439M2.24702 12.0898C2.24703 12.0897 2.24704 12.0897 2.24705 12.0897L2.34369 12.1154M2.34369 12.1154C2.38596 11.9555 2.42885 11.7959 2.47175 11.6362C2.54959 11.3465 2.62744 11.0568 2.70162 10.7658C2.82699 10.2702 2.56002 9.79572 2.08951 9.66788M7.65779 3.16906C7.65793 3.17523 7.65801 3.18129 7.65801 3.18735L7.65779 3.16906ZM7.65779 3.16906C7.67541 3.15319 7.69543 3.13511 7.71905 3.11325L7.65113 3.03985M7.65779 3.16906L7.65113 3.03985M7.65113 3.03985L7.55126 3.04492C7.55252 3.06969 7.5537 3.0899 7.55472 3.10724C7.55512 3.11405 7.55549 3.12042 7.55584 3.12645M7.65113 3.03985L7.55584 3.12645M7.55584 3.12645C7.53539 3.14516 7.51698 3.16256 7.49921 3.18096C7.356 3.32125 7.21429 3.46331 7.07244 3.60553C6.8807 3.79775 6.68869 3.99026 6.4923 4.17902L7.55584 3.12645ZM0.750232 11.2196L0.846873 11.2453C0.77748 11.5062 0.707502 11.7668 0.637561 12.0272C0.462902 12.6776 0.288474 13.3272 0.123969 13.9796L0.123957 13.9796C0.0219976 14.3831 0.255643 14.7701 0.659769 14.8971L0.660339 14.8973C0.719234 14.9162 0.779797 14.9322 0.843402 14.9489C0.862448 14.9539 0.881768 14.959 0.901397 14.9643L0.875604 15.0609C0.856969 15.0559 0.838284 15.051 0.819606 15.0461C0.755493 15.0292 0.691455 15.0123 0.629776 14.9925C0.179418 14.8509 -0.0890272 14.4143 0.0270039 13.9551C0.191709 13.3019 0.366448 12.6512 0.541187 12.0005C0.611083 11.7403 0.680978 11.48 0.750232 11.2196ZM0.750232 11.2196C0.767363 11.1555 0.784406 11.0914 0.801454 11.0273C0.864646 10.7898 0.927913 10.5519 0.99606 10.3149C1.13667 9.81489 1.60768 9.5376 2.08951 9.66788M0.750232 11.2196L0.846834 11.2454C0.864052 11.181 0.881151 11.1168 0.898234 11.0525C0.961391 10.8151 1.02432 10.5784 1.09217 10.3425L1.09233 10.342C1.21897 9.89163 1.63756 9.64933 2.06329 9.76439M2.08951 9.66788L2.06329 9.76439M2.08951 9.66788L2.0634 9.76442C2.06336 9.76441 2.06333 9.7644 2.06329 9.76439" fill="#242424" stroke="white" stroke-width="0.2"/>
</svg>
