<svg width="17" height="20" viewBox="0 0 17 20" fill="none" xmlns="http://www.w3.org/2000/svg">
<path d="M0 14.8347C0.175233 14.1425 0.350466 13.4505 0.5257 12.7586C1.04877 10.685 1.57184 8.61144 2.09491 6.53784C2.33761 5.58238 3.09024 5.00455 4.07812 4.99973C4.8487 4.99667 5.61885 4.99973 6.42142 4.99973C6.01663 4.41095 5.85191 3.78186 5.97545 3.09582C6.03074 2.76588 6.15454 2.45118 6.33888 2.17201C6.52321 1.89283 6.76399 1.65536 7.04569 1.47492C7.48857 1.18112 8.01512 1.03964 8.54561 1.07189C9.0761 1.10414 9.58164 1.30837 9.98567 1.65365C10.4651 2.05473 10.7705 2.62596 10.8377 3.2474C10.9118 3.88043 10.7466 4.45607 10.3672 4.99973H10.5543C11.2701 4.99973 11.9857 4.99973 12.7009 4.99973C13.737 4.99973 14.4795 5.57888 14.7305 6.58428C15.3986 9.26316 16.0715 11.9407 16.7282 14.6222C17.0349 15.8765 16.1079 17.0514 14.8151 17.0619C13.4816 17.0724 12.148 17.0645 10.8145 17.0645C7.89046 17.0645 4.96655 17.0645 2.04278 17.0645C1.10178 17.0645 0.339076 16.5091 0.0814835 15.6438C0.0503796 15.5378 0.0267231 15.4336 0 15.3267V14.8347ZM8.3871 16.0793C10.5019 16.0793 12.6168 16.0793 14.7319 16.0793C15.4924 16.0793 15.9388 15.501 15.7548 14.7624C15.0939 12.11 14.4335 9.45694 13.7738 6.80332C13.6423 6.27456 13.2787 5.98148 12.739 5.98104C9.84767 5.98104 6.95632 5.98104 4.06497 5.98104C3.53927 5.98104 3.17347 6.2693 3.04468 6.77835C2.37295 9.44452 1.70195 12.1111 1.03169 14.7782C0.991275 14.9307 0.981596 15.0898 1.00321 15.2461C1.08645 15.7582 1.49343 16.0784 2.04103 16.0784C4.1558 16.0802 6.27116 16.0805 8.3871 16.0793ZM8.40024 4.99798C8.69175 4.99729 8.97652 4.91024 9.21859 4.74781C9.46065 4.58539 9.64917 4.35489 9.76032 4.0854C9.87148 3.81592 9.90029 3.51954 9.84312 3.23369C9.78595 2.94785 9.64537 2.68535 9.43912 2.47934C9.23287 2.27333 8.9702 2.13306 8.68429 2.07623C8.39837 2.01941 8.10203 2.04857 7.83268 2.16004C7.56333 2.27152 7.33304 2.46031 7.17091 2.70257C7.00878 2.94483 6.92206 3.22969 6.92171 3.5212C6.92171 3.71528 6.95997 3.90746 7.03429 4.08675C7.10862 4.26603 7.21755 4.42891 7.35487 4.56606C7.49219 4.70322 7.65519 4.81196 7.83457 4.88607C8.01394 4.96018 8.20616 4.99821 8.40024 4.99798Z" fill="#242424"/>
<path d="M8.67822 14H7.23779L5.29443 11.5635H5.2749V14H4.13721V9H5.2749V11.2998H5.29443L7.13037 9H8.51709L6.43701 11.3828L8.67822 14ZM12.8892 9.90332H11.0288V14H9.89111V9H12.8892V9.90332Z" fill="#242424"/>
</svg>
