<svg width="17" height="18" viewBox="0 0 17 18" fill="none" xmlns="http://www.w3.org/2000/svg">
<path d="M11.6107 8.70031L11.6107 8.70026C12.8363 7.80158 14.1569 7.77088 15.497 8.37207C15.7752 8.49676 16.0342 8.66451 16.2805 8.82403C16.3085 8.8422 16.3364 8.86027 16.3642 8.87815L16.2829 9.0042L16.3634 8.87766C16.4744 8.94827 16.5539 9.0477 16.5796 9.16669C16.6056 9.28711 16.5716 9.40609 16.4962 9.50219C16.4227 9.59585 16.3229 9.65659 16.2033 9.66252C16.0891 9.66817 15.98 9.62265 15.8838 9.55394L15.8837 9.55391C15.3447 9.16899 14.7595 8.91228 14.106 8.82733C13.442 8.74101 12.8345 8.89183 12.2702 9.25317L12.2702 9.2532C11.9411 9.46376 11.6583 9.7285 11.4055 10.026C11.4237 10.0503 11.4422 10.0748 11.4609 10.0996C11.5642 10.2367 11.6732 10.3812 11.7588 10.5321L11.7591 10.5326C11.873 10.7356 11.9633 10.951 12.0281 11.1746L12.0304 11.1825L12.0301 11.1825C12.0641 11.329 12.0426 11.4829 11.9699 11.6146L11.9685 11.617L11.9685 11.617C11.9433 11.6606 11.9068 11.6899 11.8768 11.7089C11.8453 11.7288 11.811 11.7435 11.7782 11.7541C11.7156 11.7743 11.6379 11.7858 11.5685 11.7746L11.5681 11.7745C11.4944 11.7625 11.4271 11.7199 11.3802 11.6796C11.3342 11.64 11.2798 11.5783 11.2588 11.5032L11.2586 11.5023C11.108 10.9487 10.8306 10.5539 10.4647 10.2689C10.0963 9.98198 9.63061 9.8006 9.09662 9.68891L9.0966 9.6889C8.22709 9.50691 7.44331 9.76009 6.71904 10.2808L6.71896 10.2809C6.71935 10.2806 6.71239 10.286 6.70025 10.3073C6.6884 10.3281 6.67785 10.3524 6.66428 10.3841C6.63289 10.4577 6.60199 10.5371 6.57009 10.6191C6.50319 10.7911 6.43191 10.9743 6.34253 11.1382L6.21084 11.0664M11.6107 8.70031L5.64724 10.8872L5.65202 10.8833C5.70642 10.8392 5.76693 10.7902 5.79656 10.7309M11.6107 8.70031C11.3815 8.8685 11.1689 9.07144 10.9609 9.26991C10.891 9.33667 10.8216 9.40292 10.7522 9.46718C10.1477 9.09702 9.47017 8.84633 8.71065 8.81338C7.98974 8.7821 7.32778 8.96157 6.70238 9.30216C6.66356 8.64588 6.62493 7.99479 6.58652 7.34725C6.55009 6.7331 6.51385 6.12215 6.47781 5.51298L7.00408 5.35355C7.00993 5.35894 7.01585 5.3644 7.02183 5.36991C7.08608 5.42918 7.15731 5.49487 7.22806 5.5583L7.22894 5.55909C7.62518 5.90873 8.1727 5.89407 8.53224 5.4997L8.53252 5.4994C8.96298 5.02463 9.39025 4.54625 9.81434 4.06427L9.8145 4.06409C9.96791 3.88917 10.0546 3.68658 10.0632 3.47536C10.0717 3.26399 10.0015 3.05571 9.86132 2.87067L9.86129 2.87063C9.43289 2.30554 8.99929 1.74325 8.56627 1.18172C8.53391 1.13975 8.50155 1.09778 8.4692 1.05582C8.4017 0.967804 8.3214 0.887219 8.20861 0.85975C8.09627 0.832395 7.98792 0.866636 7.88798 0.912232L7.88792 0.912263C6.49927 1.54668 5.11053 2.18067 3.72167 2.81424C3.60309 2.86396 3.49776 2.9407 3.4141 3.03837C3.33028 3.13621 3.27055 3.25231 3.23967 3.37736C2.97382 4.35639 2.70576 5.33543 2.43764 6.3147C2.02057 7.83799 1.60334 9.36185 1.19404 10.8871L1.33891 10.926L1.19411 10.8868C1.18182 10.9323 1.16939 10.9779 1.15691 11.0237C0.992776 11.6261 0.820744 12.2575 0.85424 12.9273M11.6107 8.70031L2.50454 14.4061M6.21084 11.0664L6.34262 11.1381C6.25656 11.2963 6.09319 11.4114 5.96298 11.4835L5.89028 11.3523L5.96298 11.4835C5.74788 11.6027 5.50054 11.4739 5.41918 11.2844L5.55701 11.2253L5.4195 11.2852C5.3796 11.1936 5.36649 11.0967 5.39299 11.001C5.41909 10.9067 5.4788 10.8309 5.55259 10.7709L5.55273 10.7707C5.61667 10.7189 5.64926 10.6899 5.66226 10.6641M6.21084 11.0664C6.29577 10.9107 6.36043 10.7442 6.42513 10.5775C6.45797 10.493 6.49081 10.4084 6.52632 10.3252M6.21084 11.0664L6.52632 10.3252M5.66226 10.6641C5.66219 10.6643 5.66211 10.6644 5.66204 10.6646L5.79656 10.7309M5.66226 10.6641C5.66231 10.664 5.66235 10.6639 5.6624 10.6638L5.79656 10.7309M5.66226 10.6641C5.82067 10.3429 5.9193 10.0339 5.89288 9.67969M5.79656 10.7309C5.96113 10.3973 6.07169 10.0603 6.04246 9.66853M16.4389 16.6843C16.4297 16.5318 16.3061 16.4289 16.1297 16.4365C16.0685 16.4392 16.0073 16.445 15.946 16.4507C15.8802 16.4568 15.8143 16.4629 15.7485 16.4654L16.4389 16.6843ZM16.4389 16.6843C16.4471 16.8288 16.3436 16.9553 16.1739 16.9642C16.1167 16.9672 16.0594 16.9703 16.002 16.9735C15.6681 16.9919 15.3333 17.0103 15.0006 16.9941C13.946 16.9429 12.9122 16.6819 11.9596 16.2265M16.4389 16.6843L11.7036 16.2265M6.04246 9.66853L5.89288 9.67975C5.89288 9.67973 5.89288 9.67971 5.89288 9.67969M6.04246 9.66853L5.89288 9.67969M6.04246 9.66853L5.79783 5.69125L5.65006 5.717C5.66834 5.82193 5.67224 5.92506 5.67655 6.03912C5.67837 6.08731 5.68026 6.13744 5.68335 6.19048L5.68335 6.19049C5.70269 6.52266 5.72098 6.85535 5.73929 7.18832C5.78493 8.01831 5.83066 8.85003 5.89288 9.67969M6.52632 10.3252L6.52712 10.3233C6.55267 10.2637 6.58243 10.1943 6.63147 10.1591C7.37998 9.62088 8.206 9.34924 9.12733 9.54209C10.2224 9.77115 11.0856 10.2954 11.4033 11.4629C11.4224 11.5312 11.5206 11.6148 11.5924 11.6265C11.6711 11.6392 11.8043 11.6014 11.8386 11.542C11.8934 11.4428 11.9096 11.3268 11.884 11.2164C11.8224 11.0038 11.7366 10.799 11.6283 10.6061C11.5478 10.4641 11.4486 10.3326 11.3479 10.1991C11.3035 10.1402 11.2588 10.081 11.2152 10.0202C11.4939 9.67774 11.8109 9.36894 12.1893 9.12685L6.52632 10.3252ZM7.30352 4.49834L7.30372 4.49851C7.39686 4.58004 7.49089 4.6675 7.58287 4.75305C7.6439 4.80982 7.70403 4.86575 7.7624 4.91855L7.66178 5.0298M7.30352 4.49834L5.87376 15.6667L5.92801 15.5269C5.92801 15.5269 5.928 15.5269 5.928 15.5269C5.12088 15.2138 4.39533 14.7478 3.67806 14.2431C3.53261 14.1407 3.39034 14.0326 3.24551 13.9226L3.22175 13.9046C3.06953 13.789 2.91438 13.6716 2.75427 13.561C2.44006 13.3439 2.10077 13.1483 1.70742 13.0325L1.70667 13.0316C1.70265 13.0265 1.69955 13.0227 1.6969 13.0193C1.69715 12.9597 1.69598 12.9002 1.69474 12.8425L1.69436 12.825C1.69303 12.7639 1.69174 12.7047 1.69184 12.646C1.69207 12.5173 1.69913 12.399 1.72459 12.2891L1.72459 12.2891C1.96388 11.2554 2.21538 10.2247 2.49117 9.20114L2.34634 9.16212L2.49118 9.20114C2.81226 8.00929 3.14224 6.82041 3.4724 5.63086C3.6524 4.98233 3.83246 4.3336 4.01116 3.6841L4.0113 3.68414L4.01279 3.67761C4.01996 3.64612 4.03483 3.6169 4.05606 3.59256C4.07729 3.56823 4.10422 3.54953 4.13445 3.53816L4.13455 3.53841L4.14283 3.53471C4.61016 3.32582 5.07602 3.11192 5.54076 2.89853C5.75313 2.80103 5.96526 2.70362 6.1772 2.60685C6.62425 2.40322 7.07021 2.1999 7.51958 1.99502C7.67294 1.9251 7.8267 1.855 7.98103 1.78465C8.05356 1.87925 8.12598 1.97365 8.19828 2.06789C8.53878 2.51171 8.8765 2.9519 9.20967 3.39316L9.20975 3.39326C9.22697 3.41604 9.22806 3.43087 9.22697 3.44094C9.22554 3.45403 9.21781 3.47729 9.19027 3.50847C8.77342 3.98012 8.35456 4.44988 7.93369 4.91772C7.88429 4.97204 7.85975 4.97362 7.85563 4.97371C7.84902 4.97387 7.82077 4.97114 7.76218 4.91835L7.66178 5.0298M7.30352 4.49834C7.20995 4.41672 7.10002 4.36808 6.9788 4.37832M7.30352 4.49834L6.9788 4.37832M7.66178 5.0298C7.80283 5.15688 7.91911 5.15688 8.04492 5.01836C8.46619 4.55007 8.88545 4.07987 9.3027 3.60777M7.66178 5.0298C7.59975 4.97369 7.53851 4.9167 7.47726 4.8597C7.38731 4.77599 7.29735 4.69228 7.20492 4.61138L9.3027 3.60777M9.3027 3.60777C9.38689 3.51246 9.40531 3.40317 9.32938 3.30278L9.3027 3.60777ZM2.50454 14.4061L2.50381 14.4055C2.19506 14.1648 1.85096 13.9732 1.4837 13.8375C1.2624 13.7575 1.09841 13.6616 0.994577 13.5022C0.893597 13.3473 0.865491 13.1554 0.85424 12.9273M2.50454 14.4061C2.84902 14.6713 3.20395 14.9188 3.55696 15.1649C3.61643 15.2064 3.67584 15.2478 3.73515 15.2893M2.50454 14.4061L3.73515 15.2893M0.85424 12.9273L1.00406 12.9199L0.854245 12.9274C0.854243 12.9273 0.854241 12.9273 0.85424 12.9273ZM5.40577 5.31866C5.39346 5.27279 5.37781 5.21058 5.37164 5.14787C5.36588 5.08937 5.36526 5.00416 5.40766 4.92832C5.44838 4.85548 5.5178 4.8087 5.57377 4.78035C5.63312 4.75028 5.69922 4.7299 5.7585 4.72056C5.75856 4.72056 5.75861 4.72055 5.75866 4.72054L5.40577 5.31866ZM5.40577 5.31866C5.42356 5.38502 5.46472 5.43457 5.48831 5.46216M5.40577 5.31866L5.48831 5.46216M5.48831 5.46216C5.49773 5.47318 5.50536 5.48189 5.51169 5.48912M5.48831 5.46216L5.51169 5.48912M5.51169 5.48912C5.52631 5.5058 5.53401 5.51459 5.5409 5.52574L5.51169 5.48912ZM6.9788 4.37832C6.86099 4.38827 6.76103 4.45159 6.67949 4.53328L6.9788 4.37832ZM11.9596 16.2265L11.8949 16.3618C12.8655 16.8259 13.9188 17.0917 14.9933 17.1439L2.59605 14.2873C2.93748 14.5501 3.28915 14.7953 3.64229 15.0415C3.70186 15.0831 3.76148 15.1246 3.8211 15.1663M11.9596 16.2265L11.8975 16.363C11.8932 16.3611 11.8767 16.3564 11.8421 16.3578C11.8097 16.359 11.7729 16.365 11.7359 16.373C11.7357 16.373 11.7355 16.3731 11.7353 16.3731L11.7036 16.2265M11.9596 16.2265C11.8897 16.1947 11.7858 16.2087 11.7036 16.2265M11.7036 16.2265C10.6863 16.4558 9.64929 16.5866 8.60693 16.6173C6.84465 16.677 5.25711 16.1725 3.8211 15.1663M3.8211 15.1663L3.73515 15.2893M3.8211 15.1663L3.73503 15.2892C3.73507 15.2892 3.73511 15.2892 3.73515 15.2893M3.73515 15.2893C5.19606 16.3128 6.81511 16.828 8.61156 16.7672L3.73515 15.2893ZM8.92841 15.9191C8.92833 15.9191 8.92825 15.9191 8.92816 15.9191C8.92814 15.9191 8.92812 15.9191 8.9281 15.9191L8.93512 16.0689L8.92841 15.9191Z" fill="#242424" stroke="#242424" stroke-width="0.3"/>
<path d="M16.2973 13.8073L16.3725 13.6775C16.3298 13.6527 16.2859 13.6418 16.2566 13.6353C16.2421 13.6321 16.2314 13.6299 16.2226 13.6281C16.209 13.6254 16.2001 13.6236 16.1886 13.6202L16.1885 13.6202C16.0931 13.5921 15.9988 13.5653 15.9054 13.5388C15.6754 13.4736 15.4506 13.4098 15.2282 13.3311C15.0972 13.2846 14.9989 13.2062 14.9476 13.0729L14.8076 13.1268L14.9478 13.0733C14.9158 12.9895 14.847 12.9372 14.8068 12.9097C14.7866 12.8958 14.7662 12.8835 14.7513 12.8745C14.7498 12.8736 14.7484 12.8727 14.747 12.8719C14.7389 12.8669 14.733 12.8633 14.7284 12.8603C14.7249 12.8581 14.7235 12.857 14.7233 12.8569L14.6808 12.8224L14.6256 12.8237C14.5057 12.8264 14.3928 12.8594 14.3075 12.927C14.2194 12.9968 14.1661 13.1008 14.174 13.2207C14.1796 13.3336 14.2043 13.4968 14.2957 13.6139L14.414 13.5217M16.2973 13.8073L16.3722 13.6773C16.4523 13.7235 16.5209 13.7892 16.5588 13.8779C16.5973 13.9678 16.5971 14.0653 16.5677 14.1606C16.5388 14.2544 16.4846 14.3375 16.4027 14.392C16.3198 14.4473 16.2212 14.4648 16.1215 14.4484L16.1213 14.4483C15.6437 14.3694 15.145 14.2668 14.7024 13.9886L14.7005 13.9874L14.7005 13.9874C14.5452 13.8865 14.4081 13.7599 14.2951 13.6132L14.414 13.5217M16.2973 13.8073C16.4158 13.8756 16.466 13.9814 16.4244 14.1164C16.3828 14.2514 16.2792 14.3223 16.1458 14.3003C15.6692 14.2216 15.1971 14.1224 14.7822 13.8616C14.6411 13.7699 14.5166 13.655 14.414 13.5217M16.2973 13.8073C16.2687 13.7907 16.2344 13.7837 16.2001 13.7767C16.1819 13.773 16.1636 13.7692 16.1461 13.7641C16.054 13.7369 15.9616 13.7107 15.8692 13.6845C15.6372 13.6187 15.4053 13.5529 15.1781 13.4724C15.016 13.4149 14.8781 13.3101 14.8076 13.1268C14.7863 13.0709 14.7219 13.032 14.6735 13.0027C14.6555 12.9918 14.6397 12.9822 14.6291 12.9736C14.4365 12.9781 14.3142 13.0788 14.3238 13.2119C14.3288 13.318 14.352 13.4422 14.414 13.5217" fill="#242424" stroke="#242424" stroke-width="0.3"/>
</svg>
