<svg width="14" height="16" viewBox="0 0 14 16" fill="none" xmlns="http://www.w3.org/2000/svg">
<path d="M6.14856 15.9983C5.80102 15.9369 5.44597 15.9031 5.1072 15.8099C2.44179 15.0794 0.744213 13.3693 0.160253 10.6696C-0.314267 8.47661 0.278047 6.51546 1.76426 4.82999C1.7839 4.80744 1.80227 4.78321 1.83026 4.74854L0.89793 3.82331C1.21121 3.50877 1.52074 3.2005 1.83318 2.88847L2.80102 3.86299C3.22416 3.63743 3.60929 3.41061 4.01238 3.22264C4.60542 2.95222 5.23763 2.77767 5.8854 2.70551C5.93176 2.70008 6.01071 2.64578 6.01071 2.61278C6.01907 2.19215 6.01614 1.77109 6.01614 1.33124H4.68866V0H8.66902V1.32038H7.3641C7.35518 1.35973 7.34904 1.39965 7.34572 1.43985C7.34572 1.81579 7.34572 2.19173 7.34321 2.56516C7.34321 2.65121 7.35992 2.69549 7.45766 2.70969C8.72207 2.89474 9.33402 3.1274 10.5024 3.86257C10.8386 3.52381 11.174 3.18505 11.5049 2.85297C11.839 3.18713 12.1456 3.49708 12.4527 3.80493L11.5203 4.73183C11.669 4.90894 11.8006 5.05597 11.9209 5.21136C12.9752 6.56934 13.4501 8.11111 13.3332 9.82247C13.1243 12.886 10.8269 15.3943 7.78222 15.9123C7.59342 15.9444 7.40336 15.9712 7.2133 16L6.14856 15.9983ZM1.34196 9.32665C1.34196 12.2682 3.72792 14.6591 6.66527 14.6633C7.3675 14.6645 8.06308 14.5273 8.71226 14.2596C9.36143 13.9918 9.95147 13.5987 10.4486 13.1028C10.9458 12.6068 11.3404 12.0178 11.6098 11.3693C11.8792 10.7208 12.0181 10.0255 12.0187 9.32331C12.0249 6.39683 9.61973 3.99248 6.68657 3.99373C3.73669 3.99457 1.3407 6.38555 1.34196 9.32665Z" fill="#242424"/>
<path d="M2.69283 9.33124H6.67445V5.35296C7.85491 5.1533 9.52617 6.15205 10.215 7.45405C11.0182 8.97118 10.7643 10.8463 9.58841 12.0773C9.00874 12.6921 8.24909 13.1073 7.41864 13.2632C6.58818 13.4192 5.72966 13.3079 4.96643 12.9453C3.32734 12.1708 2.64229 10.5263 2.69283 9.33124Z" fill="#242424"/>
</svg>
