<svg width="15" height="15" viewBox="0 0 15 15" fill="none" xmlns="http://www.w3.org/2000/svg">
<path d="M8.97711 7.49258L14.6332 1.79199C14.83 1.59512 14.9406 1.32812 14.9406 1.04972C14.9406 0.771317 14.83 0.504317 14.6332 0.307456C14.4363 0.110595 14.1693 4.14853e-09 13.8909 0C13.6125 -4.14853e-09 13.3455 0.110595 13.1486 0.307456L7.49258 6.00805L1.79199 0.366837C1.59512 0.169976 1.32812 0.0593811 1.04972 0.0593812C0.771317 0.0593812 0.504317 0.169976 0.307456 0.366837C0.110595 0.563698 2.07427e-09 0.830698 0 1.1091C-2.07427e-09 1.3875 0.110595 1.65451 0.307456 1.85137L6.00805 7.49258L0.366837 13.208C0.169976 13.4049 0.0593812 13.6719 0.0593812 13.9503C0.0593812 14.2287 0.169976 14.4957 0.366837 14.6925C0.563698 14.8894 0.830699 15 1.1091 15C1.38751 15 1.65451 14.8894 1.85137 14.6925L7.49258 8.97711L13.208 14.6332C13.4049 14.83 13.6719 14.9406 13.9503 14.9406C14.2287 14.9406 14.4957 14.83 14.6925 14.6332C14.8894 14.4363 15 14.1693 15 13.8909C15 13.6125 14.8894 13.3455 14.6925 13.1486L8.97711 7.49258Z" fill="white"/>
</svg>
