<svg width="17" height="16" viewBox="0 0 17 16" fill="none" xmlns="http://www.w3.org/2000/svg">
<path d="M0 7.12534C0.0897611 7.02806 0.198727 7.00009 0.333995 7.00009C3.62524 7.00343 6.91634 7.00427 10.2073 7.0026H10.4186V4.5636H9.25541C9.15104 4.5636 9.04667 4.5661 8.94271 4.5636C8.69222 4.5565 8.57699 4.34567 8.70349 4.1269C8.75568 4.03672 8.81329 3.9503 8.8684 3.86179C9.62406 2.64661 10.3808 1.43226 11.1387 0.218744C11.197 0.12353 11.2851 0.0501685 11.3892 0.00999679C11.5328 -0.034675 11.6234 0.0780482 11.6961 0.195781C12.223 1.04496 12.7508 1.89387 13.2796 2.74249C13.5573 3.18838 13.8336 3.63551 14.1146 4.08056C14.1852 4.19286 14.2294 4.30434 14.1564 4.43C14.0833 4.55567 13.9731 4.56652 13.8466 4.56569C13.3782 4.56276 12.9097 4.56569 12.4296 4.56569V7.0026H15.6944C15.9349 7.0026 16.0009 7.06814 16.0013 7.30653C16.0013 7.76995 16.0013 8.23337 16.0013 8.69679C16.0013 8.93643 15.9332 8.99905 15.6756 8.99905H5.58648V11.4368H5.75557C6.18266 11.4368 6.60934 11.4368 7.03644 11.4368C7.30906 11.4368 7.43347 11.6514 7.29069 11.8818C6.47407 13.1995 5.65481 14.5157 4.83291 15.8305C4.79116 15.8977 4.71601 15.9441 4.65631 16H4.50016C4.42506 15.9311 4.35528 15.8565 4.29142 15.7771C4.18203 15.6192 4.08601 15.4518 3.98456 15.2886C3.28623 14.1672 2.58804 13.046 1.88999 11.9248C1.82027 11.813 1.77184 11.7032 1.84198 11.5758C1.91212 11.4485 2.03403 11.4347 2.1647 11.4355C2.55005 11.4389 2.9354 11.4355 3.32033 11.4355H3.57082V8.9978H3.39255C2.3722 8.9978 1.35226 8.99571 0.331907 9.00072C0.198727 9.00072 0.0901786 8.9715 0 8.87547L0 7.12534Z" fill="#242424"/>
</svg>
