<svg id="Слой_1" data-name="Слой 1" xmlns="http://www.w3.org/2000/svg" viewBox="0 0 16.68 15.6"><defs><style>.cls-1{fill:#242424;}</style></defs><path class="cls-1" d="M8.77.16a.66.66,0,0,0-.89,0C7,1.08,6.07,2,5.18,2.88A.71.71,0,0,0,5,3.36a.66.66,0,0,0,.2.48.67.67,0,0,0,.48.2.64.64,0,0,0,.48-.21c.35-.33.66-.65,1-1a1.17,1.17,0,0,1,.16-.15l.31-.29s0,6,0,6.48a.45.45,0,0,1-.07.25.53.53,0,0,1-.17.14c-1.5.87-5.58,3.17-5.58,3.17s.35-1.47.47-1.92A.68.68,0,1,0,1,10.17c-.09.3-.17.6-.25.9C.5,12,.25,12.89,0,13.8a.66.66,0,0,0,.47.8l.24.07,3.39.9a.68.68,0,1,0,.34-1.32l-1.52-.41-.4-.11,5.57-3.28a.39.39,0,0,1,.26-.07.48.48,0,0,1,.22.08l5.59,3.26-.43.12-1.54.41a.9.9,0,0,0-.24.12.7.7,0,0,0-.18.2.92.92,0,0,0-.09.25.57.57,0,0,0,0,.26.66.66,0,0,0,.11.24.7.7,0,0,0,.2.18.54.54,0,0,0,.25.09.75.75,0,0,0,.26,0l3.6-1a.66.66,0,0,0,.5-.89c-.31-1.19-.63-2.37-1-3.55a.68.68,0,1,0-1.31.36c.08.32.17.64.26,1l.13.54c0,.13.1.39.1.39S10.14,9.78,9.24,9.26a.41.41,0,0,1-.18-.19C9,9,9,2.4,9,2.4l1.45,1.38A.82.82,0,0,0,11,4a.66.66,0,0,0,.49-.21.69.69,0,0,0,0-1L8.89.27Z"/></svg>