<svg id="Слой_1" data-name="Слой 1" xmlns="http://www.w3.org/2000/svg" viewBox="0 0 16.04 16.6"><defs><style>.cls-1{fill:#242424;}</style></defs><path class="cls-1" d="M15.84,15.57c-.27-.22-.65-.11-1-.1a6.4,6.4,0,0,1-1.16-.07,7.37,7.37,0,0,1-2.21-.68.72.72,0,0,0-.46-.06,15.09,15.09,0,0,1-2.83.41,7.08,7.08,0,0,1-2.94-.38,9.2,9.2,0,0,1-1.89-1,18.55,18.55,0,0,0-1.74-1.2c-.14-.07-.43-.09-.5-.25a.34.34,0,0,1,0-.1,2.42,2.42,0,0,1,0-.47c.24-1,.49-2.06.77-3.08C2.43,6.7,3,4.87,3.5,3c.69-.3,1.36-.62,2-.93l1.69-.77c.38.49.76,1,1.12,1.47L7.15,4.09l-.36-.33a.75.75,0,0,0-.46-.23c-.24,0-.35.14-.52.25a1.08,1.08,0,0,1-.36.05A1.89,1.89,0,0,0,5,3.89a.57.57,0,0,0-.34.91c0,.07.09.12.13.19a1.24,1.24,0,0,1,.06.51C4.9,6.66,5,7.83,5,9a1.56,1.56,0,0,1-.15.77c-.1.21-.31.36-.35.59-.1.56.55.73.93.48s.39-.76.66-1.12a2.1,2.1,0,0,1,1.59-.62,3,3,0,0,1,2,.6,2.05,2.05,0,0,1,.58.7c.14.3.16.7.53.81a.54.54,0,0,0,.71-.51,1.83,1.83,0,0,0-.3-.93,3.13,3.13,0,0,0-.29-.42,3.9,3.9,0,0,1,.75-.66,2.5,2.5,0,0,1,1.74-.4,3.64,3.64,0,0,1,1.12.34c.31.16.68.55,1.05.49a.58.58,0,0,0,.19-1.06,4.65,4.65,0,0,0-.89-.51,3.8,3.8,0,0,0-4,.34c-.28.21-.55.47-.8.7A4.48,4.48,0,0,0,8,8a3.87,3.87,0,0,0-1.88.41Q6,6.63,5.93,4.92l.34-.1L6.43,5A1,1,0,0,0,7.94,4.9c.43-.48.86-1,1.29-1.44a1.06,1.06,0,0,0,0-1.38L7.89.26A.68.68,0,0,0,7.54,0a.6.6,0,0,0-.41.07L4.48,1.29l-1.33.6a1.24,1.24,0,0,0-.77.79L1.93,4.34,1,7.68C.79,8.5.57,9.32.35,10.15A6.92,6.92,0,0,0,0,12.23a1.29,1.29,0,0,0,.17.65,1.1,1.1,0,0,0,.56.4A10.25,10.25,0,0,1,3,14.71a8,8,0,0,0,5,1.51A19.16,19.16,0,0,0,11,15.83l.11,0a2.8,2.8,0,0,1,.67.28,8.35,8.35,0,0,0,2.48.5,11.79,11.79,0,0,0,1.2,0,.56.56,0,0,0,.35-1ZM6.11,9.7ZM1,12.18ZM11.14,15.8Zm4.5-3c-.34-.13-.71-.2-1.06-.32a.3.3,0,0,1-.19-.17.66.66,0,0,0-.32-.32.64.64,0,0,0-.56.11c-.39.31-.1.89.21,1.15a1,1,0,0,0,.2.15,2.82,2.82,0,0,0,.94.38c.42.1,1,.26,1.15-.29A.54.54,0,0,0,15.64,12.81Z"/></svg>