<svg width="154" height="108" viewBox="0 0 154 108" fill="none" xmlns="http://www.w3.org/2000/svg">
<path d="M153.999 54.1271C152.499 54.1271 152.499 54.1271 152.499 54.1272V54.1278V54.1309L152.499 54.1437L152.499 54.1962L152.499 54.4049C152.498 54.589 152.496 54.8615 152.493 55.213C152.487 55.9163 152.475 56.9357 152.45 58.1974C152.401 60.7213 152.302 64.2111 152.105 68.0747C151.708 75.844 150.919 84.9747 149.378 90.843C147.74 96.9311 142.945 101.734 136.869 103.374C134.009 104.127 128.871 104.716 122.648 105.164C116.465 105.608 109.333 105.905 102.564 106.104C95.7976 106.302 89.4054 106.401 84.704 106.45C82.3537 106.475 80.4266 106.488 79.0875 106.494C78.418 106.497 77.8956 106.498 77.5407 106.499L77.1367 106.5L77.0339 106.5L77.0081 106.5H77.0017H77.0001C76.9998 106.5 76.9997 106.5 76.9997 108C76.9997 106.5 76.9995 106.5 76.9992 106.5H76.9977H76.9913L76.9656 106.5L76.863 106.5L76.4602 106.499C76.1063 106.498 75.5852 106.497 74.9173 106.494C73.5816 106.487 71.6591 106.474 69.3138 106.448C64.6226 106.397 58.2427 106.294 51.4846 106.088C44.724 105.882 37.5972 105.573 31.4087 105.11C25.1786 104.645 20.0253 104.032 17.1373 103.249L17.1351 103.248C11.0564 101.609 6.25823 96.8044 4.62037 90.7135C3.08027 84.9115 2.29114 75.7827 1.89447 67.9955C1.69726 64.1239 1.5986 60.6222 1.54927 58.0883C1.52461 56.8217 1.51229 55.7977 1.50614 55.0913C1.50306 54.738 1.50153 54.4643 1.50076 54.2792L1.50009 54.0695L1.50001 54.0168L1.5 54.0038L1.5 54.0008L1.5 54.0001C1.5 54 1.5 54 0 54C1.5 54 1.5 54 1.5 53.9999L1.5 53.9992L1.5 53.9962L1.50001 53.9833L1.50009 53.9309L1.50076 53.7222C1.50153 53.5381 1.50306 53.2656 1.50614 52.914C1.51229 52.2108 1.52461 51.1913 1.54927 49.9297C1.5986 47.4058 1.69726 43.916 1.89446 40.0523C2.29102 32.2831 3.07996 23.1525 4.62099 17.2842C6.25999 11.1925 11.1856 6.26368 17.1346 4.62491C19.9953 3.87223 25.1315 3.28332 31.351 2.83621C37.5347 2.39169 44.6663 2.09466 51.4352 1.89642C58.2017 1.69824 64.5939 1.59912 69.2953 1.54955C71.6457 1.52477 73.5728 1.51238 74.9118 1.50619C75.5813 1.50309 76.1038 1.50154 76.4586 1.50077L76.8626 1.5001L76.9655 1.50001L76.9913 1.5L76.9977 1.5L76.9992 1.5C76.9995 1.5 76.9997 1.5 76.9997 0C76.9997 1.5 76.9998 1.5 77.0001 1.5L77.0017 1.5L77.0081 1.5L77.0339 1.50001L77.1367 1.5001L77.5406 1.5008C77.8954 1.50161 78.4178 1.50322 79.0873 1.50643C80.4262 1.51287 82.3532 1.52576 84.7034 1.55153C89.4045 1.60308 95.7964 1.70616 102.562 1.91225C109.331 2.11841 116.462 2.42729 122.644 2.8895C128.869 3.35492 134.004 3.96781 136.858 4.75017L136.864 4.75179C142.943 6.39118 147.742 11.1965 149.379 17.2882L149.381 17.2942C150.982 23.1529 151.771 32.3092 152.152 40.1125C152.342 43.991 152.428 47.4957 152.468 50.0309C152.488 51.2982 152.495 52.3223 152.498 53.0288C152.5 53.382 152.5 53.6557 152.5 53.8406L152.5 54.0502L152.499 54.1028L152.499 54.1157L152.499 54.1187V54.1194L153.999 54.1271ZM153.999 54.1271H152.499V54.1195L153.999 54.1271Z" stroke="#D5D5D5" stroke-width="3"/>
</svg>
