<svg id="Слой_1" data-name="Слой 1" xmlns="http://www.w3.org/2000/svg" viewBox="0 0 72.55 72.5"><defs><style>.cls-1{fill:#040100;}</style></defs><path class="cls-1" d="M59.91,7.73c.41-.41.52-.66.52-.86s-.1-.44-.51-.85h0c-1.84-1.86-3.7-3.71-5.56-5.56h0A1.49,1.49,0,0,0,53.58,0,.71.71,0,0,0,53,.24a.73.73,0,0,0-.25.6,1.3,1.3,0,0,0,.45.76h0c.49.48,1,.88,1.44,1.24l.34.28-.31.3L52,6.12l-.26.27-.28-.25a4.67,4.67,0,0,0-1.33-.93.41.41,0,0,0-.25,0,.68.68,0,0,0-.28.21,1.22,1.22,0,0,0-.32.59.66.66,0,0,0,.14.43,3.09,3.09,0,0,0,.47.56,7.9,7.9,0,0,1,.6.67l.26.34-.36.24c-.2.14-.4.29-.59.45Q33.94,24.39,18.21,40.18h0a5.78,5.78,0,0,1-1.81,1.37,3.19,3.19,0,0,1-2.36,0h0a.74.74,0,0,0-.33-.05.76.76,0,0,0-.32.11.76.76,0,0,0-.24.23.78.78,0,0,0-.12.32h0a.77.77,0,0,0,.13.61,1.16,1.16,0,0,0,.7.38l1.42.31.25,0,.05.24c.32,1.33.5,2.43.86,3.49h0a.75.75,0,0,0,.17.3.77.77,0,0,0,.28.19.92.92,0,0,0,.33.06.75.75,0,0,0,.33-.1h0a.7.7,0,0,0,.39-.44,1.25,1.25,0,0,0-.06-.77h0A8,8,0,0,1,17.46,45v0a1.19,1.19,0,0,1,.1-.49,1.18,1.18,0,0,1,.32-.38l0,0,0,0a5.12,5.12,0,0,0,.69-.36.56.56,0,0,0,.24-.23.44.44,0,0,0,0-.28,4,4,0,0,0-.2-.66l-.08-.22.14-.18.61-.75.28-.34.31.31,7.09,7,.22.22-.15.26a5.59,5.59,0,0,0,.16,6.08l.16.26-.22.22a3.09,3.09,0,0,1-2.33,1.05,2.92,2.92,0,0,1-2.19-1.19h0c-.39-.49-.69-.62-.9-.61s-.5.18-.84.72c-1,1.57-2,3.14-3,4.72h0l-4,6.32-.26.43-.36-.35L5.86,59l-.29-.28.29-.29c.22-.22.44-.42.67-.63h0q3.78-3.44,7.54-6.91h0a1.14,1.14,0,0,0,.41-.66.7.7,0,0,0-.21-.59.75.75,0,0,0-.55-.29,1.05,1.05,0,0,0-.68.32h0Q6.8,55.47.59,61.29h0c-.48.44-.59.69-.59.87s.13.45.6.91h0c2.93,2.93,5.87,5.86,8.79,8.8h0a3.64,3.64,0,0,0,.5.46h0a.77.77,0,0,0,.51.15.73.73,0,0,0,.47-.25h0a.77.77,0,0,0,.25-.49A.93.93,0,0,0,11,71.2a2.91,2.91,0,0,0-.45-.48h0Q6.7,66.88,2.88,63c-.2-.19-.39-.41-.5-.52l-.25-.27L2.38,62,4.15,60l.39-.42.26.5a3.61,3.61,0,0,0,.46.69q3.81,3.84,7.64,7.65c.5.5.81.62,1,.59s.48-.2.85-.79l6.09-9.71h0c.27-.43.55-.85.82-1.27l.2-.33.34.2a5,5,0,0,0,3.76.79,5.88,5.88,0,0,0,3-2,1.23,1.23,0,0,0,.31-.6,1,1,0,0,0-.15-.61c-.27-.46-.55-.93-.8-1.42a3.6,3.6,0,0,1,.77-4.36l.23-.2.26.17a6,6,0,0,0,3.43,1.24,4.1,4.1,0,0,0,2.87-1.21h0a4.28,4.28,0,0,0,1.34-2.55h0A4.59,4.59,0,0,0,36,42.43l-.27-.29.29-.27c.51-.48,1-.9,1.42-1.34s.56-.71.56-.91-.12-.46-.56-.9h0l-6.48-6.36c-.32-.3-.66-.56-.92-.78l-.34-.28L30,31,55.72,5.11,56,4.85l.28.23,1.93,1.6.38.3-.37.31c-.32.27-.51.4-.7.59h0L35.3,30h0a4.1,4.1,0,0,0-.59.66.79.79,0,0,0-.13.52.92.92,0,0,0,.29.49h0a.77.77,0,0,0,.46.22.72.72,0,0,0,.49-.13,3.34,3.34,0,0,0,.56-.5h0l6.7-6.7h0c.19-.19.41-.39.6-.56l.34-.31.26.38a6.44,6.44,0,0,1,1.07,4.11A6.36,6.36,0,0,1,43.63,32h0c-1.13,1.2-2.36,2.36-3.5,3.52h0a1,1,0,0,0-.34.69.74.74,0,0,0,.25.57.75.75,0,0,0,.56.25,1,1,0,0,0,.64-.32h0C42.52,35.5,43.81,34.28,45,33a8.06,8.06,0,0,0,2-4.73,8.16,8.16,0,0,0-1.26-5h0c-.12-.19-.24-.4-.39-.65l-.17-.3.26-.21c.27-.23.45-.36.64-.55h0L59.91,7.73Zm-25,39.93h0a2.8,2.8,0,0,1-4,.17l-.33-.28.31-.3,3.36-3.39.28-.28.28.27a2.69,2.69,0,0,1,.84,1.88,2.76,2.76,0,0,1-.72,1.93Zm.64-8.23.28.29-.28.28-6.64,6.73-.28.28-.29-.28-2.58-2.57-.28-.29.28-.28,1.78-1.79c.78-.79,1.55-1.55,2.3-2.34h0a1,1,0,0,0,.34-.68.73.73,0,0,0-.27-.57.72.72,0,0,0-.56-.23,1,1,0,0,0-.65.33Q26.89,40.13,25.07,42a4.41,4.41,0,0,0-.36.49l-.24.43-.37-.33-2.67-2.43-.31-.28.29-.3,6.83-6.85.28-.28.29.28Z"/><path class="cls-1" d="M46.42,59.15A1.21,1.21,0,0,0,47,58.8q3.76-3.75,7.5-7.51a1.17,1.17,0,0,0,.38-.73.8.8,0,0,0-.54-.76,1,1,0,0,0-1,.32l-6,6c-.35.35-.72.67-1.07,1a3.15,3.15,0,0,0-.83,1.12C45.25,58.73,46,59.26,46.42,59.15Z"/><path class="cls-1" d="M57.17,54.25a.76.76,0,0,0-1.06,0c-1.2,1.15-2.38,2.32-3.51,3.54A.89.89,0,0,0,53,59.1a.59.59,0,0,0,.39-.06,3.48,3.48,0,0,0,.73-.6l1.05-1L57,55.64a1.62,1.62,0,0,0,.4-.54A.72.72,0,0,0,57.17,54.25Z"/><path class="cls-1" d="M64.2,55.17a.73.73,0,0,0,0-.74.94.94,0,0,0-.58-.43c-.42-.07-.84.49-1.1.74-.48.45-1,.91-1.38,1.4s.43,1.64,1,1.14.9-.81,1.32-1.24A3.42,3.42,0,0,0,64.2,55.17Z"/><path class="cls-1" d="M50.5,61.71a.79.79,0,0,0-.81-.79.8.8,0,0,0-.77.58.84.84,0,0,0,.79,1A.8.8,0,0,0,50.5,61.71Z"/><path class="cls-1" d="M59.11,60a.8.8,0,0,0-1.59-.12C57.31,61,59.15,61.15,59.11,60Z"/><path class="cls-1" d="M44.81,51.68a1.06,1.06,0,0,0-.17.26.81.81,0,1,0,.87-.51A.83.83,0,0,0,44.81,51.68Z"/><path class="cls-1" d="M43.57,61.7a.83.83,0,0,0-1-.74.68.68,0,0,0-.51.65c0,.59.77,1.1,1.27.66A.66.66,0,0,0,43.57,61.7Z"/><path class="cls-1" d="M52.3,44.51a1,1,0,0,0-.54.2,13.55,13.55,0,0,0-1.53,1.5l-1.65,1.71a1.92,1.92,0,0,0-.39.51.91.91,0,0,0,.66,1.2c.38,0,.85-.44,1.1-.67s.61-.66.93-1c.7-.69,1.38-1.38,2.06-2.08a.78.78,0,0,0,.22-.57A1,1,0,0,0,52.3,44.51Z"/><path class="cls-1" d="M71.92,46.66a8.15,8.15,0,1,0-15.67-3.15h0a8.13,8.13,0,0,0,.6,3.12,8.3,8.3,0,0,0,1.76,2.65,8.16,8.16,0,0,0,2.65,1.77,8.08,8.08,0,0,0,3.12.62h0a8.14,8.14,0,0,0,7.54-5Zm-4,2.44a6.42,6.42,0,0,1-3.61,1h0a6.52,6.52,0,0,1-4.6-2A6.44,6.44,0,0,1,58.34,46a6.34,6.34,0,0,1-.45-2.51h0A6.46,6.46,0,0,1,62,37.6a6.49,6.49,0,0,1,8.74,4.89,6.57,6.57,0,0,1-.42,3.74A6.48,6.48,0,0,1,67.93,49.1Z"/><path class="cls-1" d="M67.2,42.2a3.11,3.11,0,0,0-2.92-1.77,3.44,3.44,0,0,0-1.68.45,3,3,0,0,0-1.13,1.3,3.11,3.11,0,0,0,.34,3.39,1.14,1.14,0,0,0,.66.49.74.74,0,0,0,.62-.16.67.67,0,0,0,.3-.51,1.22,1.22,0,0,0-.25-.77h0a1.93,1.93,0,0,1-.35-1.24,1.52,1.52,0,0,1,.6-1.06h0A1.69,1.69,0,0,1,64.47,42a1.67,1.67,0,0,1,1,.45h0A1.53,1.53,0,0,1,66,43.48a2,2,0,0,1-.39,1.17h0a1.32,1.32,0,0,0-.29.8.67.67,0,0,0,.32.52.71.71,0,0,0,.64.13,1.19,1.19,0,0,0,.68-.55h0A3.13,3.13,0,0,0,67.2,42.2Z"/></svg>