<svg id="Слой_1" data-name="Слой 1" xmlns="http://www.w3.org/2000/svg" viewBox="0 0 153.89 106.89"><defs><style>.cls-1{fill:#010101;}</style></defs><path class="cls-1" d="M128.15,43.79c-4.2.48-8.4,0-12.54-.39-6.41-.52-12.07,1.27-17.69,3.9-3.34,1.57-6.79,2.92-10.17,4.42-2.68,1.19-5,.44-7-1.35-1.46-1.27-2.79-2.71-4.35-3.84S73,44.34,70.82,45.12c-.47.17-1.21.42-1.46-.21s.46-1,1-1.27c2-1.16,4.79-.19,7.22,1.6A18.73,18.73,0,0,1,80,47.66a6.74,6.74,0,0,0,6.93,2,40.6,40.6,0,0,0,10.55-4.37c6.51-3.67,13.4-4.36,20.6-3.42,5.28.68,10.54.25,15.81,0a10,10,0,0,1,1.64,0,2,2,0,0,1,1.9,1.45,1.79,1.79,0,0,1-.72,2.07A27,27,0,0,1,129,49.26a23,23,0,0,1-4.47.81,3.83,3.83,0,0,1-2.49-.3c-.49-.29-1-.73-.82-1.3s.82-.36,1.27-.3c3.93.5,7.27-1.41,10.77-2.64a1,1,0,0,0,.72-1.27c-.21-.63-.79-.46-1.24-.46C131.18,43.77,129.67,43.79,128.15,43.79Z"/><path class="cls-1" d="M47.48,45.65c4.86-.45,9.2,1.73,13.67,3.36a17.05,17.05,0,0,0,3.3.94c1.61.25,2.81.12,2.94-1.87,0-.38.31-.86.6-.81,1.67.31,3.39-.21,5,.37a1.14,1.14,0,0,1,.73,1.48,1.1,1.1,0,0,1-1.2.88,4.39,4.39,0,0,1-1.26-.14c-1.58-.57-2.56-.64-2.72,1.61-.11,1.54-1.63,1.31-2.77.94-4.36-1.43-8.67-3-13.06-4.29a24,24,0,0,0-9.37-.4C36.22,48.46,30,52,23.56,54.63c-.57.23-1.5.43-1.22,1.28s1.14.3,1.69.18c5-1.07,10-1.9,15.11-1.31a4.53,4.53,0,0,1,1.24.21A1.15,1.15,0,0,1,41,56.2c-.08.65-.66.61-1.14.53-5.92-.9-11.66.49-17.43,1.4-1.08.16-2.5.43-2.88-1.12a2.44,2.44,0,0,1,1.55-3.07c3.95-1.84,7.69-4.14,11.92-5.35C37.75,47.25,42.31,45.27,47.48,45.65Z"/><path class="cls-1" d="M77.39,41.88a6.93,6.93,0,1,1,6.85-7A7,7,0,0,1,77.39,41.88Z"/><path class="cls-1" d="M70,64.32a1.51,1.51,0,0,1,1.22.52C72.57,66,74,67.11,75.34,68.37c1.72,1.66,2.57,4,4,5.86a.83.83,0,0,1-1.37,1c-1-1.63-3.35-2.18-3.47-4.63,0-.91-1.29-1.53-2.25-2a5.56,5.56,0,0,1-2.78-2.75C69.13,65.12,69.19,64.39,70,64.32Z"/><path class="cls-1" d="M93.91,59.4c.71,0,1.44-.1,1.62.62s-.63.93-1.16,1.12A2,2,0,0,0,93,62.46a4.57,4.57,0,0,1-.78,1.44c-1.9,2.16-1.46,4.21.12,6.31.44.58,1.19,1.59.34,2.05s-1.58-.5-2-1.37a.72.72,0,0,1-.11-.34c.17-1.82-3.4-2.57-1.47-4.78,1.31-1.5,1.54-3.38,2.36-5A2.29,2.29,0,0,1,93.91,59.4Z"/><path class="cls-1" d="M55.91,51.85C58.84,52.94,62,53.3,64.75,55c1.12.71,2.31,1.32,3.41,2.06.37.26,1.12.54.7,1.26s-1,.52-1.58.17c-2.93-1.88-6.21-3-9.4-4.28a12.57,12.57,0,0,0-2.23-.71c-.47-.09-.95-.36-.85-1S55.35,51.82,55.91,51.85Z"/><path class="cls-1" d="M99.65,49.72c-1.56,1.7-3.57,2.48-5.36,3.54a21.75,21.75,0,0,0-4.6,3.65c-.6.63-1.27,1.45-2.11.61s.16-1.35.66-1.9a7,7,0,0,1,2.48-1.79A30.62,30.62,0,0,0,97.1,50.1,2.64,2.64,0,0,1,99.65,49.72Z"/><path class="cls-1" d="M85.34,74.77c-.45-.32-1.65-.39-.81-1.59.58-.82.82-1.19-.44-1.57a1.64,1.64,0,0,1-.92-2.1c.15-.54.37-1,1-1.12,1-.12,1.45.52,1.85,1.2A1,1,0,0,1,85.82,71c-1.12.79-.93,1.43.29,1.92a.87.87,0,0,1,.58,1.16C86.5,74.59,86.11,74.85,85.34,74.77Z"/><path class="cls-1" d="M45.27,59c-1.1-.05-2.21-.14-2.21-1.27s1.17-1,2-1,1.92.06,2,1.1S46,58.93,45.27,59Z"/><path class="cls-1" d="M105.53,57.38c-.25.83-.65,1.46-1.6,1.45a1.4,1.4,0,0,1-1.47-1.48c0-1,.78-1.26,1.61-1.27S105.35,56.6,105.53,57.38Z"/><path class="cls-1" d="M113.09,51.28c0,1-.46,1.52-1.36,1.56s-1.62-.29-1.75-1.2.53-1.26,1.37-1.3S112.92,50.43,113.09,51.28Z"/><path class="cls-1" d="M51.11,59.46c.68.22,1.66.34,1.69,1.53,0,.88-.54,1.17-1.29,1-1-.2-1.91-.57-1.9-1.77C49.62,59.4,50.32,59.42,51.11,59.46Z"/><path class="cls-1" d="M118.08,49.29c-.1.82-.46,1.29-1.26,1.33s-1.58-.36-1.66-1.25c-.06-.71.52-1,1.21-1S117.8,48.51,118.08,49.29Z"/><path class="cls-1" d="M101.08,59.3a1.21,1.21,0,0,1-1.48,1.2c-.87-.07-1.57-.51-1.51-1.41S99,58,99.71,58A1.28,1.28,0,0,1,101.08,59.3Z"/><path class="cls-1" d="M108.12,55.78c-.91,0-1.33-.38-1.34-1.21s.23-1.33,1.08-1.39a1.31,1.31,0,0,1,.26,2.6Z"/><path class="cls-1" d="M61.47,64.91c-.12.84-.53,1.21-1.23,1.12a1.55,1.55,0,0,1-1.57-1.42c-.05-.69.43-.91,1.07-.81S61.25,64.12,61.47,64.91Z"/><path class="cls-1" d="M66.79,65.39c0,.81-.48,1.06-1.18,1s-1.41-.35-1.41-1.26.63-.94,1.26-1A1.17,1.17,0,0,1,66.79,65.39Z"/><path class="cls-1" d="M55.82,64.33A1.26,1.26,0,0,1,54.51,63c-.07-.76.28-1.15,1-1.1a1.21,1.21,0,0,1,1.29,1.21C56.86,63.89,56.38,64.18,55.82,64.33Z"/><path class="cls-1" d="M89.08,73.66c-.56-.14-1.11-.34-1.11-1.11,0-.55.2-1,.81-.91s1.29.33,1.28,1.19C90,73.42,89.67,73.65,89.08,73.66Z"/><path class="cls-1" d="M82.55,74.44c-.08.61-.23,1-.81.85s-1-.42-1-1.08c0-.5.28-.79.8-.74A1.1,1.1,0,0,1,82.55,74.44Z"/></svg>