<svg id="Слой_1" data-name="Слой 1" xmlns="http://www.w3.org/2000/svg" viewBox="0 0 153.89 106.89"><defs><style>.cls-1{fill:#010101;}</style></defs><path class="cls-1" d="M62,45.61c-5.41-.15-9.65,2.61-13.88,5.16-3.6,2.17-7.2,4.22-11.34,5A9.93,9.93,0,0,1,27.84,53c-.6-.56-.25-1.1,0-1.66a1.16,1.16,0,0,1,1.6-.76c3.51,1.4,6.54-.24,9.64-1.44a4.36,4.36,0,0,0,2.11-1.43c.33-.46.79-.77,1.26-.3s0,.79-.32,1.13c-2.48,2.5-5.26,4.3-9,4-.43,0-1-.13-1.09.51s.48.6.83.74a5.88,5.88,0,0,0,3.73.33c3.74-.92,7-2.87,10.38-4.63a87.9,87.9,0,0,1,9.83-4.85c2.75-1,5.5-.63,8.27-.58,2.4,0,4.17,1.29,5.82,2.92,1.88,1.87,4.1,3,6.88,2.06a9.39,9.39,0,0,0,4.69-3.44,3.35,3.35,0,0,1,2.45-1.71c1.34-.16,2.4-1.21,3.69-1.72a25.83,25.83,0,0,1,18.18-.65,21.06,21.06,0,0,0,9.48.8,7.08,7.08,0,0,0,3.43-1.54c.24-.19.49-.41.37-.76s-.5-.25-.77-.22c-4.58.53-8.81-1.18-13.15-2.13-.52-.11-1.45-.32-1.19-1.09s1.15-.47,1.74-.26c4.42,1.62,9,1.57,13.55,1.15a3.83,3.83,0,0,0,1.32-.33c1.16-.53,1.65-.18,1.73,1.12a2.33,2.33,0,0,1-.66,2c-1.52,1.31-3,2.81-5.05,3.26-3,.65-5.94,1.21-9.1,0a31.85,31.85,0,0,0-8.62-1.76,19,19,0,0,0-8.35,1.38c-1.28.49-2.61.84-3.9,1.3a15.94,15.94,0,0,0-6,4.06,4.27,4.27,0,0,1-2.07,1.18c-2.38.64-2.72,1.17-2.77,3.57,0,.89.48,2.36-1.1,2.36s-1.34-1.41-1.21-2.42a2.5,2.5,0,0,0-1.91-3.11A5.68,5.68,0,0,1,70,48.24C67.8,45.61,65,45.11,62,45.61Z"/><path class="cls-1" d="M72.28,34a3.27,3.27,0,0,1-.86,1.89c-.19.29-.44.54-.64.83-.41.58-.26,1.82-1.23,1.67a13.22,13.22,0,0,1-3.19-1.3c-.1,0-.16-.38-.11-.53.1-.3.42-.29.65-.21,1.78.62,2.31-.77,2.95-1.87s-.33-1.95-1-2.76c-.47-.6-1-1.16-1.42-1.78a.84.84,0,0,1-.06-.71c.14-.32.51-.27.81-.22C69.3,29.21,72.3,32.9,72.28,34Z"/><path class="cls-1" d="M80.63,33.26c.89-1.38,1.63-2.68,2.54-3.85.3-.4.91-.11,1.32.3s.49,1.06.1,1.35c-2.34,1.72-1.84,3.88-1.11,6.13.13.41.26,1-.29,1.21s-.73-.32-.91-.62C81.48,36.36,81.6,34.64,80.63,33.26Z"/><path class="cls-1" d="M74.27,38.78c0,.81-.36,1.32-1.09,1.26-1.29-.1-1.2-1.14-1.21-2s0-2,1-1.85C74.65,36.31,73.71,38,74.27,38.78Z"/><path class="cls-1" d="M95.32,35.61c-.82-.1-1.5-.4-1.41-1.39s1-1.17,1.81-1.14,1.64.09,1.58,1S96.39,35.58,95.32,35.61Z"/><path class="cls-1" d="M50.58,40.08a1.81,1.81,0,0,1-1.67,1.38c-.58,0-1.12-.12-1.18-.85a2,2,0,0,1,1.72-1.77C50.13,38.9,50.48,39.34,50.58,40.08Z"/><path class="cls-1" d="M79,37.89c0-.51-.33-1.33.52-1.45s1,.7,1.17,1.34a5.25,5.25,0,0,1,.17,1c0,.63-.19,1.09-.9,1.14s-.86-.39-.9-1C79,38.66,79,38.31,79,37.89Z"/><path class="cls-1" d="M44.35,45.14c-.56.09-1-.2-.87-.71.27-1.08,1.26-1.29,2.19-1.45.59-.09,1.08.2.93.83C46.33,45,45.3,45,44.35,45.14Z"/><path class="cls-1" d="M53.2,35.76c.81.08,1.39.35,1.39,1.05,0,1.14-1,1.23-1.81,1.38a1,1,0,0,1-1.2-.86C51.58,36.24,52.64,36.17,53.2,35.76Z"/><path class="cls-1" d="M90,35.37c-.68,0-1.33-.23-1.28-1,.07-.93.87-1.13,1.66-1.16.62,0,1.11.19,1.05.94S90.76,35.33,90,35.37Z"/><path class="cls-1" d="M58.86,36.54c-.86-.06-1.67-.41-1.75-1.3,0-.69.74-.65,1.29-.62.75.05,1.58,0,1.61,1.11C60,36.53,59.46,36.57,58.86,36.54Z"/><path class="cls-1" d="M100.78,33.88c.64.07,1.18.21,1.14,1-.06.92-.73,1.13-1.49,1.14s-1.14-.25-1.08-1C99.42,34.16,100,33.88,100.78,33.88Z"/><path class="cls-1" d="M74.91,27.2c.74.2,1.51.44,1.52,1.4a.83.83,0,0,1-1,.92A1.59,1.59,0,0,1,74,28.19C73.91,27.55,74.29,27.27,74.91,27.2Z"/><path class="cls-1" d="M79.45,27.82c.53,0,1.18.05,1.08.74-.13.85-.81,1.15-1.63,1.23-.6.05-.86-.2-.82-.75A1.22,1.22,0,0,1,79.45,27.82Z"/><path class="cls-1" d="M86.69,34.9c0,.77-.33,1.12-1,1.16s-.91-.45-.9-1.07.41-1,1.06-1A.76.76,0,0,1,86.69,34.9Z"/><path class="cls-1" d="M64,35.56c0,.68-.27.92-.83.89s-1.1-.26-1.13-1a.77.77,0,0,1,.85-.86A1.11,1.11,0,0,1,64,35.56Z"/><path class="cls-1" d="M71.17,27.94a1.14,1.14,0,0,1,1,1.28c0,.47-.2.8-.72.72a1.27,1.27,0,0,1-1.14-1.2C70.25,28.15,70.7,28,71.17,27.94Z"/><path class="cls-1" d="M80.79,74a6.93,6.93,0,1,1-6.93-6.93A7,7,0,0,1,80.79,74Z"/></svg>