<svg id="Слой_1" data-name="Слой 1" xmlns="http://www.w3.org/2000/svg" viewBox="0 0 153.89 106.89"><defs><style>.cls-1{fill:#010101;}</style></defs><path class="cls-1" d="M64.15,51.11c4.45-.3,8.78.53,13.15.09a14.61,14.61,0,0,0,10.06-5.26c2.07-2.41,4.72-3.14,7.6-1.77,1.71.82,3.31,1.7,5.3.81a1.22,1.22,0,0,1,1.76.68c.17.72-.62,1-1.17,1.16a13.14,13.14,0,0,0-4.56,2.92,11.84,11.84,0,0,1-3.57,2.54c-3.27,1.27-5.35,4.09-8.13,6-1.1.75-1.09,1.67,0,2.46,3.28,2.43,5.44,5.79,7.64,9.12A25.29,25.29,0,0,0,95,73.2a2.35,2.35,0,0,1,.28,3.37,2.82,2.82,0,0,1-3.91.59,21.07,21.07,0,0,1-2.75-2.59.84.84,0,0,1-.1-1.3c.37-.34.71,0,1,.37.64.7,1.33,1.38,2,2.07a1.53,1.53,0,0,0,2.28.21c.83-.67.67-1.38,0-2.09-2.35-2.72-4.29-5.74-6.51-8.55A19.38,19.38,0,0,0,82.48,61a1.56,1.56,0,0,0-1.69-.21c-4.46,2.12-8.69,4.75-13.39,6.32-3.13,1-4.42,3.2-5.18,6.22a32.72,32.72,0,0,1-5.69,12.27,11.56,11.56,0,0,1-4.6,3.87c-1.15.48-1.84.19-2.14-1a3.36,3.36,0,0,1-.13-1.5c.67-2.63,1.23-5.33,3.13-7.44.34-.38.72-1.15,1.29-.76s.17,1.09-.15,1.58a17.79,17.79,0,0,0-2.66,5.72c-.14.6-.47,1.2.13,1.64s1.06-.11,1.49-.4a12.55,12.55,0,0,0,3.92-4.68C59.33,78,60.45,72.76,62.59,68a8,8,0,0,0-.09-7.33c-1-1.83-.42-3.78-.47-5.67a.56.56,0,0,1,.58-.59c.4,0,.48.33.47.65-.06,2.84,1.21,5.39,1.7,8.11a5.42,5.42,0,0,1,.11,1.2c0,1.58.5,1.89,2,1.29,3.29-1.31,6.22-3.36,9.56-4.55C80.57,59.62,83.82,57,87,54.16a44.35,44.35,0,0,1,7.25-4.62,11,11,0,0,0,2.09-1.75.83.83,0,0,0-.22-1.48A14.77,14.77,0,0,0,92.76,45a4.11,4.11,0,0,0-4,1.64C84.29,51.85,78.53,53.13,72,52.55a116.8,116.8,0,0,0-12.13-.07A28.58,28.58,0,0,0,45.41,57a7.18,7.18,0,0,0-1.3,1A16.94,16.94,0,0,1,39,61.79c-.57.26-1.46.49-1.22,1.28s1,.17,1.56.19a21.74,21.74,0,0,1,6.34,1.34,3,3,0,0,0,3.36-.42c.33-.3.78-.72,1.35-.44a.81.81,0,0,1,.4.91c-.07.67-.59.87-1.09,1.13a6.66,6.66,0,0,1-6,0,11.42,11.42,0,0,0-5.67-.61c-.65.06-1.31,0-2,0-.91,0-1.61-.27-1.78-1.25a1.8,1.8,0,0,1,1-2.16c3.84-1.2,6.69-3.89,9.76-6.26A21,21,0,0,1,53.43,52,30.45,30.45,0,0,1,64.15,51.11Z"/><path class="cls-1" d="M52.11,75.63c.34-.58.43-1.59,1.58-1.49.6,0,.8.54.7,1.1A1.89,1.89,0,0,1,52.82,77C52.1,77.08,52.08,76.35,52.11,75.63Z"/><path class="cls-1" d="M51.15,68a2,2,0,0,1-1.79,1.61c-.62.16-.9-.28-.92-.89,0-1.15.89-1.37,1.7-1.57C50.75,67,51,67.53,51.15,68Z"/><path class="cls-1" d="M52.34,71.19c-.27.69-.39,1.43-1.28,1.53-.63.06-1-.27-.89-.88a1.66,1.66,0,0,1,1.31-1.43C52,70.26,52.19,70.78,52.34,71.19Z"/><path class="cls-1" d="M86.79,72.05c-.67-.19-1.3-.47-1.33-1.33,0-.59.35-.77.87-.71a1.29,1.29,0,0,1,1.26,1.37C87.62,71.9,87.3,72.08,86.79,72.05Z"/><path class="cls-1" d="M80.59,66.68c0,.64-.23,1.06-.88,1s-.95-.5-1-1.07.13-.91.7-.93A1.14,1.14,0,0,1,80.59,66.68Z"/><path class="cls-1" d="M51.39,61.37a1.06,1.06,0,0,1-1.14,1.06.77.77,0,0,1-.87-.82c0-.79.57-1.14,1.24-1.21S51.38,60.79,51.39,61.37Z"/><path class="cls-1" d="M75.58,66.15c-.18,0-.79,0-.74-.71s.7-.92,1.34-1,.9.16.87.77S76.56,66.2,75.58,66.15Z"/><path class="cls-1" d="M52,57.19a.85.85,0,0,1,.85.93,1.08,1.08,0,0,1-1,1.1c-.52.08-1-.16-.87-.71A1.63,1.63,0,0,1,52,57.19Z"/><path class="cls-1" d="M82.84,69.47c-.49,0-1-.24-.92-.78s.63-.85,1.22-.85a.67.67,0,0,1,.73.77C83.85,69.25,83.41,69.45,82.84,69.47Z"/><path class="cls-1" d="M130.15,44.71a6.93,6.93,0,1,1,7-6.88A7,7,0,0,1,130.15,44.71Z"/></svg>