<svg id="Слой_1" data-name="Слой 1" xmlns="http://www.w3.org/2000/svg" viewBox="0 0 153.89 106.89"><defs><style>.cls-1{fill:#010101;}</style></defs><path class="cls-1" d="M103.39,51.58c-2,.18-4,.28-6,.57A4.37,4.37,0,0,0,94,54.46a9.48,9.48,0,0,1-2,2.61,7.3,7.3,0,0,0-2.47,6.22c0,.68.31,1.52-.6,1.83s-1.36-.23-1.81-.82c-2.2-3-5.59-3.51-8.84-4.33A16.63,16.63,0,0,1,75,58.69a19.41,19.41,0,0,0-8.55-2.37,10,10,0,0,0-5.76,1.49C59,58.92,57.19,59.87,55.53,61a6.86,6.86,0,0,1-4.18,1.08c-4.19-.09-8.38-.21-12.57-.31a1.73,1.73,0,0,1-1.15-.3c-.26-.22-.62-.4-.56-.83A.79.79,0,0,1,38,60a26.44,26.44,0,0,1,3.78.16A38.54,38.54,0,0,0,53.81,60a5.92,5.92,0,0,0,2.54-1.3c3.82-2.81,7.95-4.55,12.83-3.84a1.64,1.64,0,0,0,1.46-.22c1.1-1,2-.59,2.89.32,2.63,2.84,6.21,3.69,9.75,4.41s6-1,7.86-3.85c.62-1,1.34-1.89,1.94-2.88,1.17-1.9,3.29-1.72,5-2.26a8.8,8.8,0,0,1,3.31-.33c4.1.33,7.54-1.56,11.13-3.06a49.8,49.8,0,0,1,11.83-3.21c.43-.06,1,.13,1.14-.47s-.51-.8-1-.94a21.94,21.94,0,0,1-3.52-.91c-.52-.25-1.11-.47-.87-1.18s.89-.58,1.42-.49A26.23,26.23,0,0,1,129.7,43a.91.91,0,0,1,.42,1.06A1.12,1.12,0,0,1,129,45a59.41,59.41,0,0,0-19.16,4.85C107.8,50.73,105.83,52.06,103.39,51.58Z"/><path class="cls-1" d="M84.59,39a1.13,1.13,0,0,1,1.09,1.25c-.25,3.56,2.14,4.39,4.91,4.88.55.09,1.15.13,1.33.79A1,1,0,0,1,91.56,47c-.6.54-1,0-1.5-.17-1.21-.49-2.43-1-3.65-1.43a2.76,2.76,0,0,1-2.08-2.82,8.26,8.26,0,0,0-.49-2.2A1,1,0,0,1,84.59,39Z"/><path class="cls-1" d="M73.14,48.87a4,4,0,0,1-.09,1.2c-.31.86-.75,1.6-1.88,1-.57-.32-1.2-.53-1.77-.85a1.1,1.1,0,0,1-.55-1.3c.2-.62.78-.37,1.17-.27.61.16,1.25.39,1.6-.3s-.35-1.08-.77-1.46a13.16,13.16,0,0,0-1.34-1c-.44-.31-.77-.73-.52-1.27s1-.44,1.46-.27A4.69,4.69,0,0,1,73.14,48.87Z"/><path class="cls-1" d="M82.62,47.91c-.17-1.17.38-1.48,1.09-1.57s2,1.37,2,2.17a1.53,1.53,0,0,1-1.43,1.63C82.86,50,82.94,48.61,82.62,47.91Z"/><path class="cls-1" d="M112,39.23c.56-.15.8-.06.93.17a.58.58,0,0,1-.22.78c-.83.57-1.64,1.16-2.51,1.66a.75.75,0,0,1-1.07-.21,1.06,1.06,0,0,1,.15-1.25C110,39.39,111.21,39.48,112,39.23Z"/><path class="cls-1" d="M47.72,54.12h.46c.64,0,1.53-.09,1.52.78s-.91.73-1.55.74a3.34,3.34,0,0,1-.45,0c-.68-.09-1.63.36-1.82-.77C45.78,54.31,46.34,54.11,47.72,54.12Z"/><path class="cls-1" d="M99.34,44.11c-.67,0-1-.22-1-.78s1.65-2.11,2.32-2.15.79.32.79.83S99.87,44.12,99.34,44.11Z"/><path class="cls-1" d="M52.58,53.5c-1,.06-2.13,0-2.09-1s1.18-.91,2-1S54,51.91,54,52.72C54,53.77,53,53.42,52.58,53.5Z"/><path class="cls-1" d="M42.3,58.61c-.43,0-.84,0-1-.53s.28-.69.66-.86a4.39,4.39,0,0,1,2.18-.55,1,1,0,0,1,1,.95c0,.61-.45.67-.93.72C43.6,58.4,43,58.52,42.3,58.61Z"/><path class="cls-1" d="M115.76,41.54c-.74.15-.93-.11-1.07-.37a.51.51,0,0,1,.13-.67,6.68,6.68,0,0,1,2.4-1.49.79.79,0,0,1,.93.32.7.7,0,0,1-.13,1A6.89,6.89,0,0,1,115.76,41.54Z"/><path class="cls-1" d="M96.65,44.13A5.83,5.83,0,0,1,95,46.6c-.19.21-.55.1-.81-.13a.92.92,0,0,1-.34-1.07,4.51,4.51,0,0,1,1.87-2.08C96.24,43,96.6,43.39,96.65,44.13Z"/><path class="cls-1" d="M55.63,50c1,.21,2.06.37,2.3,1.5.14.63-.42.87-1,.78-1-.14-1.95-.38-2.23-1.47C54.52,50,55.26,50.16,55.63,50Z"/><path class="cls-1" d="M74.49,50.5a3.29,3.29,0,0,1,2.32,2.07.39.39,0,0,1,0,.15.66.66,0,0,1-.91.54,2.5,2.5,0,0,1-2-2A.59.59,0,0,1,74.49,50.5Z"/><path class="cls-1" d="M106.29,40.66c-.05.67-1.63,2.06-2.25,2s-.67-.37-.65-.83a2.23,2.23,0,0,1,2.18-1.88C106,40,106.33,40.15,106.29,40.66Z"/><path class="cls-1" d="M67,50.14c0,.53-.33.69-.8.62A2.19,2.19,0,0,1,64.28,49c-.13-.58.39-.71.89-.7A2.39,2.39,0,0,1,67,50.14Z"/><path class="cls-1" d="M80.7,40.17c.84,0,1.32.3,1.31,1a1.23,1.23,0,0,1-1.19,1.3,1.12,1.12,0,0,1-1.27-1.16C79.48,40.49,80.2,40.33,80.7,40.17Z"/><path class="cls-1" d="M60.65,48.69c.74.35,1.62.71,1.84,1.66.15.64-.45.63-.91.61a2.13,2.13,0,0,1-1.87-1.48C59.51,49,60.07,48.75,60.65,48.69Z"/><path class="cls-1" d="M73.43,42.8c.79,0,1.35.23,1.38,1s-.5.92-1.14.86-1.25-.23-1.28-1S73,42.86,73.43,42.8Z"/><path class="cls-1" d="M77.19,41.28c.59,0,1,.26,1,.86s-.37.89-1,.89-1.11-.26-1.09-.92S76.68,41.34,77.19,41.28Z"/><path class="cls-1" d="M77.16,72.69A5.78,5.78,0,1,1,83,66.93,5.8,5.8,0,0,1,77.16,72.69Z"/></svg>