<svg id="Слой_1" data-name="Слой 1" xmlns="http://www.w3.org/2000/svg" viewBox="0 0 153.89 106.89"><defs><style>.cls-1{fill:#010101;}</style></defs><path class="cls-1" d="M55.36,16.05c2.63-.41,4.74,1.71,6.87,3.65,1.84,1.68,3.9,3.07,5.88,4.55,2.23,1.68,3.42,3.94,4.55,6.33,1.9,4,2.73,8.27,3.94,12.46a4.32,4.32,0,0,0,3.67,3.41c1.85.29,3.67.79,5.51,1.19a2.32,2.32,0,0,1,1.47.72,3.83,3.83,0,0,0,3.43,1.3c2-.06,3.95.39,5.91-.23.48-.15,1.11-.14,1.21.55s-.4.92-1,1c-1.81.23-3.6.57-5.41.76a6.09,6.09,0,0,0-4,2.19,13,13,0,0,1-4.81,3.41,7.52,7.52,0,0,0-4.85,5.59,59.32,59.32,0,0,1-2.1,6.67A17.88,17.88,0,0,1,71.19,76a144.14,144.14,0,0,1-10.85,10.7A17.08,17.08,0,0,0,57.45,90c-1.38,2-2.45,2.1-4.28.55a3,3,0,0,0-.64-.39c-2.66-1.41-2.78-1.73-1.18-4.21a21.31,21.31,0,0,1,3.23-4,13.89,13.89,0,0,0,3.35-4.3c.21-.45.51-1.06,1.11-.7s.3,1,0,1.33c-1,1.16-1.65,2.53-2.67,3.68-1.24,1.39-2.3,3-3.42,4.46a2.21,2.21,0,0,0,.28,3.16c.92.79,2.07.25,2.83-.58,5.08-5.59,11.3-10.07,15.86-16.18a27.94,27.94,0,0,0,3.78-7.93c.51-1.47.91-3,1.34-4.51a5.68,5.68,0,0,1,3.25-3.63,21.6,21.6,0,0,0,5.54-3.16c.71-.62.67-1.14.49-2.08-.46-2.36-2-2.74-4-2.85-4-.21-6.19-2.35-7.29-6.14-1.21-4.13-2.77-8.15-4.17-12.22-1-2.95-3.21-4.92-5.66-6.58a43.41,43.41,0,0,1-4.52-3.56,13,13,0,0,0-3.55-2c-.57-.25-1.35-.56-1.87,0s-.27,1.36,0,2a39.22,39.22,0,0,0,3.43,5.74c.42.6,1.38,1.41.78,1.9-.85.69-1.39-.52-1.77-1.11a56,56,0,0,1-4.58-8.17C52.51,16.76,53.07,16,55.36,16.05Z"/><path class="cls-1" d="M52.48,58.16a5.77,5.77,0,0,1,3.21.51c2.45,1.15,5.12,1.24,7.67,1.85.64.16,1.18-.23,1.77-.31s1,0,1.16.47a.9.9,0,0,1-.4,1.18,3.65,3.65,0,0,0-.88.83c-.83,1.09-1.47,1.26-2.19-.16-.5-1-1.66-1.17-2.64-1.29a30.33,30.33,0,0,1-5-1.29c-2.07-.61-4.23-.22-6.33-.1-1.41.09-1.79-.05-1.41-1.44a6.16,6.16,0,0,0,0-3.3c-.49-2,0-2.81,2.12-2.88a14.15,14.15,0,0,0,6.9-2.15c1.07-.63,2-1.5,3-2.23a6.73,6.73,0,0,1,2.08-1.23c1.07-.3,2.21-.38,2-2.07-.1-.72.8-.75,1.26-.45a2.28,2.28,0,0,1,1.25,1.8c0,.86-.62,1.25-1.28,1.52-1.08.43-2.18.81-3.28,1.16-1.66.53-1.83,1-.77,2.3.65.82.27,1.39-.48,1.66a4.26,4.26,0,0,1-2.23.32c-1.83-.42-3.5.18-5.21.53a5.12,5.12,0,0,1-2.26.2,1.12,1.12,0,0,0-1.39.86A2.8,2.8,0,0,0,52,58.16Z"/><path class="cls-1" d="M60.2,56.39h1.36c.53,0,1.06,0,1.17.66s-.39,1-.84,1.12a4.4,4.4,0,0,1-3.5-.23,1.06,1.06,0,0,1-.56-1.29c.17-.53.71-.44,1.17-.39Z"/><path class="cls-1" d="M62.74,32.84c-1,.06-2.48-1.8-2.29-2.61.12-.53.53-.52.79-.31a11.63,11.63,0,0,1,1.94,1.9A.61.61,0,0,1,62.74,32.84Z"/><path class="cls-1" d="M62,73.72A2.27,2.27,0,0,1,60.12,75a.63.63,0,0,1-.82-.78,1.45,1.45,0,0,1,1.47-1.43A1.09,1.09,0,0,1,62,73.72Z"/><path class="cls-1" d="M63.07,69.9a1.43,1.43,0,0,1-1.35,1.51c-.48,0-1-.2-.89-.77a1.77,1.77,0,0,1,1.44-1.7C62.78,68.85,63.14,69.12,63.07,69.9Z"/><path class="cls-1" d="M61.3,37.58c.79.18,1.62.31,1.65,1.39,0,.73-.44,1-1.06.91a1.52,1.52,0,0,1-1.5-1.4C60.32,37.85,60.69,37.58,61.3,37.58Z"/><path class="cls-1" d="M62.39,36.36c-.64,0-1.17-.19-1.12-.92s.43-1,1.11-.94,1.22.23,1.17,1S62.94,36.34,62.39,36.36Z"/><path class="cls-1" d="M62.84,67.08c-.45,0-.87-.16-.78-.75a1,1,0,0,1,1.08-1,.72.72,0,0,1,.73.9A.86.86,0,0,1,62.84,67.08Z"/><path class="cls-1" d="M62,41.79c0-.61.27-.86.74-.8.64.09,1.18.38,1.17,1.15a.69.69,0,0,1-.76.76C62.37,42.87,62.09,42.35,62,41.79Z"/><path class="cls-1" d="M119.33,49.16a5.8,5.8,0,1,1-5.73-5.87A5.83,5.83,0,0,1,119.33,49.16Z"/></svg>