<svg id="Слой_1" data-name="Слой 1" xmlns="http://www.w3.org/2000/svg" viewBox="0 0 153.89 106.89"><defs><style>.cls-1{fill:#010101;}</style></defs><path class="cls-1" d="M95.74,52.86c-2.89.09-4.81,1.75-6.26,4a34.62,34.62,0,0,0-4.62,9.65,7.63,7.63,0,0,1-2.78,4.25c-3,2.25-4.14,5.57-5.57,8.8C75,83,73,86.06,69,87.14c-.36.09-.64.46-1,.67a6.52,6.52,0,0,1-1.43.8,2,2,0,0,1-2.11-.86c-.62-.71,0-1.28.32-1.75a18.1,18.1,0,0,1,3.47-3.58c1.84-1.43,3.26-3,3.08-5.67a8.2,8.2,0,0,1,2.26-5.65,4.9,4.9,0,0,0,.78-4.86c-.26-.85-.83-1.25-1.74-.82-2.77,1.34-5.54,2.69-8.32,4-2.11,1-2.62,3-3,5-.76,4.26-2.66,7.66-6.38,10a4.44,4.44,0,0,1-1.65.72A2.2,2.2,0,0,1,50.79,84a1.85,1.85,0,0,1,.89-2.46c2.89-1.83,4.22-4.83,5.61-7.72A16.31,16.31,0,0,0,58.14,70a5.37,5.37,0,0,1,2.14-3.31c1.72-1.34,3.78-2.38,4.83-4.48a8.19,8.19,0,0,0,1-2.82,8.77,8.77,0,0,1,2.62-5.3c2.7-2.7,5.94-4.66,8.9-7,2.17-1.71,4.64-3.24,5.82-6a1.94,1.94,0,0,0-.53-2.65c-2.06-1.51-4.55-2.15-6.82-3.22a17.83,17.83,0,0,1-4.31-2.46,6.8,6.8,0,0,0-1.83-1c-1.66-.71-2.43-2.23-3.36-3.58-.62-.88.24-1.49.67-2.12s1-1.28,1.86-.92a25.07,25.07,0,0,1,6,3.48,43,43,0,0,0,7.15,4.69,1.29,1.29,0,0,0,1.65-.38c.44-.59,0-1.05-.27-1.51a35.46,35.46,0,0,0-4.06-5.24,12.75,12.75,0,0,1-2-2.87,2.09,2.09,0,0,1,0-2.54,2.4,2.4,0,0,1,2.77-.6,9.52,9.52,0,0,1,4.54,3.63c1.75,2.27,2.91,5,5.25,6.78,1.77,1.34,3.73,2.42,5.12,4.2.19.24.41.45.6.69,1.58,1.94,1.47,3-.47,4.66-1.62,1.34-1.76,2.3-.62,4a1.62,1.62,0,0,0,2.47.58c2.18-1.5,4.66-2.62,6.21-5,.43-.65,1.13-1.68,2-1.16a2.41,2.41,0,0,1,1.27,2.84c-.81,2.34-1.81,4.68-4,6.05a12,12,0,0,0-4.47,4.61C97.65,53.24,96.71,53,95.74,52.86ZM76.28,68.64a4,4,0,0,1-1.08,2.93,10.34,10.34,0,0,0-2.52,6c-.1,1.05.08,2.22-.75,3.17A23.59,23.59,0,0,1,67.26,85c-.53.35-1.21.7-1,1.34.33.83,1.18.5,1.72.24a19.83,19.83,0,0,0,5-3.77,11.25,11.25,0,0,0,2.09-3.43c1.25-2.61,2-5.5,4.23-7.63a17.66,17.66,0,0,0,4.23-6,51.48,51.48,0,0,1,4.15-8.22c2.12-3.36,4.51-6.24,9-6.1a1.23,1.23,0,0,0,1.06-.74,14.28,14.28,0,0,1,4.58-4.92,7.16,7.16,0,0,0,2.26-3c.21-.41.43-.92,0-1.24s-1,0-1.26.45a16.75,16.75,0,0,1-3.9,3.32c-2.81,2.13-2.84,2.1-5.38-.41-1.87-1.85-1.76-4,.26-5.65.73-.59,1.44-1.27.83-2.3a6.9,6.9,0,0,0-4.09-3.59,3.38,3.38,0,0,1-2-1.29,57.46,57.46,0,0,1-4.59-6.37,10.06,10.06,0,0,0-3.85-4c-.63-.35-1.29-.83-1.9-.16s0,1.2.31,1.76a17.71,17.71,0,0,0,3.55,4.3c1.74,1.54,2.39,3.71,3.22,5.76.33.81,0,1.9-1,1.74-1.44-.23-3-.1-4.26-1.19-.71-.63-1.58-1.07-2.33-1.67C76.85,31,75,30.45,73.55,29.09a19.67,19.67,0,0,0-4.12-2.52,1.13,1.13,0,0,0-1.5.26c-.48.53,0,.79.15,1.18a4.86,4.86,0,0,0,1.33,1.62c2,2,4.72,2.95,7.16,4.27,2,1.11,4.21,2,6.26,3,1.23.65,2.55,1.49,2.19,3.19a6.43,6.43,0,0,1-1.39,3.14,61.45,61.45,0,0,1-8.16,6.94c-2.13,1.59-4.42,3-6.14,5.1-1,1.26-.91,2,.59,2.66.18.08.39.11.57.2.37.19.74.42.55.92a.77.77,0,0,1-1,.43,5.47,5.47,0,0,1-.84-.34c-1-.42-1.71-.29-1.91,1a8.07,8.07,0,0,1-4.06,5.87c-1.94,1.21-3.57,2.64-4.08,5.28a18.42,18.42,0,0,1-5.69,10.44c-.38.35-1.14.66-.72,1.29s1.07.31,1.63,0a10.33,10.33,0,0,0,5.28-7.69c.63-3.75,1.87-6.89,5.91-8.14a32.45,32.45,0,0,0,4.17-1.78,3.85,3.85,0,0,0,2.41-2.35c.37-1.37.61-1.45,1.75-.61C76,64.07,75.84,66.46,76.28,68.64Z"/><path class="cls-1" d="M86.84,21.47a5.77,5.77,0,1,1,5.75,5.79A5.8,5.8,0,0,1,86.84,21.47Z"/></svg>