<svg width="93" height="83" viewBox="0 0 93 83" fill="none" xmlns="http://www.w3.org/2000/svg">
<path d="M63.4993 27.2948C63.4993 25.1852 63.5198 23.1634 63.4788 21.1312C63.4313 20.7505 63.2754 20.3918 63.0299 20.0983C61.6783 18.2701 60.2753 16.473 58.9442 14.619C58.6123 14.1598 58.4198 13.6135 58.3902 13.0464C58.3441 9.27903 58.3595 5.50906 58.3672 1.73909C58.3672 0.409274 58.7621 0.0245306 60.0984 0.0167841C61.9895 0.00817687 63.878 0.00817687 65.764 0.0167841C67.1361 0.0167841 67.508 0.411856 67.5234 1.8243C67.5234 2.78487 67.5234 3.74544 67.5234 4.77572H71.504C71.504 3.7222 71.504 2.70999 71.504 1.67712C71.5219 0.497068 71.9656 0.0348593 73.1326 0.0219484C74.8613 0.00129109 76.5899 0.00129109 78.3186 0.0219484C79.4317 0.0348593 79.8857 0.504814 79.9062 1.61773C79.9241 2.6506 79.9062 3.68347 79.9062 4.84802H83.897C83.897 3.73769 83.897 2.7229 83.897 1.70552C83.9124 0.432514 84.3048 0.029695 85.5718 0.0193663C87.4902 0.0055947 89.4104 0.0055947 91.3323 0.0193663C92.5839 0.0193663 92.9917 0.450589 92.9942 1.71585C92.9942 5.48582 93.0173 9.25579 92.9712 13.0232C92.9404 13.5901 92.7481 14.136 92.4172 14.5957C91.0886 16.4497 89.6677 18.2366 88.3392 20.0906C88.0321 20.5254 87.8599 21.0421 87.8442 21.5753C87.8219 40.8073 87.8151 60.0402 87.8236 79.2739V80.281C88.8495 80.281 89.7883 80.281 90.7372 80.281C91.7939 80.2939 92.3941 80.7767 92.3915 81.5979C92.3889 82.419 91.7965 82.9174 90.7347 82.9199C82.1854 82.9509 73.6361 82.975 65.0869 82.9923C59.2734 83.0026 53.4505 83.0026 47.6182 82.9923C41.5371 82.9793 35.4585 82.9277 29.3775 82.9303C22.0499 82.9303 14.7197 82.9768 7.39217 82.9923C5.66608 82.9923 3.93741 82.9535 2.21132 82.9199C1.16489 82.9019 0.567295 82.388 0.590378 81.5591C0.613461 80.7303 1.20849 80.3094 2.20875 80.2836C3.16285 80.2836 4.11439 80.2836 5.1839 80.2836V79.1422C5.1839 60.0049 5.17535 40.8684 5.15825 21.7328C5.13663 21.106 4.93336 20.4993 4.57348 19.9873C3.29109 18.1798 1.89842 16.4523 0.613461 14.6474C0.266615 14.1613 0.0662625 13.5848 0.0363861 12.987C-0.0149094 9.25062 0.00304401 5.51164 0.00304401 1.77524C0.00304401 0.427349 0.39802 0.0271128 1.70862 0.0167841C3.62879 0.00817687 5.54895 0.00817687 7.46912 0.0167841C8.7515 0.0167841 9.17726 0.466082 9.19265 1.78041C9.20547 2.74097 9.19265 3.70671 9.19265 4.75765H13.1552C13.1552 3.79192 13.1552 2.83651 13.1552 1.88111C13.1552 0.422185 13.5476 0.0219484 14.9634 0.0142019C16.6279 0.0142019 18.2976 -0.00129108 19.957 0.0142019C21.0855 0.0271128 21.5241 0.478992 21.5395 1.59965C21.5549 2.63252 21.5395 3.66539 21.5395 4.76281H25.5534C25.5534 3.68863 25.5534 2.66609 25.5534 1.64097C25.5662 0.481575 25.974 0.0271128 27.0922 0.0167841C29.1441 -0.0055947 31.1916 -0.0055947 33.2349 0.0167841C34.2788 0.0167841 34.7507 0.517725 34.7558 1.58674C34.7712 5.41868 34.7789 9.25321 34.7404 13.0851C34.7094 13.5914 34.531 14.0773 34.2275 14.4821C32.8425 16.3774 31.4062 18.2237 29.9956 20.1035C29.7462 20.3953 29.5874 20.7545 29.539 21.1364C29.4954 23.1634 29.5185 25.1929 29.5185 27.3026L63.4993 27.2948ZM29.5134 30.1068V78.9666C29.4769 79.2244 29.4856 79.4866 29.539 79.7413C29.6185 79.953 29.8545 80.2577 30.0263 80.2577C32.0012 80.2939 33.9761 80.2784 36.0767 80.2784V79.0441C36.0767 74.373 35.9946 69.7018 36.1331 65.0358C36.3203 58.7973 42.2732 54.1391 48.362 55.3114C53.4915 56.2978 56.8847 60.4602 56.9309 65.8983C56.9694 70.3112 56.9309 74.7216 56.9309 79.1345C56.9309 79.5037 56.9642 79.873 56.9847 80.2939C58.8724 80.2939 60.6319 80.2448 62.3862 80.3145C63.2736 80.3507 63.5121 80.0796 63.5121 79.1913C63.4865 63.1818 63.4796 47.1724 63.4916 31.1629C63.4916 30.8247 63.4557 30.4864 63.4352 30.1301L29.5134 30.1068ZM85.1229 80.1674V21.7535H66.2231V80.1674H85.1229ZM7.92565 21.7303V80.1338H26.7973V21.7303H7.92565ZM2.67554 2.65834C2.67554 6.09005 2.67554 9.37199 2.69093 12.6539C2.72556 12.9406 2.84433 13.2103 3.03205 13.4286C4.23236 15.0579 5.42499 16.695 6.68429 18.2779C6.98098 18.6166 7.39858 18.8236 7.84614 18.8537C14.1846 18.8899 20.5221 18.8899 26.8588 18.8537C27.3064 18.8114 27.7197 18.5946 28.0104 18.2495C29.2313 16.7157 30.4034 15.1509 31.5421 13.5499C31.8135 13.1678 31.9702 12.7152 31.9935 12.2459C32.032 9.34617 32.014 6.44639 32.0089 3.54661C32.0089 3.27032 31.9628 2.99144 31.9397 2.74356H28.1771C28.1479 2.83185 28.1264 2.92258 28.113 3.01468C28.113 3.94943 28.113 4.88418 28.0976 5.81892C28.0822 7.01705 27.6616 7.4586 26.487 7.46635C24.471 7.48012 22.4551 7.48012 20.4392 7.46635C19.2671 7.46635 18.8439 7.01447 18.8311 5.81634C18.8311 4.79638 18.8311 3.77901 18.8311 2.71773H15.7816C15.7816 3.7661 15.7816 4.75765 15.7816 5.74662C15.7816 7.03771 15.3379 7.46376 14.0401 7.46893C12.1199 7.46893 10.1989 7.46893 8.27702 7.46893C6.8946 7.46893 6.51245 7.0816 6.49963 5.69498C6.49963 4.70859 6.49963 3.7222 6.49963 2.66093H2.67554V2.65834ZM74.138 2.70482C74.138 3.8229 74.1534 4.85061 74.138 5.87831C74.1123 6.98348 73.6404 7.45343 72.5376 7.46376C70.5858 7.47667 68.634 7.46376 66.6822 7.46376C65.2151 7.46376 64.8201 7.05836 64.8124 5.56329C64.8124 4.61821 64.8124 3.67056 64.8124 2.7229H61.0884C61.0503 2.89304 61.0238 3.06558 61.0089 3.23933C61.0089 6.2992 60.9909 9.35649 61.0243 12.4164C61.064 12.824 61.2198 13.2113 61.4731 13.5319C62.6016 15.0812 63.7814 16.6098 64.9048 18.1798C65.0531 18.4193 65.2636 18.6135 65.5136 18.7414C65.7635 18.8693 66.0435 18.926 66.3231 18.9054C72.0502 18.8795 77.7774 18.8072 83.5071 18.9389C85.3025 18.9802 86.4848 18.5413 87.4133 16.9687C88.2443 15.5666 89.7216 14.4485 90.1986 12.969C90.6757 11.4894 90.3423 9.65861 90.35 7.98536C90.35 6.25531 90.35 4.52267 90.35 2.73065C89.9755 2.70741 89.6959 2.67642 89.4164 2.67384C88.4648 2.67384 87.5159 2.67384 86.4669 2.67384C86.4669 3.80741 86.4669 4.82995 86.4669 5.85249C86.4669 7.01705 86.0026 7.47151 84.8305 7.47926C82.8488 7.48959 80.8654 7.48959 78.8803 7.47926C77.6184 7.47926 77.208 7.06869 77.1901 5.81376C77.1772 4.79638 77.1901 3.77901 77.1901 2.71515L74.138 2.70482ZM54.302 80.1699C54.302 77.8227 54.302 75.5737 54.302 73.3246C54.284 70.4274 54.3687 67.5199 54.1789 64.633C53.9532 61.1961 50.9447 58.2628 47.5566 57.8884C42.6835 57.3513 38.8081 60.7675 38.7338 65.7976C38.6671 70.3396 38.7158 74.8817 38.7338 79.4237C38.7499 79.6745 38.7833 79.9238 38.8338 80.1699H54.302Z" fill="white"/>
<path d="M75.7922 50.3846C74.2893 50.3846 72.7837 50.3846 71.2808 50.3846C70.2908 50.3846 69.7829 49.8992 69.7752 48.9154C69.7547 46.4675 69.7009 44.0092 69.7958 41.5742C69.8621 40.0292 70.5191 38.5698 71.6294 37.5011C72.7396 36.4324 74.2173 35.8372 75.7533 35.8399C77.2894 35.8426 78.7649 36.4429 79.8716 37.5154C80.9782 38.588 81.6302 40.0496 81.6912 41.5949C81.7784 44.0376 81.7348 46.4881 81.7117 48.9334C81.7117 49.9482 81.2347 50.3743 80.2062 50.3872C78.7417 50.3975 77.2644 50.3846 75.7922 50.3846ZM79.0238 47.6656C79.0238 45.5301 79.1187 43.4411 78.9931 41.3651C78.893 39.759 77.5183 38.6125 75.9641 38.5428C74.2816 38.4627 72.7017 39.493 72.558 41.1404C72.3682 43.2991 72.5119 45.4862 72.5119 47.6656H79.0238Z" fill="white"/>
<path d="M17.187 50.3846C15.7149 50.3846 14.2427 50.4001 12.7731 50.3846C11.7472 50.3717 11.2829 49.9353 11.2727 48.9128C11.247 46.4674 11.1803 44.0066 11.306 41.5742C11.4778 38.2019 14.0785 35.8237 17.3538 35.8573C20.5264 35.8909 23.0809 38.3749 23.2143 41.693C23.3066 44.0712 23.2553 46.4571 23.2322 48.8405C23.2322 49.9379 22.7193 50.3898 21.601 50.3898C20.1186 50.3949 18.6464 50.3846 17.187 50.3846ZM20.5443 47.6707C20.5443 45.5508 20.6264 43.5238 20.5187 41.5071C20.4587 40.7089 20.105 39.9621 19.5266 39.4128C18.9483 38.8635 18.1872 38.5514 17.3922 38.5376C15.6995 38.4808 14.176 39.5188 14.0349 41.1946C13.8554 43.3223 13.9913 45.4785 13.9913 47.6707H20.5443Z" fill="white"/>
</svg>
