<svg width="35" height="26" viewBox="0 0 35 26" fill="none" xmlns="http://www.w3.org/2000/svg">
<path d="M17.2216 3C17.2216 1.5 17.2215 1.5 17.2214 1.5H17.221L17.2195 1.5L17.2143 1.5L17.1944 1.50002L17.1178 1.50015C17.0509 1.50029 16.9529 1.50058 16.8277 1.50116C16.5774 1.50232 16.2179 1.50463 15.7799 1.50925C14.9043 1.51848 13.712 1.53694 12.4479 1.57396C11.1861 1.6109 9.84084 1.66665 8.66303 1.75129C7.52665 1.83296 6.42039 1.94894 5.71045 2.13602L5.70276 2.13804L5.6951 2.14015C3.98456 2.61033 2.60259 3.99975 2.13718 5.73072L2.13716 5.73071L2.135 5.73893C1.79819 7.02047 1.64815 8.87524 1.57517 10.3047C1.53756 11.0413 1.51881 11.7049 1.50944 12.1843C1.50475 12.4243 1.50239 12.619 1.5012 12.7545C1.50061 12.8223 1.50031 12.8753 1.50016 12.9119L1.50002 12.9542L1.5 12.9657L1.5 12.969L1.5 12.97L1.5 12.9703C1.5 12.9705 1.5 12.9706 3 12.9706C1.5 12.9706 1.5 12.9707 1.5 12.9708L1.5 12.9711L1.5 12.9722L1.5 12.9754L1.50002 12.987L1.50016 13.0295C1.50031 13.0662 1.50061 13.1195 1.5012 13.1875C1.50239 13.3236 1.50474 13.5191 1.50944 13.76C1.51881 14.2412 1.53755 14.907 1.57516 15.6451C1.64806 17.0759 1.79802 18.9335 2.13599 20.206L2.13718 20.2104C2.60371 21.9455 3.96641 23.3111 5.70114 23.7792C6.41986 23.9739 7.53089 24.0947 8.66875 24.1796C9.84874 24.2677 11.1941 24.3257 12.4549 24.3642C13.718 24.4027 14.9085 24.4219 15.7825 24.4315C16.2198 24.4363 16.5785 24.4387 16.8284 24.4399C16.9533 24.4405 17.0511 24.4408 17.1179 24.441L17.1944 24.4411L17.2143 24.4411L17.2195 24.4411H17.221H17.2214C17.2215 24.4411 17.2216 24.4411 17.2216 22.9411C17.2216 24.4411 17.2216 24.4411 17.2218 24.4411H17.2222H17.2236L17.2288 24.4411L17.2488 24.4411L17.3254 24.441C17.3923 24.4408 17.4902 24.4405 17.6154 24.44C17.8657 24.4388 18.2252 24.4365 18.6633 24.4319C19.5388 24.4226 20.7311 24.4042 21.9952 24.3672C23.257 24.3302 24.6023 24.2745 25.7801 24.1898C26.9165 24.1082 28.0227 23.9922 28.7327 23.8051L28.7327 23.8051L28.7409 23.8029C30.4761 23.3351 31.8393 21.9693 32.3059 20.2339L32.306 20.2339L32.3081 20.2257C32.6449 18.9441 32.795 17.0893 32.868 15.6599C32.9056 14.9233 32.9243 14.2597 32.9337 13.7803C32.9384 13.5403 32.9407 13.3456 32.9419 13.2101C32.9425 13.1423 32.9428 13.0893 32.943 13.0527L32.9431 13.0104L32.9431 13.0013L32.9431 13.001L32.9431 13L32.9431 12.9989L32.9431 12.9966L32.9432 12.985L32.9432 12.9423C32.9433 12.9054 32.9432 12.852 32.9429 12.7838C32.9424 12.6474 32.9408 12.4515 32.9371 12.21C32.9296 11.7278 32.9131 11.0604 32.8769 10.3197C32.8069 8.8861 32.6574 7.01861 32.3051 5.72772C31.838 3.99467 30.4767 2.63077 28.7439 2.16248C28.0286 1.96696 26.919 1.8463 25.7844 1.7615C24.6054 1.67338 23.2592 1.61537 21.997 1.57694C20.7323 1.53843 19.5396 1.51922 18.6639 1.50962C18.2257 1.50482 17.8661 1.50241 17.6157 1.50121C17.4904 1.50061 17.3924 1.5003 17.3255 1.50015L17.2488 1.50002L17.2288 1.5L17.2236 1.5L17.2222 1.5H17.2218C17.2216 1.5 17.2216 1.5 17.2216 3Z" fill="#FF0000" stroke="white" stroke-width="3"/>
<path d="M14.3867 17.2402L21.7904 12.9704L14.3867 8.70068V17.2402Z" fill="white"/>
</svg>
