<svg width="65" height="36" viewBox="0 0 65 36" fill="none" xmlns="http://www.w3.org/2000/svg">
<path d="M25.1617 0.888158C25.2459 0.85482 24.2247 0.809201 23.9878 0.905704C18.5626 3.16562 13.6024 6.41514 9.70191 10.7841C7.53849 13.2072 2.86951 20.0922 2.71862 20.315C3.77137 15.1109 6.44362 8.44345 8.88076 3.29546C9.54988 2.60102 9.94074 1.68506 9.97914 0.721471C9.97914 0.602159 8.48948 0.314405 8.42632 0.456527C8.04733 1.30926 7.68412 2.17252 7.3297 3.02876C6.68751 3.7306 5.82776 4.25698 4.93643 4.72546C3.83805 5.30272 1.66586 6.03263 1.92028 7.62405C1.9501 7.8153 3.30114 7.97497 3.47134 7.889C4.15354 7.49223 4.75813 6.97502 5.25576 6.3625C5.19435 6.43268 4.77325 6.24669 4.37846 6.12563C5.03995 5.63609 5.91198 5.29044 6.48398 4.9904L6.55241 4.95531C2.90285 12.851 1.25879 19.0728 0.00776555 25.9947C-0.0957556 26.8035 0.869272 27.7335 0.907873 27.5914C1.13039 26.754 1.39627 25.9288 1.70446 25.1191C2.79056 22.2574 5.06451 17.9902 10.609 11.3157C14.4411 6.71166 19.6171 3.19721 25.1617 0.888158ZM26.4671 20.1887C26.8302 20.0494 27.1726 19.8611 27.4847 19.629L27.2689 19.522C26.9654 19.3202 26.4285 18.9166 26.2004 18.9956C25.8835 19.1182 25.5875 19.2893 25.3231 19.5027C23.3509 20.3291 21.749 19.0114 19.7487 19.5027C19.3399 19.6044 18.1906 20.187 18.4538 20.7204C18.717 21.2538 19.7943 21.4924 20.4137 21.4327C20.4997 21.4327 20.0733 21.1397 20.0277 21.1169C19.9558 21.0765 19.868 21.0204 19.775 20.966C19.9154 20.7063 20.2488 20.5045 20.4769 20.3642C21.2489 19.9027 22.1069 20.0536 22.7982 20.1571C23.2878 20.2291 23.6211 20.3115 24.1159 20.3694C23.3392 21.0678 22.6072 21.8144 21.9244 22.6048C20.7857 23.9225 19.8435 25.4718 20.9822 26.5211C22.0104 27.4685 23.6422 27.5738 25.2266 27.1457C25.7477 27.0059 26.256 26.8222 26.7461 26.5965C27.676 26.1947 27.1514 25.9192 26.6811 25.2876C26.3302 25.463 25.6021 25.8455 25.2564 25.9771C24.5077 26.2646 23.7358 26.4876 22.9491 26.6439C22.1701 26.7965 21.9911 26.5193 21.9525 26.3807C21.6016 25.0911 22.9631 23.6821 23.9352 22.6241C24.6019 21.8977 25.5301 20.859 26.4671 20.187V20.1887ZM15.6237 19.236C14.6452 18.8852 13.6118 18.7123 12.5724 18.7254C9.7756 18.7254 7.58411 19.8202 6.08042 21.3889C4.65218 22.8768 4.10826 24.5331 4.30302 26.2105C4.42408 27.2632 6.16464 27.4019 6.16464 27.4019C5.18382 26.2807 5.48386 24.9156 6.09621 23.433C6.79805 21.7398 8.1912 20.7344 9.38784 20.2256C10.3793 19.7625 11.4625 19.5292 12.5566 19.543C14.22 19.543 15.4763 19.9799 16.0957 20.7712C16.5799 21.3941 16.6922 22.2398 16.4273 23.2821C16.2167 24.1173 15.757 24.9735 14.9797 25.9806C14.887 26.1047 14.7856 26.2219 14.6762 26.3316C14.6384 26.3459 14.5968 26.3468 14.5584 26.334C14.52 26.3212 14.4873 26.2955 14.4656 26.2614C14.0077 25.5911 13.7901 24.6208 13.8024 23.2961C13.8009 22.6663 13.8443 22.0371 13.9322 21.4134V21.3748C13.9336 21.3596 13.9319 21.3443 13.927 21.3298C13.9222 21.3153 13.9144 21.3019 13.9042 21.2906C13.8708 21.2502 13.8024 21.2152 13.5392 21.2152C13.2092 21.2216 12.8809 21.2639 12.5601 21.3415C12.4128 21.331 12.2654 21.3257 12.1162 21.3257C10.6441 21.3257 9.18957 21.8521 8.22805 22.7294C7.41743 23.4716 6.98229 24.2471 6.89456 25.1033C6.79981 26.0263 7.42093 27.1685 8.44737 27.3352C8.66037 27.3688 8.87567 27.3858 9.09131 27.3861C10.5494 27.3861 11.9232 26.6281 12.7093 25.9578C12.7836 26.1464 12.8716 26.3294 12.9725 26.5053C13.2181 26.9264 13.5655 27.1597 14.2428 27.1597C14.8593 27.155 15.464 26.9899 15.9974 26.6807C16.6834 26.2403 17.3204 25.4192 17.7046 24.484C18.1819 23.3172 18.2152 22.2469 17.8029 21.2994C17.3652 20.3596 16.586 19.6217 15.6237 19.236ZM11.8987 24.3471C11.4811 25.363 10.6862 26.1543 9.46504 26.7649C9.43521 26.7439 9.40714 26.7228 9.37731 26.6983C9.10003 26.4521 8.89757 26.1329 8.79303 25.7771C8.55967 25.1402 8.76145 24.4664 8.96849 24.0137C9.20536 23.4996 9.81947 22.5557 11.2495 21.9959C11.5881 21.8628 11.9511 21.803 12.3145 21.8205H12.3654C12.3408 22.4714 12.125 23.7944 11.8987 24.3471ZM61.7696 0.821483C60.2834 1.50402 59.2219 3.37267 58.5183 4.72897C56.6461 8.34519 55.4776 12.286 54.2318 16.1496C53.8809 16.1637 53.544 16.1689 53.2019 16.1602C52.8597 16.1514 52.2614 16.6865 51.9964 16.876C51.9438 16.9199 51.2841 17.4375 51.4174 17.4375C52.2336 17.4602 53.0503 17.418 53.8598 17.3112C52.8702 20.3554 51.8999 23.3066 50.8139 26.3368C50.7735 26.4456 50.8577 26.7228 51.3174 26.9615C51.5683 27.0931 51.8245 27.2317 51.9754 27.3124C53.179 23.94 54.2108 20.4923 55.2881 17.0603C55.7916 16.9497 56.2882 16.8181 56.776 16.662C57.2076 16.5234 57.6164 16.2075 57.9814 15.9461C58.0656 15.8864 58.6411 15.3618 58.5621 15.3881C57.6009 15.6933 56.6135 15.9095 55.6127 16.0338C56.5479 13.0931 57.5322 10.1717 58.706 7.32753C59.5184 5.35711 60.336 3.62533 61.752 2.20937C62.0573 1.90407 62.7662 1.61105 63.1838 1.48647C63.2317 1.47128 63.2811 1.46128 63.3311 1.45665C63.6119 1.82336 63.8575 2.33394 63.4294 2.56029C63.5487 2.49888 64.4576 3.63936 64.7699 3.47619C65.7104 2.99192 63.5803 -0.0119501 61.7696 0.821483ZM63.4662 1.47068C63.5154 1.48121 63.5171 1.49525 63.4662 1.47068V1.47068ZM52.3895 15.3899C51.4275 15.6944 50.4396 15.9099 49.4382 16.0338C50.3734 13.0931 51.3578 10.1717 52.5316 7.32753C53.3422 5.35711 54.1599 3.62533 55.5758 2.20937C55.8811 1.90407 56.59 1.61105 57.0093 1.48647C57.0572 1.47099 57.1066 1.46098 57.1567 1.45665C57.4375 1.82336 57.6831 2.33394 57.2532 2.56029C57.3725 2.49888 58.2832 3.63936 58.5937 3.47619C59.5359 2.98841 57.4059 -0.0154593 55.5969 0.817974C54.1107 1.50051 53.0492 3.36916 52.3474 4.72546C50.4752 8.34519 49.3119 12.286 48.0609 16.1496C47.71 16.1637 47.3731 16.1689 47.0309 16.1602C46.6888 16.1514 46.0887 16.6865 45.8255 16.876C45.7624 16.9199 45.1079 17.4322 45.2448 17.434C46.0604 17.4567 46.8765 17.4145 47.6854 17.3077C46.6976 20.3519 45.7255 23.3031 44.6412 26.3333C44.6008 26.4421 44.685 26.7193 45.143 26.9579C45.3957 27.0895 45.6518 27.2282 45.8027 27.3089C47.0064 23.9365 48.0381 20.4888 49.1154 17.0568C49.619 16.9462 50.1155 16.8146 50.6015 16.6585C51.0349 16.5199 51.442 16.204 51.807 15.9426C51.8912 15.8882 52.4702 15.3636 52.3895 15.3899ZM57.2901 1.47068C57.3392 1.48121 57.3427 1.49525 57.2901 1.47068V1.47068ZM34.0346 18.9868C32.9293 18.7973 31.966 19.7904 31.2448 20.7835C31.2951 20.4572 31.3484 20.1378 31.4045 19.8255C31.4361 19.6501 31.0062 19.2833 30.9062 19.1781C30.8729 19.1395 30.2939 18.6306 30.2921 18.6412C29.9043 20.7783 29.7394 23.3417 28.5603 25.2613C28.3127 25.6434 28.0308 26.0022 27.7181 26.3333C27.6198 26.4368 28.5638 27.4738 28.6358 27.4001C28.8974 27.1417 29.1325 26.8578 29.3376 26.5526C30.8009 24.512 31.5028 21.8152 33.689 20.3817C34.1434 20.0852 34.9348 19.8904 35.3594 20.2256C35.3861 20.3756 35.4008 20.5276 35.4032 20.68C35.4014 21.0715 35.3501 21.4612 35.2506 21.8398C34.9979 22.9785 34.4751 24.0225 34.0417 25.0946C33.8744 25.4995 33.7286 25.913 33.6048 26.3333C33.5048 26.6842 34.6242 27.2632 34.7628 27.3633C34.9323 26.7924 35.1374 26.2328 35.3769 25.6876C35.8331 24.6085 36.3209 23.5698 36.4876 22.3416C36.6788 20.9116 35.4822 19.2342 34.0346 18.9868ZM42.0058 19.0816C40.8197 18.7306 39.0861 20.3852 38.7194 20.8607C37.8018 22.0521 36.4876 24.4419 37.5877 25.8789C38.2018 26.6807 39.0177 27.379 40.0564 27.3948C41.811 27.4194 43.1796 25.8964 43.9165 24.4506C44.5815 23.1487 44.5728 21.1362 43.5937 20.015C43.1631 19.5602 42.6126 19.2366 42.0058 19.0816ZM42.4164 24.5068C40.7705 26.6912 38.7107 26.2947 38.4299 26.2438C38.4291 26.241 38.4291 26.2379 38.4299 26.2351C38.1141 24.9542 38.744 23.2908 39.4914 22.3188C41.4689 19.7483 42.7374 20.0589 42.8006 20.0694C42.9041 20.2905 43.9183 22.5118 42.4164 24.5068Z" fill="white"/>
<path d="M38.6369 32.8243C38.6369 33.3788 38.5071 33.8086 38.2526 34.0999C38.1073 34.2535 37.9299 34.3732 37.7331 34.4505C37.5363 34.5278 37.3249 34.5609 37.1139 34.5473C36.7279 34.5473 36.4454 34.4403 36.2752 34.2297C36.105 34.0192 36.0278 33.6788 36.0278 33.177V30.3995H35.4751V33.3419C35.469 33.5803 35.4843 33.8187 35.5207 34.0543C35.5459 34.1824 35.594 34.3048 35.6629 34.4157C35.7859 34.6069 35.963 34.7572 36.1717 34.8474C36.4386 34.9563 36.7251 35.0092 37.0133 35.0029C37.3016 34.9965 37.5854 34.931 37.8473 34.8105C38.0938 34.6786 38.2986 34.4805 38.4386 34.2385L38.6737 33.8507V34.8842H39.1826V30.3995H38.6369V32.8243ZM33.631 29.0765H33.0871V30.3995H32.3853V30.7732H33.0871V34.0788C33.0871 34.4105 33.1485 34.6386 33.2731 34.7579C33.3977 34.8772 33.6345 34.9333 33.9749 34.9333C34.0635 34.9327 34.1519 34.9274 34.2399 34.9175C34.3153 34.9088 34.396 34.8965 34.4855 34.8825V34.4578H34.3574C34.289 34.4578 34.2293 34.4578 34.182 34.4578C34.1038 34.4661 34.0247 34.457 33.9504 34.4312C33.8761 34.4055 33.8084 34.3636 33.7521 34.3087C33.6547 34.1586 33.612 33.9795 33.631 33.8016V30.7732H34.4855V30.3924H33.631V29.0765ZM30.4061 32.3523L29.6376 32.1769C29.4084 32.1405 29.1903 32.0536 28.9989 31.9225C28.9326 31.8669 28.8799 31.7969 28.8449 31.7178C28.81 31.6387 28.7936 31.5527 28.7971 31.4663C28.7917 31.3489 28.817 31.2321 28.8706 31.1274C28.9241 31.0228 29.004 30.934 29.1024 30.8697C29.3452 30.7289 29.6242 30.663 29.9043 30.6802C30.2006 30.6656 30.4939 30.7462 30.7412 30.91C30.8339 30.975 30.9126 31.0579 30.9729 31.1537C31.0331 31.2495 31.0737 31.3563 31.0921 31.468H31.6185C31.6112 31.3022 31.5673 31.1401 31.4899 30.9933C31.4126 30.8464 31.3037 30.7186 31.1711 30.6188C30.8024 30.3568 30.3559 30.2276 29.9043 30.2521C29.4671 30.2285 29.0347 30.352 28.6761 30.603C28.5374 30.7069 28.4261 30.8429 28.3518 30.9995C28.2775 31.156 28.2425 31.3282 28.2497 31.5013C28.2392 31.6392 28.2565 31.7778 28.3005 31.9089C28.3445 32.04 28.4143 32.1609 28.5059 32.2646C28.6813 32.4401 29.0164 32.5962 29.4919 32.7103L30.3833 32.9401C30.6127 32.9775 30.8295 33.0703 31.0149 33.2103C31.0789 33.2749 31.1287 33.3521 31.161 33.437C31.1933 33.5219 31.2075 33.6126 31.2027 33.7034C31.2057 33.8337 31.175 33.9626 31.1135 34.0776C31.052 34.1926 30.9619 34.2897 30.8517 34.3596C30.5877 34.5186 30.2823 34.5956 29.9745 34.5807C29.6391 34.6001 29.3074 34.5028 29.0357 34.3052C28.8258 34.1271 28.6905 33.8766 28.6567 33.6034H28.1304C28.1319 33.7972 28.1731 33.9887 28.2512 34.1661C28.3293 34.3435 28.4429 34.503 28.5848 34.6351C28.8848 34.9018 29.3288 35.0369 29.9008 35.0369C30.4728 35.0369 30.9535 34.9088 31.2746 34.6544C31.4328 34.5302 31.5585 34.3696 31.641 34.1863C31.7235 34.0029 31.7603 33.8023 31.7483 33.6016C31.7586 33.4606 31.7397 33.319 31.6929 33.1856C31.6461 33.0522 31.5724 32.9298 31.4764 32.8261C31.2904 32.6401 30.929 32.4839 30.4061 32.3523ZM46.022 29.2695H46.5659V28.6133H46.022V29.2695ZM46.022 34.8842H46.5659V30.3995H46.022V34.8842ZM44.0095 31.2276L43.7831 30.9293C43.6224 30.7139 43.4124 30.54 43.1708 30.4223C42.9132 30.3025 42.6319 30.2425 42.3479 30.2468C42.0784 30.2359 41.8102 30.2885 41.5648 30.4003C41.3195 30.5122 41.1039 30.6802 40.9354 30.8907C40.5845 31.3224 40.3985 31.9189 40.3985 32.6611C40.3985 33.4033 40.574 33.9736 40.9337 34.3999C41.1038 34.6083 41.3203 34.7741 41.5658 34.884C41.8113 34.994 42.0791 35.0451 42.3479 35.0333C42.6221 35.0354 42.8932 34.9754 43.1409 34.8579C43.3928 34.7321 43.6138 34.5524 43.7884 34.3315L44.013 34.0595V34.8825H44.5394V28.6185H44.013L44.0095 31.2276ZM43.6428 34.0473C43.5097 34.2197 43.3371 34.3576 43.1395 34.4492C42.9419 34.5408 42.7251 34.5835 42.5075 34.5736C42.2917 34.5825 42.0767 34.541 41.8796 34.4524C41.6826 34.3638 41.5089 34.2305 41.3723 34.0631C41.0849 33.6725 40.9411 33.1946 40.9652 32.7103C40.9652 32.0874 41.0986 31.5943 41.3583 31.2487C41.4902 31.0729 41.6631 30.932 41.8618 30.8381C42.0605 30.7442 42.2792 30.7003 42.4988 30.71C42.7161 30.6963 42.9336 30.7337 43.1338 30.8193C43.334 30.905 43.5114 31.0364 43.6515 31.2031C43.9059 31.5224 44.0358 31.9944 44.0358 32.6067C44.0358 33.2191 43.9095 33.7069 43.6498 34.0473H43.6428ZM51.5139 30.8644C51.1419 30.4521 50.6085 30.2433 49.9347 30.2433C49.261 30.2433 48.7276 30.4539 48.3556 30.8662C47.9836 31.2785 47.7924 31.8786 47.7924 32.6348C47.7924 33.391 47.9819 33.9946 48.3574 34.4105C48.7328 34.8263 49.261 35.0298 49.9365 35.0298C50.612 35.0298 51.1437 34.821 51.5156 34.4087C51.8876 33.9964 52.0771 33.3963 52.0771 32.6348C52.0771 31.8733 51.8946 31.2785 51.5209 30.8644H51.5139ZM51.1068 34.0613C50.9664 34.2329 50.7872 34.3689 50.5841 34.4579C50.381 34.547 50.1597 34.5866 49.9382 34.5736C49.7154 34.5858 49.4928 34.5458 49.2881 34.4569C49.0834 34.3679 48.9023 34.2325 48.7592 34.0613C48.489 33.7279 48.3538 33.2489 48.3538 32.6348C48.3538 32.0207 48.4889 31.5435 48.7574 31.2118C48.9007 31.0403 49.0821 30.9046 49.2871 30.8157C49.4921 30.7267 49.7151 30.6869 49.9382 30.6995C50.1599 30.6869 50.3815 30.7271 50.5846 30.8168C50.7877 30.9065 50.9667 31.0431 51.1068 31.2153C51.3718 31.547 51.5051 32.026 51.5051 32.6348C51.5051 33.2437 51.3788 33.7279 51.1138 34.0613H51.1068Z" fill="white"/>
</svg>
