<svg width="33" height="23" viewBox="0 0 33 23" fill="none" xmlns="http://www.w3.org/2000/svg">
<path d="M32.0532 3.58543C31.6758 2.18361 30.5705 1.07832 29.1687 0.700911C26.6076 0 16.3636 0 16.3636 0C16.3636 0 6.11949 0 3.55847 0.673953C2.18361 1.05137 1.05137 2.18361 0.673952 3.58543C0 6.14645 0 11.4572 0 11.4572C0 11.4572 0 16.7949 0.673952 19.329C1.05137 20.7308 2.15665 21.8361 3.55847 22.2135C6.14645 22.9144 16.3636 22.9144 16.3636 22.9144C16.3636 22.9144 26.6076 22.9144 29.1687 22.2404C30.5705 21.863 31.6758 20.7577 32.0532 19.3559C32.7271 16.7949 32.7271 11.4842 32.7271 11.4842C32.7271 11.4842 32.7541 6.14645 32.0532 3.58543Z" fill="#FF0000"/>
<path d="M13.1016 16.3635L21.6203 11.4572L13.1016 6.55078V16.3635Z" fill="white"/>
</svg>
