<svg width="16" height="16" viewBox="0 0 16 16" fill="none" xmlns="http://www.w3.org/2000/svg">
<path fill-rule="evenodd" clip-rule="evenodd" d="M8.63894 15.7621C8.46143 15.9155 8.23461 16 7.99994 16C7.76528 16 7.53846 15.9155 7.36094 15.7621L0.263944 9.38506C0.181163 9.31418 0.114708 9.22622 0.0691439 9.12722C0.0235802 9.02822 -1.27325e-05 8.92054 -1.2723e-05 8.81156C-1.27135e-05 8.70258 0.0235802 8.59489 0.069144 8.49589C0.114708 8.3969 0.181164 8.30894 0.263944 8.23806C0.441457 8.08458 0.668281 8.00012 0.902944 8.00012C1.13761 8.00012 1.36443 8.08458 1.54194 8.23806L7.99994 14.0401L14.4579 8.23806C14.6354 8.08485 14.862 8.00055 15.0964 8.00055C15.3309 8.00055 15.5575 8.08485 15.7349 8.23806C15.8177 8.30894 15.8842 8.3969 15.9297 8.49589C15.9753 8.59489 15.9989 8.70258 15.9989 8.81156C15.9989 8.92054 15.9753 9.02823 15.9297 9.12722C15.8842 9.22622 15.8177 9.31418 15.7349 9.38506L8.63894 15.7621Z" fill="#242424"/>
<path d="M8.99994 15.0001C8.99994 15.5523 8.55223 16 7.99994 16C7.44766 16 6.99994 15.5523 6.99994 15.0001L6.99994 1.00006C6.99994 0.447775 7.44766 6.02876e-05 7.99994 6.03359e-05C8.55223 6.03841e-05 8.99994 0.447775 8.99994 1.00006L8.99994 15.0001Z" fill="#242424"/>
</svg>
