<svg width="16" height="12" viewBox="0 0 16 12" fill="none" xmlns="http://www.w3.org/2000/svg">
<path d="M13.8182 0C14.3968 0 14.9518 0.22987 15.361 0.63904C15.7701 1.04821 16 1.60316 16 2.18182V9.45455C16 10.0332 15.7701 10.5882 15.361 10.9973C14.9518 11.4065 14.3968 11.6364 13.8182 11.6364H2.18182C1.60316 11.6364 1.04821 11.4065 0.63904 10.9973C0.229869 10.5882 0 10.0332 0 9.45455V2.18182C0 1.60316 0.229869 1.04821 0.63904 0.63904C1.04821 0.22987 1.60316 0 2.18182 0H13.8182ZM1.45455 5.09091V9.45455C1.45455 9.64743 1.53117 9.83242 1.66756 9.96881C1.80395 10.1052 1.98893 10.1818 2.18182 10.1818H13.8182C14.0111 10.1818 14.1961 10.1052 14.3324 9.96881C14.4688 9.83242 14.5455 9.64743 14.5455 9.45455V5.09091H1.45455ZM1.45455 2.90909H14.5455V2.18182C14.5455 1.98893 14.4688 1.80395 14.3324 1.66756C14.1961 1.53117 14.0111 1.45455 13.8182 1.45455H2.18182C1.98893 1.45455 1.80395 1.53117 1.66756 1.66756C1.53117 1.80395 1.45455 1.98893 1.45455 2.18182V2.90909Z" fill="#242424"/>
</svg>
