<svg width="18" height="16" viewBox="0 0 18 16" fill="none" xmlns="http://www.w3.org/2000/svg">
<path d="M0 6.56585C0.110514 6.45018 0.206979 6.31532 0.334351 6.22213C3.08689 4.20104 5.84146 2.18307 8.59806 0.168229C8.90525 -0.0560763 9.04526 -0.0560763 9.35339 0.168229L17.6756 6.26053C18.0175 6.51106 18.0381 6.90675 17.7187 7.09453C17.5089 7.21863 17.3207 7.16103 17.1357 7.02476C16.2094 6.34357 15.2819 5.66394 14.3532 4.98588C12.605 3.70591 10.8586 2.42595 9.1141 1.14599C9.00312 1.06451 8.93662 1.07201 8.83032 1.15021C6.17144 3.10137 3.51099 5.05019 0.848988 6.99666C0.474366 7.27014 0.214003 7.21254 0 6.80935V6.56585Z" fill="#242424"/>
<path d="M2.91037 15.0632C2.98108 15.0665 3.03821 15.0717 3.09487 15.0717C4.21078 15.0717 5.32622 15.0684 6.44166 15.0759C6.60649 15.0759 6.64536 15.029 6.64442 14.8694C6.63849 13.6141 6.63755 12.3583 6.64161 11.1021C6.64161 9.94916 7.33466 9.03274 8.40281 8.75739C9.78844 8.40009 11.204 9.39987 11.2869 10.8253C11.3291 11.553 11.3029 12.2849 11.3052 13.015C11.3071 13.6456 11.3071 14.2764 11.3052 14.9073C11.3052 15.0009 11.3052 15.0749 11.4377 15.0745C12.6117 15.0698 13.7857 15.0712 14.9601 15.0702C14.9859 15.0669 15.0114 15.0616 15.0364 15.0543V14.8572C15.0364 12.4799 15.0364 10.1024 15.0364 7.72484C15.0364 7.37784 15.2326 7.16852 15.5352 7.18772C15.6352 7.19225 15.7308 7.23048 15.8064 7.29619C15.8819 7.36191 15.9331 7.45125 15.9515 7.5497C15.9641 7.6244 15.9698 7.70012 15.9683 7.77588C15.9683 10.3168 15.9683 12.8576 15.9683 15.3985C15.9683 15.8429 15.8114 15.9993 15.368 15.9993H10.953C10.5349 15.9993 10.3738 15.8368 10.3738 15.4158C10.3738 13.9614 10.3766 12.5074 10.3738 11.0529C10.3738 10.2662 9.79078 9.65086 9.03404 9.61949C8.23329 9.58671 7.57817 10.217 7.57536 11.0379C7.57067 12.5097 7.57536 13.982 7.56833 15.4538C7.5679 15.5968 7.5207 15.7358 7.43394 15.8495C7.35855 15.9366 7.1998 15.9923 7.07945 15.9932C5.5435 16.0026 4.00708 16.0002 2.47113 15.9979C2.18079 15.9979 2.00285 15.8256 1.98131 15.5362C1.97709 15.4781 1.9785 15.4191 1.9785 15.361C1.9785 12.8492 1.9785 10.3375 1.9785 7.82598C1.9766 7.74434 1.98035 7.66266 1.98974 7.58154C2.0034 7.46707 2.06056 7.36224 2.14939 7.28875C2.23822 7.21527 2.35191 7.17876 2.46691 7.18678C2.57894 7.19031 2.68576 7.23492 2.76702 7.31212C2.84828 7.38933 2.8983 7.49372 2.90756 7.60542C2.91365 7.66911 2.91084 7.73373 2.91084 7.79789V15.0632H2.91037Z" fill="#242424"/>
</svg>
