<svg width="16" height="22" viewBox="0 0 16 22" fill="none" xmlns="http://www.w3.org/2000/svg">
<path d="M0 9.99361C0 7.53505 0 5.07629 0 2.61732C0.00312793 1.44997 0.631842 0.509716 1.67157 0.160638C1.97456 0.0618048 2.29124 0.0113472 2.60995 0.0111232C5.54103 -0.000137325 8.46961 -0.0028482 11.3957 0.00299061C12.6544 0.00299061 13.5558 0.691136 13.9243 1.90102C13.9394 1.94068 13.9627 1.97671 13.9927 2.00678C14.0227 2.03685 14.0586 2.06028 14.0982 2.07556C15.3037 2.4359 15.9975 3.34362 15.9981 4.6023C16.0006 9.52734 16.0006 14.453 15.9981 19.3793C15.9981 20.9132 14.9209 21.9886 13.3876 21.9911C10.4598 21.9957 7.53206 21.9957 4.60432 21.9911C3.34564 21.9911 2.44292 21.303 2.0757 20.0937C2.06061 20.0539 2.03733 20.0176 2.00738 19.9874C1.97742 19.9571 1.94145 19.9334 1.90178 19.9179C0.678761 19.5469 0 18.6455 0 17.3705C0 14.9115 0 12.4526 0 9.99361ZM1.00719 12.008V12.2645C1.00719 13.9652 1.00719 15.666 1.00719 17.3668C1.00719 18.3821 1.62402 18.9933 2.6431 18.9933H11.3531C12.3772 18.9933 12.9997 18.3677 13.0003 17.3449C13.0003 15.652 13.0003 13.959 13.0003 12.2657V12.008H1.00719ZM12.9909 10.9933C12.9947 10.9176 12.9997 10.8644 12.9997 10.8112C12.9997 8.06451 12.9997 5.31777 12.9997 2.57102C12.9997 1.63264 12.361 1.01331 11.4132 1.01269C8.47128 1.01018 5.52893 1.01018 2.58617 1.01269C2.44593 1.00924 2.30575 1.02162 2.16828 1.0496C1.4451 1.21851 1.01032 1.8003 1.0097 2.59855C1.0097 5.31359 1.0097 8.02906 1.0097 10.7449V10.9833H2.5111C2.5111 10.8206 2.5061 10.6736 2.5111 10.5266C2.51656 10.1976 2.5913 9.87348 2.73046 9.57533C2.86962 9.27717 3.07007 9.0117 3.31874 8.79623C3.57272 8.57165 3.88176 8.409 4.16891 8.22195C4.33469 8.11309 4.5061 8.01237 4.67688 7.90915C3.64842 6.58041 3.86362 4.86317 4.9096 3.85848C5.41664 3.36293 6.08328 3.0637 6.79053 3.01419C7.49778 2.96469 8.1996 3.16814 8.77072 3.58823C9.34209 3.99678 9.74629 4.59831 9.90866 5.28169C10.1389 6.24071 9.92743 7.11653 9.32249 7.90915C9.66719 8.1181 9.99687 8.3089 10.3172 8.5141C10.9959 8.94763 11.3876 9.56696 11.4776 10.3696C11.5008 10.5748 11.5052 10.7818 11.5183 10.9952L12.9909 10.9933ZM13.9962 3.11904V3.41869C13.9962 8.05554 13.9962 12.6924 13.9962 17.3292C14.0009 17.5787 13.9768 17.8279 13.9243 18.0718C13.6478 19.2304 12.6656 19.9899 11.4464 19.9911C8.75258 19.9949 6.05881 19.9949 3.36503 19.9911H3.11855C3.1183 20.0175 3.11997 20.0438 3.12355 20.0699C3.12984 20.0915 3.13822 20.1125 3.14858 20.1325C3.44886 20.7099 3.9218 20.9889 4.56678 20.9889C7.5183 20.9864 10.4698 20.9864 13.4213 20.9889C13.5615 20.992 13.7016 20.9785 13.8386 20.9489C14.5699 20.7725 14.9891 20.1982 14.9891 19.3693C14.9891 14.4593 14.9891 9.54923 14.9891 4.63921C14.9891 4.53787 14.9891 4.4359 14.979 4.33455C14.9346 3.78278 14.5174 3.25979 13.9962 3.11904ZM10.4798 10.9895C10.5674 10.2044 10.299 9.62639 9.61464 9.25041C9.28746 9.07087 8.97529 8.86192 8.64873 8.67925C8.61058 8.65902 8.56865 8.6469 8.52558 8.64367C8.48251 8.64044 8.43925 8.64617 8.3985 8.66048C7.46575 9.11466 6.53863 9.11528 5.60651 8.66048C5.57401 8.64502 5.53866 8.63647 5.50269 8.6354C5.46672 8.63432 5.43092 8.64073 5.39756 8.65423C4.96653 8.90446 4.52987 9.14969 4.11886 9.43058C3.61839 9.7709 3.3838 10.4509 3.53894 10.9889L10.4798 10.9895ZM8.99343 6.01175C8.97913 5.49466 8.76461 5.00333 8.39509 4.64134C8.02557 4.27935 7.52993 4.07499 7.01266 4.07134C6.49539 4.06769 5.99691 4.26504 5.62232 4.62177C5.24772 4.97851 5.02629 5.46677 5.00469 5.9836C5.00284 6.24567 5.05263 6.50553 5.15121 6.74836C5.24979 6.99119 5.39524 7.21222 5.57924 7.39884C5.76325 7.58546 5.98221 7.734 6.22362 7.836C6.46503 7.938 6.72417 7.99145 6.98624 7.99329C7.24831 7.99514 7.50817 7.94535 7.751 7.84677C7.99383 7.74819 8.21486 7.60275 8.40148 7.41874C8.58809 7.23474 8.73664 7.01578 8.83864 6.77437C8.94064 6.53296 8.99409 6.27382 8.99593 6.01175H8.99343Z" fill="#242424"/>
<path d="M6.99287 14.9927C5.85305 14.9927 4.71344 14.9927 3.57404 14.9927C3.2456 14.9927 3.04354 14.83 3.01101 14.5548C2.99659 14.425 3.03346 14.2947 3.11376 14.1918C3.19405 14.0888 3.31141 14.0213 3.44079 14.0036C3.49498 13.9975 3.54956 13.9954 3.60406 13.9974H10.3911C10.4305 13.9974 10.4693 13.9974 10.508 13.9974C10.6384 14.0014 10.7621 14.0558 10.8532 14.1491C10.9443 14.2424 10.9957 14.3674 10.9966 14.4978C10.9971 14.5625 10.9847 14.6265 10.9602 14.6863C10.9356 14.7461 10.8994 14.8004 10.8536 14.846C10.8078 14.8916 10.7534 14.9276 10.6935 14.952C10.6337 14.9763 10.5695 14.9884 10.5049 14.9877C10.052 14.9977 9.59969 14.9921 9.14676 14.9927H6.99287Z" fill="#242424"/>
<path d="M6.00878 15.9999C6.80515 15.9999 7.60152 15.9999 8.39789 15.9999C8.78325 15.9999 8.99658 16.1875 8.9922 16.5003C8.98782 16.8056 8.76949 16.9908 8.40477 16.9914C6.7966 16.9914 5.18822 16.9914 3.57963 16.9914C3.2881 16.9914 3.10293 16.8719 3.03224 16.6448C2.96155 16.4178 3.01597 16.2288 3.20302 16.1068C3.32224 16.0367 3.45821 16.0002 3.59652 16.0011C4.40039 15.9949 5.2049 15.9999 6.00878 15.9999Z" fill="#242424"/>
</svg>
