<svg width="30" height="30" viewBox="0 0 30 30" fill="none" xmlns="http://www.w3.org/2000/svg">
<path d="M15 30C23.2843 30 30 23.2843 30 15C30 6.71573 23.2843 0 15 0C6.71573 0 0 6.71573 0 15C0 23.2843 6.71573 30 15 30Z" fill="#3AC267"/>
<path d="M20.293 10.293L13 17.586L9.70696 14.293C9.61471 14.1975 9.50437 14.1213 9.38236 14.0689C9.26036 14.0165 9.12914 13.9889 8.99636 13.9877C8.86358 13.9866 8.7319 14.0119 8.609 14.0622C8.48611 14.1124 8.37446 14.1867 8.28056 14.2806C8.18667 14.3745 8.11242 14.4861 8.06214 14.609C8.01186 14.7319 7.98655 14.8636 7.98771 14.9964C7.98886 15.1292 8.01645 15.2604 8.06886 15.3824C8.12127 15.5044 8.19745 15.6147 8.29296 15.707L13 20.414L21.707 11.707C21.8025 11.6147 21.8787 11.5044 21.9311 11.3824C21.9835 11.2604 22.0111 11.1292 22.0122 10.9964C22.0134 10.8636 21.9881 10.7319 21.9378 10.609C21.8875 10.4861 21.8132 10.3745 21.7194 10.2806C21.6255 10.1867 21.5138 10.1124 21.3909 10.0622C21.268 10.0119 21.1363 9.98659 21.0036 9.98774C20.8708 9.98889 20.7396 10.0165 20.6176 10.0689C20.4956 10.1213 20.3852 10.1975 20.293 10.293Z" fill="white"/>
</svg>
