<svg width="16" height="16" viewBox="0 0 16 16" fill="none" xmlns="http://www.w3.org/2000/svg">
<path d="M2.16979 0.689142C2.27101 0.564142 2.39909 0.462345 2.54498 0.390928C2.69088 0.319512 2.85104 0.280215 3.01418 0.275807C3.17732 0.2714 3.33946 0.30199 3.48918 0.36542C3.6389 0.428851 3.77254 0.523577 3.88069 0.642921L5.82827 2.54459C6.08451 2.82293 6.22026 3.18743 6.20697 3.56146C6.19139 3.8992 6.04375 4.21824 5.79446 4.45287L4.44197 5.77347C5.2131 6.84257 6.04624 7.86772 6.93731 8.84388C7.80309 9.73364 8.7294 10.5653 9.70991 11.3332L11.0624 10.0126C11.2999 9.7683 11.6241 9.62185 11.9686 9.60323C12.3543 9.59376 12.7292 9.72837 13.0167 9.9796L14.9508 11.8681C15.0757 11.9697 15.1762 12.0969 15.2452 12.2407C15.3142 12.3845 15.35 12.5413 15.35 12.7001C15.35 12.8588 15.3142 13.0156 15.2452 13.1594C15.1762 13.3032 15.0757 13.4304 14.9508 13.532L13.1452 15.262C13.1452 15.262 12.4014 16.16 8.86461 14.7866C6.03114 13.6245 2.0413 9.33251 0.884925 6.55924C-0.555475 3.11245 0.364217 2.41914 0.364217 2.41914L2.16979 0.689142Z" fill="white"/>
</svg>
