<svg width="24" height="24" viewBox="0 0 24 24" fill="none" xmlns="http://www.w3.org/2000/svg">
<path d="M8.79211 7.7992C8.85192 7.72533 8.9276 7.66518 9.01382 7.62298C9.10003 7.58078 9.19467 7.55755 9.29108 7.55495C9.38748 7.55235 9.4833 7.57042 9.57177 7.6079C9.66024 7.64539 9.73921 7.70136 9.80312 7.77189L10.954 8.89563C11.1054 9.06011 11.1856 9.2755 11.1778 9.49653C11.1686 9.69611 11.0813 9.88464 10.934 10.0233L10.1348 10.8037C10.5905 11.4354 11.0828 12.0412 11.6094 12.618C12.121 13.1438 12.6683 13.6353 13.2478 14.0891L14.047 13.3087C14.1873 13.1643 14.3789 13.0778 14.5825 13.0668C14.8104 13.0612 15.0319 13.1407 15.2018 13.2892L16.3447 14.4051C16.4186 14.4652 16.4779 14.5403 16.5187 14.6253C16.5595 14.7103 16.5806 14.8029 16.5806 14.8968C16.5806 14.9906 16.5595 15.0832 16.5187 15.1682C16.4779 15.2532 16.4186 15.3283 16.3447 15.3884L15.2778 16.4107C15.2778 16.4107 14.8382 16.9414 12.7482 16.1298C11.0739 15.443 8.71618 12.9068 8.03285 11.268C7.18168 9.2312 7.72515 8.8215 7.72515 8.8215L8.79211 7.7992Z" fill="white"/>
<path fill-rule="evenodd" clip-rule="evenodd" d="M16.3712 20.0386C14.5474 20.9837 12.4592 21.3151 10.4259 20.9822C8.39261 20.6492 6.52605 19.6702 5.11159 18.1949C3.69713 16.7195 2.81258 14.829 2.59318 12.8123C2.37377 10.7955 2.83158 8.7636 3.89661 7.02707C4.96165 5.29054 6.5753 3.94501 8.4909 3.1961C10.4065 2.44719 12.5186 2.33616 14.5044 2.87997C16.4902 3.42377 18.2404 4.59245 19.4874 6.20744C20.7344 7.82242 21.4096 9.79482 21.4099 11.8231C21.4156 13.4973 20.9578 15.1414 20.0856 16.5791L21.5953 21.5958L16.3712 20.0386ZM22.2488 16.8064L23.516 21.0177C23.7286 21.7241 23.5364 22.49 23.0155 23.0123C22.4946 23.5345 21.7292 23.7287 21.0223 23.518L16.5321 22.1797C14.5144 23.0444 12.2815 23.3186 10.1018 22.9617C7.64345 22.5591 5.38141 21.3747 3.66367 19.583C1.94542 17.7908 0.866738 15.4895 0.599078 13.0292C0.331399 10.5688 0.890451 8.09194 2.18672 5.97838C3.48265 3.86538 5.44213 2.23432 7.76054 1.32793C10.0786 0.421697 12.6326 0.287665 15.0342 0.945334C17.4361 1.60308 19.5591 3.01829 21.0751 4.98153C22.5907 6.94444 23.4147 9.34602 23.4157 11.8195C23.4211 13.5537 23.0193 15.2598 22.2488 16.8064Z" fill="white"/>
</svg>
