<svg width="117" height="59" viewBox="0 0 117 59" fill="none" xmlns="http://www.w3.org/2000/svg">
<path d="M95.1872 18.872C95.3151 18.9107 95.559 19.1249 95.5442 19.2617C95.5332 19.3817 95.4951 19.4976 95.4328 19.6007C95.3704 19.7038 95.2854 19.7913 95.1842 19.8567C94.7518 20.0779 94.2997 20.2581 93.8337 20.3951C93.3557 20.5836 92.856 20.7115 92.3463 20.7759C89.6839 21.0734 87.2237 21.7933 85.0581 23.587C84.603 22.0045 83.6243 20.9841 82.2231 20.178C82.5206 20.053 82.7408 19.9757 82.946 19.8805C84.2519 19.2498 85.5757 18.6549 86.8489 17.9618C87.6665 17.4919 88.5985 17.2581 89.5411 17.2865C90.0408 17.3103 90.5436 17.584 91.0285 17.819C91.5937 18.0926 92.1381 18.4139 92.6884 18.7114C92.8187 18.7918 92.96 18.8529 93.1078 18.8929C93.4291 18.9286 93.7534 18.9286 94.0746 18.8929C94.4465 18.878 94.8332 18.7649 95.1872 18.872ZM88.5773 18.7054C88.5773 18.7054 88.961 18.9375 89.8683 18.3752C89.1008 17.8814 88.4434 17.9469 87.9496 18.5746C88.1677 18.5435 88.3897 18.5898 88.5773 18.7054Z" fill="white"/>
<path d="M83.767 23.6286C83.4695 22.403 82.6306 21.6355 81.6192 20.9959C81.4059 20.8452 81.1622 20.7431 80.9052 20.6969C80.6482 20.6506 80.3842 20.6613 80.1318 20.7282C79.1085 20.9751 78.0495 21.0703 76.8804 21.2488C77.0678 20.3355 77.2225 19.6781 77.3325 19.0147C77.755 16.4416 78.7872 13.9398 78.1387 11.2506C77.2463 7.547 76.5978 3.81366 77.6508 0C77.3379 0.18914 77.0788 0.455454 76.8982 0.773441C76.3241 2.12101 75.8005 3.49238 75.1134 5.2118C74.92 3.93562 74.7683 2.93907 74.6166 1.93955L74.2269 1.88006L73.0013 7.61839C72.7038 6.51773 72.4331 5.58662 72.1743 4.65849L71.8471 4.62577C71.5496 6.28569 71.2521 7.94264 70.916 9.82567C70.6185 8.99274 70.3745 8.37101 70.0235 7.44586C69.3899 10.1945 68.8336 12.6398 68.194 15.3855C64.2681 11.0158 61.452 5.76515 59.9837 0.0773441C58.7432 2.43931 59.2073 4.71501 59.5018 7.38636C58.764 6.41956 58.2613 5.75618 57.7585 5.09281L57.4968 5.19693C57.6306 6.90445 57.7615 8.61197 57.9132 10.5515L56.6727 8.70121L56.4318 8.80235C56.8066 10.5872 57.1804 12.3721 57.5533 14.1569L57.4164 14.2938L56.4615 12.8302L56.0391 13.089C56.8007 15.1327 57.5592 17.1793 58.3505 19.3092L56.8631 18.1461L56.6609 18.2562C57.5682 20.2909 58.4725 22.3286 59.3203 24.2325L50.6548 30.3427C52.8323 30.5479 54.522 30.6699 56.2236 30.8722C59.9004 31.3095 63.5653 31.9193 67.254 32.2138C71.0379 32.5113 74.5125 31.3214 77.627 29.1944C78.6028 28.534 79.5309 27.8052 80.4501 27.0704C81.3693 26.3357 82.3183 25.583 83.2404 24.8274C83.4528 24.6932 83.6294 24.5095 83.7551 24.292C83.8317 24.0782 83.8359 23.8451 83.767 23.6286Z" fill="white"/>
<path d="M65.5586 9.51925C65.7222 9.8792 65.8947 10.2183 66.0584 10.5158C66.4867 10.4414 66.9181 10.373 67.3494 10.3105C67.5993 10.2719 67.8492 10.2451 68.099 10.2124C68.0892 9.81399 68.1171 9.41558 68.1823 9.02246C67.3078 9.17517 66.4332 9.34076 65.5586 9.51925Z" fill="#E65C11" stroke="#E65C11" stroke-miterlimit="10"/>
<path d="M115.957 24.5925C114.425 18.643 108.791 14.6806 103.166 12.2175C102.779 12.0509 102.395 11.8873 102.005 11.7266C95.7247 9.10205 88.9942 7.722 82.1875 7.66309C81.06 7.66309 79.9326 7.68986 78.8052 7.74638C78.8557 8.48412 78.945 9.17427 79.0372 9.76327C80.1498 9.82277 81.2653 9.91201 82.3808 10.0399C86.4563 10.507 90.4603 11.4053 94.1788 13.1962C96.984 14.5497 99.6494 16.1709 101.375 18.9047C103.258 21.8974 103.621 24.8989 101.637 28.2902C99.9498 31.1697 97.4719 33.1926 94.5952 34.7781C93.1406 35.5813 91.677 36.3637 90.7756 36.8605C83.7522 39.4991 77.1274 40.6979 70.2497 40.7277C65.6583 40.7816 61.0827 40.1806 56.661 38.9428C52.7045 37.8064 48.9563 36.1911 46.0291 33.1093C42.6647 29.5693 42.1619 24.8007 45.333 20.8146C47.067 18.6234 49.2406 16.8197 51.7139 15.5195C52.7819 14.9572 53.8409 14.3563 54.9267 13.8238C54.7263 13.258 54.611 12.6655 54.5846 12.0657C47.808 13.7376 34.1419 16.284 34.1419 16.284L48.1472 15.0465C46.2054 16.1021 44.4019 17.394 42.7777 18.8928C42.1876 19.4556 41.6397 20.0611 41.1386 20.7045C39.2823 23.0843 38.1638 26.1572 38.5595 29.1528C39.208 33.9125 43.4292 37.3602 47.7307 39.4812C54.296 42.7148 61.6913 44.0029 69.0092 44.0862C78.5791 44.1963 88.2352 42.2597 96.7579 37.9076C100.36 36.0692 103.862 33.6923 105.953 30.2297C107.678 27.371 108.276 23.5841 106.902 20.4635C105.528 17.343 102.538 14.9721 99.6315 13.3657C98.9741 12.9998 95.9398 11.1882 95.9398 11.1882C95.9398 11.1882 97.5195 11.569 98.2721 11.8575C102.044 13.3092 105.709 14.9929 108.684 17.8071C111.659 20.6212 113.583 23.9886 113.083 28.2604C112.688 31.6338 110.942 34.3765 108.571 36.7207C106.34 38.9764 103.73 40.8221 100.86 42.1734C98.1382 43.4228 95.449 44.8001 92.617 45.7431C87.7715 47.312 82.7655 48.3327 77.6926 48.7863C72.6623 49.2682 67.6319 49.3337 62.6432 48.6703C58.9289 48.1251 55.2528 47.3462 51.6366 46.3381C48.0604 45.4076 44.6991 43.7911 41.7395 41.5785C39.6958 40.0435 37.911 38.2884 36.6824 35.9532C33.5529 30.0393 35.5341 24.1969 39.6572 19.8567L14.9576 23.7417L37.0096 21.6862C35.8197 25.0715 33.2703 25.9609 29.7274 26.4934L6.37541 30.0066L33.3596 27.481C33.2822 29.0487 32.1102 30.3963 30.7209 31.1311C29.3317 31.8658 27.7462 32.0949 26.1844 32.321L3.87363 35.4653L31.2713 33.0171C31.9703 33.9482 31.5003 35.3731 30.5841 36.09C29.6679 36.8069 28.4601 37.0033 27.3119 37.1758L1 41.0846L26.9519 38.5501C28.1418 38.4341 29.4091 38.3241 30.5216 38.7852C31.6342 39.2462 32.5356 40.4718 32.1964 41.629L4.95942 45.8116L28.9986 43.5329C30.2985 43.4109 31.6401 43.2919 32.8866 43.6816C34.133 44.0713 35.2664 45.1095 35.3646 46.4125L8.98131 50.598L27.645 48.4889C32.5028 47.9445 38.0567 47.6113 41.6116 50.9579L18.5274 54.4622C24.1794 54.5752 29.7898 53.311 35.427 52.722C41.0642 52.1329 47.0286 52.2817 52.0203 54.9887L36.1975 57.4727C36.1975 57.4727 61.1529 56.6338 73.6053 55.6878C86.965 54.6734 100.946 51.068 110.15 41.3494C114.389 36.8575 117.492 30.5688 115.957 24.5925Z" fill="#E65C11" stroke="#E65C11" stroke-width="1.13" stroke-miterlimit="10" stroke-linecap="round"/>
</svg>
