<svg width="23" height="22" viewBox="0 0 23 22" fill="none" xmlns="http://www.w3.org/2000/svg">
<path d="M11.8599 22C17.935 22 22.8599 17.0751 22.8599 11C22.8599 4.92487 17.935 0 11.8599 0C5.78473 0 0.859863 4.92487 0.859863 11C0.859863 17.0751 5.78473 22 11.8599 22Z" fill="#039BE5"/>
<path d="M5.89328 10.7614L16.4991 6.67212C16.9914 6.49429 17.4213 6.7922 17.2618 7.53654L17.2627 7.53562L15.4569 16.0432C15.323 16.6464 14.9646 16.793 14.4632 16.5089L11.7132 14.4821L10.3868 15.76C10.2401 15.9066 10.1164 16.0304 9.83219 16.0304L10.0274 13.2318L15.1241 8.62737C15.3459 8.43212 15.0746 8.32212 14.7822 8.51645L8.48378 12.482L5.76861 11.635C5.17919 11.448 5.16636 11.0455 5.89328 10.7614Z" fill="white"/>
</svg>
