<svg width="46" height="46" viewBox="0 0 46 46" fill="none" xmlns="http://www.w3.org/2000/svg">
<circle cx="23" cy="23" r="23" transform="rotate(-90 23 23)" fill="#E65C11"/>
<path fill-rule="evenodd" clip-rule="evenodd" d="M22.36 15.2379C22.5375 15.0845 22.7643 15 22.999 15C23.2336 15 23.4604 15.0845 23.638 15.2379L30.735 21.6149C30.8177 21.6858 30.8842 21.7738 30.9298 21.8728C30.9753 21.9718 30.9989 22.0795 30.9989 22.1884C30.9989 22.2974 30.9753 22.4051 30.9298 22.5041C30.8842 22.6031 30.8177 22.6911 30.735 22.7619C30.5574 22.9154 30.3306 22.9999 30.096 22.9999C29.8613 22.9999 29.6345 22.9154 29.457 22.7619L22.999 16.9599L16.541 22.7619C16.3635 22.9152 16.1369 22.9995 15.9025 22.9995C15.668 22.9995 15.4414 22.9152 15.264 22.7619C15.1812 22.6911 15.1147 22.6031 15.0692 22.5041C15.0236 22.4051 15 22.2974 15 22.1884C15 22.0795 15.0236 21.9718 15.0692 21.8728C15.1147 21.7738 15.1812 21.6858 15.264 21.6149L22.36 15.2379Z" fill="white"/>
<path d="M21.999 15.9999C21.999 15.4477 22.4467 15 22.999 15C23.5512 15 23.999 15.4477 23.999 15.9999L23.999 29.9999C23.999 30.5522 23.5512 30.9999 22.999 30.9999C22.4467 30.9999 21.999 30.5522 21.999 29.9999L21.999 15.9999Z" fill="white"/>
</svg>
