<svg width="22" height="22" viewBox="0 0 22 22" fill="none" xmlns="http://www.w3.org/2000/svg">
<path d="M17.4198 15.57C17.1498 16.34 15.8298 17.04 15.1998 17.13C14.6298 17.21 13.9198 17.25 13.1298 17C12.6498 16.85 12.0398 16.65 11.2598 16.31C7.9598 14.89 5.8098 11.56 5.6398 11.34C5.4798 11.12 4.2998 9.56004 4.2998 7.94004C4.2998 6.32004 5.1498 5.53004 5.4498 5.20004C5.7498 4.87004 6.1098 4.79004 6.3298 4.79004C6.5498 4.79004 6.7698 4.79004 6.9598 4.80004C7.1598 4.81004 7.4298 4.72004 7.6998 5.36004C7.9698 6.02004 8.6298 7.64004 8.7098 7.80004C8.7898 7.96004 8.8498 8.16004 8.7398 8.38004C8.6298 8.60004 8.57981 8.74004 8.40981 8.93004C8.24981 9.12004 8.0598 9.36004 7.9198 9.51004C7.7598 9.67004 7.5798 9.85004 7.7798 10.18C7.9698 10.51 8.6298 11.59 9.6098 12.46C10.8698 13.58 11.9298 13.93 12.2598 14.09C12.5898 14.25 12.7798 14.23 12.9698 14.01C13.1598 13.79 13.7898 13.05 14.0098 12.72C14.2298 12.39 14.4498 12.45 14.7498 12.55C15.0498 12.66 16.6698 13.46 16.9998 13.62C17.3298 13.79 17.5498 13.87 17.6298 14C17.6898 14.14 17.6898 14.8 17.4198 15.57Z" fill="white"/>
<path d="M18.67 3.19C16.62 1.14 13.88 0 10.97 0C4.97 0 0.0900002 4.88 0.0900002 10.88C0.0900002 12.8 0.590001 14.67 1.54 16.32L0 21.96L5.77 20.45C7.36 21.32 9.15 21.77 10.98 21.77C16.98 21.77 21.86 16.89 21.86 10.89C21.86 7.99 20.73 5.25 18.67 3.19ZM17.42 15.57C17.15 16.34 15.83 17.04 15.2 17.13C14.63 17.21 13.92 17.25 13.13 17C12.65 16.85 12.04 16.65 11.26 16.31C7.96 14.89 5.81 11.56 5.64 11.34C5.48 11.12 4.3 9.56 4.3 7.94C4.3 6.32 5.15 5.53 5.45 5.2C5.75 4.87 6.11 4.79 6.33 4.79C6.55 4.79 6.77 4.79 6.96 4.8C7.16 4.81 7.43 4.72 7.7 5.36C7.97 6.02 8.63 7.64 8.71 7.8C8.79 7.96 8.85 8.16 8.74 8.38C8.63 8.6 8.58 8.74 8.41 8.93C8.25 9.12 8.06 9.36 7.92 9.51C7.76 9.67 7.58 9.85 7.78 10.18C7.97 10.51 8.63 11.59 9.61 12.46C10.87 13.58 11.93 13.93 12.26 14.09C12.59 14.25 12.78 14.23 12.97 14.01C13.16 13.79 13.79 13.05 14.01 12.72C14.23 12.39 14.45 12.45 14.75 12.55C15.05 12.66 16.67 13.46 17 13.62C17.33 13.79 17.55 13.87 17.63 14C17.69 14.14 17.69 14.8 17.42 15.57Z" fill="#39B54A"/>
</svg>
